<svg width="124" height="128" viewBox="0 0 124 128" fill="none" xmlns="http://www.w3.org/2000/svg">
<g id="Group">
<path id="Vector" fill-rule="evenodd" clip-rule="evenodd" d="M6.67591 86.9041C9.78433 88.1347 16.9583 92.3782 19.2711 94.3211C20.8273 95.6486 21.3736 95.9928 21.8031 95.9167C23.8473 95.6444 21.3676 92.5907 16.262 89.0265L13.005 86.7659L14.9937 87.1869C22.7033 88.8202 27.0075 88.7585 25.9443 86.9788C24.838 85.1025 24.3691 84.911 19.769 84.2316C17.3913 83.8776 15.3646 83.5714 15.3149 83.5401C15.2653 83.5088 16.0224 83.1883 17.0469 82.8282C22.3468 80.9665 24.3496 78.4487 20.9742 77.9168C19.8056 77.7352 16.5594 78.4291 12.4091 79.7323C10.6251 80.3072 7.49377 81.0389 5.46794 81.3921C-0.787064 82.5133 -0.429024 84.0913 6.67591 86.9041ZM33.6627 89.5886C36.4661 90.0375 43.3488 89.9013 43.9136 89.3903C45.7579 87.6743 42.3037 85.671 37.8063 85.8192C36.0987 85.8875 33.5113 85.9213 32.0373 85.8941C27.1767 85.8481 28.4723 88.7452 33.6627 89.5886ZM50.543 89.5453C53.6987 89.7654 60.6805 88.0967 61.1664 87.0504C61.9662 85.231 58.9037 84.2027 55.5168 85.12L50.3833 86.4971C48.8144 86.8955 47.5097 87.4258 47.4498 87.6308C47.3015 88.1962 49.3118 89.463 50.543 89.5453ZM66.3264 85.1351C69.0067 85.229 75.4974 79.3321 75.4662 76.8503C75.4095 73.6936 70.4652 76.0916 63.8422 82.5293C62.9996 83.3161 64.697 85.0793 66.3264 85.1351ZM60.8831 77.925C64.7069 79.121 65.5032 79.068 65.0449 77.7041C64.6849 76.6797 63.0872 75.6381 61.2878 75.3018C58.637 74.7757 53.2982 70.371 52.3574 70.8185C50.4444 71.763 56.0342 76.4299 60.8831 77.925ZM50.9093 67.9986C51.1089 67.847 51.4972 67.1207 51.7301 66.3659C52.6921 63.5737 56.2658 60.1039 59.2519 59.1074C61.5436 58.3322 61.7497 58.1153 61.0061 57.3693C57.9361 54.1516 50.5012 58.1357 48.7693 63.9106C48.1708 65.9608 49.6713 68.9177 50.9093 67.9986ZM83.2857 78.9691C86.5111 79.6839 96.364 74.4493 95.3229 72.5795C94.3682 70.9028 92.1281 71.1557 86.8979 73.5122C84.6769 74.5054 82.3188 75.5509 81.6337 75.8127C79.7402 76.5614 80.7159 78.4247 83.2857 78.9691ZM77.1681 72.4437C79.5166 72.2938 78.6221 66.9446 75.5553 62.8967C73.6179 60.358 66.8929 56.5016 65.8232 57.3186C64.897 58.018 65.6184 58.8541 68.8424 60.7817C72.3395 62.8814 73.358 64.1822 73.6677 67.0475C74.113 71.0734 75.0963 72.5946 77.1681 72.4437ZM102.105 69.4668C104.511 69.6654 112.536 61.7184 111.812 59.8405C110.663 56.9316 108.022 58.0413 103.574 63.2836C99.4661 68.1508 99.2009 69.2321 102.105 69.4668ZM114.937 55.0473C116.814 55.2595 122.655 45.936 121.819 44.1261C120.261 40.8207 117.823 42.2671 114.697 48.2731C111.844 53.7918 111.859 54.7031 114.937 55.0473Z" fill="url(#paint0_angular_503_243)"/>
</g>
<defs>
<radialGradient id="paint0_angular_503_243" cx="0" cy="0" r="1" gradientUnits="userSpaceOnUse" gradientTransform="translate(61.9445 64.0182) rotate(-57.7819) scale(49.3991 41.315)">
<stop stop-color="#000024"/>
<stop offset="0.552083" stop-color="#E2730B"/>
<stop offset="1" stop-color="#44040C"/>
</radialGradient>
</defs>
</svg>
