<svg width="117" height="21" viewBox="0 0 117 21" fill="none" xmlns="http://www.w3.org/2000/svg">
<path d="M9.5422 1.46353C9.69188 1.00287 10.3436 1.00287 10.4933 1.46353L12.1546 6.57659C12.2215 6.7826 12.4135 6.92208 12.6301 6.92208L18.0063 6.92208C18.4907 6.92208 18.6921 7.54189 18.3002 7.82659L13.9508 10.9866C13.7755 11.114 13.7022 11.3396 13.7691 11.5457L15.4305 16.6587C15.5802 17.1194 15.0529 17.5024 14.6611 17.2177L10.3116 14.0577C10.1364 13.9304 9.89908 13.9304 9.72384 14.0577L5.37441 17.2177C4.98255 17.5024 4.45531 17.1194 4.60498 16.6587L6.26632 11.5457C6.33326 11.3396 6.25993 11.114 6.08468 10.9866L1.73525 7.82659C1.3434 7.54189 1.54478 6.92208 2.02914 6.92208L7.40534 6.92208C7.62195 6.92208 7.81393 6.7826 7.88087 6.57659L9.5422 1.46353Z" fill="#EDAF4F"/>
<path d="M33.5776 1.46353C33.7273 1.00287 34.379 1.00287 34.5287 1.46353L36.19 6.57659C36.2569 6.7826 36.4489 6.92208 36.6655 6.92208L42.0417 6.92208C42.5261 6.92208 42.7275 7.54189 42.3356 7.82659L37.9862 10.9866C37.8109 11.114 37.7376 11.3396 37.8045 11.5457L39.4659 16.6587C39.6156 17.1194 39.0883 17.5024 38.6965 17.2177L34.347 14.0577C34.1718 13.9304 33.9345 13.9304 33.7592 14.0577L29.4098 17.2177C29.0179 17.5024 28.4907 17.1194 28.6404 16.6587L30.3017 11.5457C30.3687 11.3396 30.2953 11.114 30.1201 10.9866L25.7707 7.82659C25.3788 7.54189 25.5802 6.92208 26.0645 6.92208L31.4407 6.92208C31.6574 6.92208 31.8493 6.7826 31.9163 6.57659L33.5776 1.46353Z" fill="#EDAF4F"/>
<path d="M57.6131 1.46353C57.7628 1.00287 58.4145 1.00287 58.5642 1.46353L60.2255 6.57659C60.2925 6.7826 60.4844 6.92208 60.701 6.92208L66.0772 6.92208C66.5616 6.92208 66.763 7.54189 66.3711 7.82659L62.0217 10.9866C61.8465 11.114 61.7731 11.3396 61.8401 11.5457L63.5014 16.6587C63.6511 17.1194 63.1238 17.5024 62.732 17.2177L58.3825 14.0577C58.2073 13.9304 57.97 13.9304 57.7948 14.0577L53.4453 17.2177C53.0535 17.5024 52.5262 17.1194 52.6759 16.6587L54.3372 11.5457C54.4042 11.3396 54.3309 11.114 54.1556 10.9866L49.8062 7.82659C49.4143 7.54189 49.6157 6.92208 50.1001 6.92208L55.4763 6.92208C55.6929 6.92208 55.8849 6.7826 55.9518 6.57659L57.6131 1.46353Z" fill="#EDAF4F"/>
<path d="M81.6486 1.46353C81.7983 1.00287 82.45 1.00287 82.5997 1.46353L84.261 6.57659C84.328 6.7826 84.52 6.92208 84.7366 6.92208L90.1128 6.92208C90.5971 6.92208 90.7985 7.54189 90.4067 7.82659L86.0572 10.9866C85.882 11.114 85.8086 11.3396 85.8756 11.5457L87.5369 16.6587C87.6866 17.1194 87.1594 17.5024 86.7675 17.2177L82.4181 14.0577C82.2428 13.9304 82.0055 13.9304 81.8303 14.0577L77.4809 17.2177C77.089 17.5024 76.5618 17.1194 76.7114 16.6587L78.3728 11.5457C78.4397 11.3396 78.3664 11.114 78.1911 10.9866L73.8417 7.82659C73.4498 7.54189 73.6512 6.92208 74.1356 6.92208L79.5118 6.92208C79.7284 6.92208 79.9204 6.7826 79.9873 6.57659L81.6486 1.46353Z" fill="#EDAF4F"/>
<path d="M105.684 1.46353C105.834 1.00287 106.485 1.00287 106.635 1.46353L108.296 6.57659C108.363 6.7826 108.555 6.92208 108.772 6.92208L114.148 6.92208C114.633 6.92208 114.834 7.54189 114.442 7.82659L110.093 10.9866C109.917 11.114 109.844 11.3396 109.911 11.5457L111.572 16.6587C111.722 17.1194 111.195 17.5024 110.803 17.2177L106.453 14.0577C106.278 13.9304 106.041 13.9304 105.866 14.0577L101.516 17.2177C101.124 17.5024 100.597 17.1194 100.747 16.6587L102.408 11.5457C102.475 11.3396 102.402 11.114 102.227 10.9866L97.8771 7.82659C97.4852 7.54189 97.6866 6.92208 98.171 6.92208L103.547 6.92208C103.764 6.92208 103.956 6.7826 104.023 6.57659L105.684 1.46353Z" fill="#EDAF4F"/>
</svg>
