<svg width="515" height="257" viewBox="0 0 515 257" fill="none" xmlns="http://www.w3.org/2000/svg">
<g opacity="0.3">
<path fill-rule="evenodd" clip-rule="evenodd" d="M257.5 80.3191C355.354 80.3191 434.681 159.646 434.681 257.5L389.426 257.5C389.426 184.639 330.361 125.574 257.5 125.574C184.639 125.574 125.574 184.639 125.574 257.5L80.3191 257.5C80.3191 159.646 159.646 80.3191 257.5 80.3191Z" fill="#E59F5E"/>
<path fill-rule="evenodd" clip-rule="evenodd" d="M257.5 2.3622e-06C399.713 1.60995e-05 515 115.287 515 257.5L469.745 257.5C469.745 140.28 374.72 45.2548 257.5 45.2548C140.28 45.2548 45.2548 140.28 45.2548 257.5L-2.36219e-06 257.5C1.13751e-05 115.287 115.287 -1.13751e-05 257.5 2.3622e-06Z" fill="#E59F5E"/>
<path fill-rule="evenodd" clip-rule="evenodd" d="M257.5 156.987C313.012 156.987 358.013 201.988 358.013 257.5L312.758 257.5C312.758 226.982 288.018 202.242 257.5 202.242C226.982 202.242 202.242 226.982 202.242 257.5L156.987 257.5C156.987 201.988 201.988 156.987 257.5 156.987Z" fill="#E59F5E"/>
</g>
</svg>
