<svg width="241" height="249" viewBox="0 0 241 249" fill="none" xmlns="http://www.w3.org/2000/svg">
<rect x="35.5" y="44" width="170" height="170" rx="85" fill="#4E82BE"/>
<path d="M143.399 91.3609H132.283C131.704 90.1209 130.45 89.2581 128.993 89.2581H126.592C126.155 86.2877 123.59 84 120.5 84C117.411 84 114.846 86.2877 114.409 89.2581H112.008C110.551 89.2581 109.296 90.1218 108.717 91.3619H97.6018C92.5831 91.3619 88.5 95.445 88.5 100.464V162.994C88.5 168.013 92.5831 172.096 97.6018 172.096H143.398C148.417 172.096 152.5 168.013 152.5 162.994V100.464C152.501 95.4441 148.418 91.3609 143.399 91.3609ZM110.174 92.8892C110.174 91.878 110.996 91.0555 112.008 91.0555H115.242C115.738 91.0555 116.142 90.6533 116.142 90.1563C116.142 87.7528 118.097 85.7974 120.5 85.7974C122.904 85.7974 124.859 87.7528 124.859 90.1563C124.859 90.6523 125.262 91.0555 125.759 91.0555H128.993C130.004 91.0555 130.827 91.878 130.827 92.8892V96.0033C130.827 97.0145 130.004 97.8371 128.993 97.8371H112.008C110.996 97.8371 110.174 97.0145 110.174 96.0033V92.8892ZM112.008 99.6354H128.993C130.45 99.6354 131.705 98.7717 132.284 97.5316H143.399C145.016 97.5316 146.331 98.8464 146.331 100.464V162.994C146.331 164.61 145.016 165.926 143.399 165.926H97.6018C95.9854 165.926 94.6697 164.611 94.6697 162.994V100.464C94.6697 98.8473 95.9845 97.5316 97.6018 97.5316H108.717C109.297 98.7717 110.551 99.6354 112.008 99.6354ZM150.704 162.993C150.704 167.02 147.427 170.297 143.399 170.297H97.6018C93.5742 170.297 90.2974 167.02 90.2974 162.993V100.463C90.2974 96.4352 93.5742 93.1583 97.6018 93.1583H108.376V95.7333H97.6018C94.9934 95.7333 92.8723 97.8553 92.8723 100.463V162.993C92.8723 165.6 94.9943 167.722 97.6018 167.722H143.398C146.006 167.722 148.128 165.6 148.128 162.993V100.463C148.128 97.8553 146.006 95.7333 143.398 95.7333H132.624V93.1583H143.398C147.426 93.1583 150.703 96.4352 150.703 100.463L150.704 162.993ZM119.043 89.7292C119.043 88.9268 119.698 88.2718 120.5 88.2718C121.303 88.2718 121.958 88.9268 121.958 89.7292C121.958 90.5317 121.303 91.1867 120.5 91.1867C119.698 91.1867 119.043 90.5326 119.043 89.7292ZM116.037 112.339C116.037 111.843 116.439 111.44 116.936 111.44H141.446C141.942 111.44 142.345 111.842 142.345 112.339C142.345 112.836 141.943 113.238 141.446 113.238H116.935C116.439 113.237 116.037 112.835 116.037 112.339ZM116.037 117.424C116.037 116.928 116.439 116.525 116.936 116.525H129.191C129.687 116.525 130.09 116.927 130.09 117.424C130.09 117.92 129.688 118.324 129.191 118.324H116.935C116.439 118.324 116.037 117.921 116.037 117.424ZM98.6571 117.4V112.363C98.6571 110.862 99.878 109.642 101.378 109.642H106.416C106.775 109.642 107.125 109.712 107.455 109.849C107.914 110.04 108.131 110.565 107.941 111.024C107.75 111.483 107.225 111.7 106.766 111.509C106.655 111.463 106.537 111.44 106.416 111.44H101.378C100.869 111.44 100.454 111.854 100.454 112.364V117.402C100.454 117.911 100.868 118.325 101.378 118.325H106.416C106.925 118.325 107.339 117.912 107.339 117.402V116.998C107.339 116.502 107.742 116.099 108.239 116.099C108.736 116.099 109.138 116.501 109.138 116.998V117.402C109.138 118.903 107.917 120.123 106.417 120.123H101.378C99.877 120.121 98.6571 118.901 98.6571 117.4ZM109.137 134.895V135.3C109.137 136.8 107.916 138.02 106.416 138.02H101.378C99.877 138.02 98.6571 136.799 98.6571 135.3V130.261C98.6571 128.76 99.878 127.54 101.378 127.54H106.416C106.775 127.54 107.125 127.61 107.455 127.747C107.914 127.938 108.131 128.463 107.941 128.922C107.75 129.381 107.225 129.598 106.766 129.408C106.655 129.362 106.537 129.339 106.416 129.339H101.378C100.869 129.339 100.454 129.752 100.454 130.262V135.301C100.454 135.81 100.868 136.224 101.378 136.224H106.416C106.925 136.224 107.339 135.81 107.339 135.301V134.896C107.339 134.399 107.742 133.997 108.239 133.997C108.736 133.997 109.137 134.399 109.137 134.895ZM116.037 130.237C116.037 129.741 116.439 129.338 116.936 129.338H141.446C141.942 129.338 142.345 129.74 142.345 130.237C142.345 130.734 141.943 131.136 141.446 131.136H116.935C116.439 131.136 116.037 130.734 116.037 130.237ZM116.037 135.324C116.037 134.827 116.439 134.424 116.936 134.424H129.191C129.687 134.424 130.09 134.827 130.09 135.324C130.09 135.821 129.688 136.223 129.191 136.223H116.935C116.439 136.222 116.037 135.82 116.037 135.324ZM111.469 128.935C111.764 129.334 111.678 129.897 111.279 130.192L104.865 134.928C104.709 135.043 104.522 135.104 104.331 135.104C104.282 135.104 104.232 135.1 104.183 135.092C103.943 135.052 103.729 134.917 103.591 134.716L101.433 131.599C101.151 131.192 101.252 130.631 101.66 130.349C102.068 130.066 102.628 130.168 102.911 130.576L104.541 132.931L110.21 128.746C110.612 128.451 111.174 128.535 111.469 128.935ZM104.543 115.032L110.212 110.847C110.612 110.552 111.175 110.636 111.47 111.036C111.764 111.436 111.679 111.999 111.28 112.294L104.866 117.029C104.71 117.144 104.523 117.205 104.332 117.205C104.283 117.205 104.233 117.201 104.184 117.193C103.944 117.152 103.731 117.017 103.592 116.817L101.434 113.7C101.152 113.292 101.253 112.732 101.661 112.45C102.069 112.167 102.629 112.269 102.912 112.677L104.543 115.032ZM106.416 145.439H101.378C99.877 145.439 98.6571 146.659 98.6571 148.16V153.199C98.6571 154.699 99.878 155.919 101.378 155.919H106.416C107.917 155.919 109.137 154.699 109.137 153.199V148.16C109.137 146.659 107.916 145.439 106.416 145.439ZM107.339 153.198C107.339 153.706 106.925 154.121 106.415 154.121H101.378C100.869 154.121 100.454 153.707 100.454 153.198V148.159C100.454 147.65 100.868 147.236 101.378 147.236H106.416C106.925 147.236 107.339 147.65 107.339 148.159L107.339 153.198ZM116.037 148.136C116.037 147.639 116.439 147.237 116.936 147.237H141.446C141.942 147.237 142.345 147.639 142.345 148.136C142.345 148.633 141.943 149.035 141.446 149.035H116.935C116.439 149.035 116.037 148.632 116.037 148.136ZM116.037 153.222C116.037 152.725 116.439 152.323 116.936 152.323H129.191C129.687 152.323 130.09 152.725 130.09 153.222C130.09 153.719 129.688 154.121 129.191 154.121H116.935C116.439 154.121 116.037 153.719 116.037 153.222ZM106.186 149.661L105.168 150.679L106.186 151.697C106.537 152.049 106.537 152.617 106.186 152.968C106.01 153.143 105.78 153.231 105.55 153.231C105.32 153.231 105.09 153.143 104.914 152.968L103.896 151.95L102.878 152.968C102.527 153.319 101.958 153.319 101.606 152.968C101.255 152.617 101.255 152.048 101.606 151.697L102.624 150.679L101.606 149.661C101.255 149.31 101.255 148.741 101.606 148.391C101.958 148.039 102.527 148.039 102.878 148.391L103.896 149.409L104.914 148.391C105.265 148.039 105.834 148.039 106.186 148.391C106.537 148.741 106.537 149.31 106.186 149.661Z" fill="white"/>
<path d="M100.836 2.38H94.1357V6.36C94.4157 5.98667 94.8291 5.67333 95.3757 5.42C95.9357 5.16667 96.5291 5.04 97.1557 5.04C98.2757 5.04 99.1824 5.28 99.8757 5.76C100.582 6.24 101.082 6.84667 101.376 7.58C101.682 8.31333 101.836 9.08667 101.836 9.9C101.836 10.8867 101.642 11.7667 101.256 12.54C100.882 13.3 100.316 13.9 99.5557 14.34C98.8091 14.78 97.8891 15 96.7957 15C95.3424 15 94.1757 14.64 93.2957 13.92C92.4157 13.2 91.8891 12.2467 91.7157 11.06H93.9357C94.0824 11.6867 94.4091 12.1867 94.9157 12.56C95.4224 12.92 96.0557 13.1 96.8157 13.1C97.7624 13.1 98.4691 12.8133 98.9357 12.24C99.4157 11.6667 99.6557 10.9067 99.6557 9.96C99.6557 9 99.4157 8.26667 98.9357 7.76C98.4557 7.24 97.7491 6.98 96.8157 6.98C96.1624 6.98 95.6091 7.14667 95.1557 7.48C94.7157 7.8 94.3957 8.24 94.1957 8.8H92.0357V0.38H100.836V2.38ZM105.429 15.14C105.016 15.14 104.669 15 104.389 14.72C104.109 14.44 103.969 14.0933 103.969 13.68C103.969 13.2667 104.109 12.92 104.389 12.64C104.669 12.36 105.016 12.22 105.429 12.22C105.829 12.22 106.169 12.36 106.449 12.64C106.729 12.92 106.869 13.2667 106.869 13.68C106.869 14.0933 106.729 14.44 106.449 14.72C106.169 15 105.829 15.14 105.429 15.14ZM124.98 1.1V2.96H121.28V15H119V2.96H115.28V1.1H124.98ZM137.389 9.22C137.389 9.63333 137.362 10.0067 137.309 10.34H128.889C128.956 11.22 129.282 11.9267 129.869 12.46C130.456 12.9933 131.176 13.26 132.029 13.26C133.256 13.26 134.122 12.7467 134.629 11.72H137.089C136.756 12.7333 136.149 13.5667 135.269 14.22C134.402 14.86 133.322 15.18 132.029 15.18C130.976 15.18 130.029 14.9467 129.189 14.48C128.362 14 127.709 13.3333 127.229 12.48C126.762 11.6133 126.529 10.6133 126.529 9.48C126.529 8.34667 126.756 7.35333 127.209 6.5C127.676 5.63333 128.322 4.96667 129.149 4.5C129.989 4.03333 130.949 3.8 132.029 3.8C133.069 3.8 133.996 4.02667 134.809 4.48C135.622 4.93333 136.256 5.57333 136.709 6.4C137.162 7.21333 137.389 8.15333 137.389 9.22ZM135.009 8.5C134.996 7.66 134.696 6.98667 134.109 6.48C133.522 5.97333 132.796 5.72 131.929 5.72C131.142 5.72 130.469 5.97333 129.909 6.48C129.349 6.97333 129.016 7.64667 128.909 8.5H135.009ZM143.633 15.18C142.766 15.18 141.986 15.0267 141.293 14.72C140.613 14.4 140.073 13.9733 139.673 13.44C139.273 12.8933 139.059 12.2867 139.033 11.62H141.393C141.433 12.0867 141.653 12.48 142.053 12.8C142.466 13.1067 142.979 13.26 143.593 13.26C144.233 13.26 144.726 13.14 145.073 12.9C145.433 12.6467 145.613 12.3267 145.613 11.94C145.613 11.5267 145.413 11.22 145.013 11.02C144.626 10.82 144.006 10.6 143.153 10.36C142.326 10.1333 141.653 9.91333 141.133 9.7C140.613 9.48667 140.159 9.16 139.773 8.72C139.399 8.28 139.213 7.7 139.213 6.98C139.213 6.39333 139.386 5.86 139.733 5.38C140.079 4.88667 140.573 4.5 141.213 4.22C141.866 3.94 142.613 3.8 143.453 3.8C144.706 3.8 145.713 4.12 146.473 4.76C147.246 5.38667 147.659 6.24667 147.713 7.34H145.433C145.393 6.84667 145.193 6.45333 144.833 6.16C144.473 5.86667 143.986 5.72 143.373 5.72C142.773 5.72 142.313 5.83333 141.993 6.06C141.673 6.28667 141.513 6.58667 141.513 6.96C141.513 7.25333 141.619 7.5 141.833 7.7C142.046 7.9 142.306 8.06 142.613 8.18C142.919 8.28667 143.373 8.42667 143.973 8.6C144.773 8.81333 145.426 9.03333 145.933 9.26C146.453 9.47333 146.899 9.79333 147.273 10.22C147.646 10.6467 147.839 11.2133 147.853 11.92C147.853 12.5467 147.679 13.1067 147.333 13.6C146.986 14.0933 146.493 14.48 145.853 14.76C145.226 15.04 144.486 15.18 143.633 15.18ZM152.976 5.84V11.94C152.976 12.3533 153.07 12.6533 153.256 12.84C153.456 13.0133 153.79 13.1 154.256 13.1H155.656V15H153.856C152.83 15 152.043 14.76 151.496 14.28C150.95 13.8 150.676 13.02 150.676 11.94V5.84H149.376V3.98H150.676V1.24H152.976V3.98H155.656V5.84H152.976Z" fill="#000024"/>
</svg>
