<svg width="241" height="250" viewBox="0 0 241 250" fill="none" xmlns="http://www.w3.org/2000/svg">
<rect x="35.5" y="45" width="170" height="170" rx="85" fill="#F1465C"/>
<path d="M103.367 91C93.0848 91 83.6277 96.6626 78.7746 105.726C73.9215 114.79 74.4546 125.821 80.4286 134.376C85.9845 142.332 87.2024 147.025 87.2024 152.66C87.2024 158.11 84.9552 161.988 81.839 164.76C80.8345 165.657 81.467 167.32 82.8136 167.323H109.264C109.918 167.322 110.494 166.888 110.674 166.259L113.291 157.068H115.109H115.124L118.085 157.048C119.108 157.048 120.087 156.864 121 156.541C121.913 156.864 122.892 157.048 123.915 157.048L126.877 157.068H126.891H128.709L131.326 166.259C131.506 166.888 132.082 167.322 132.736 167.323H159.186C160.533 167.323 161.166 165.657 160.161 164.76C157.045 161.988 154.798 158.11 154.798 152.66C154.798 147.025 156.016 142.332 161.571 134.376C167.545 125.821 168.079 114.79 163.225 105.726C158.372 96.6624 148.915 91 138.633 91H132.722C128.382 91 124.38 92.5126 121 95.0764C117.621 92.5126 113.618 91 109.279 91H103.367ZM138.632 93.9326C147.838 93.9326 156.292 98.9967 160.636 107.111C164.981 115.225 164.507 125.037 159.163 132.69C153.401 140.942 151.862 146.562 151.862 152.657C151.862 157.45 153.456 161.36 155.82 164.384H133.845L131.231 155.197C131.051 154.565 130.474 154.13 129.817 154.13H126.902L124.606 154.115C126.004 152.555 126.867 150.501 126.882 148.244L126.897 146.507C128.645 145.89 129.818 144.205 129.818 142.362V139.429H132.742C134.342 139.429 135.677 138.094 135.677 136.494C135.677 136.323 135.646 136.153 135.588 135.992L129.937 120.443L131.121 118.073C131.223 117.869 131.276 117.644 131.276 117.416C131.276 109.278 128.191 101.92 123.296 97.0483C126.09 95.076 129.308 93.9351 132.721 93.9351H138.632L138.632 93.9326ZM121 98.9436C125.369 103.16 128.238 109.677 128.315 117.118L127.031 119.696C126.85 120.056 126.825 120.475 126.962 120.854L132.647 136.494H128.344C127.533 136.494 126.876 137.151 126.876 137.962V142.362C126.876 143.201 126.248 143.83 125.411 143.83C124.601 143.83 123.944 144.487 123.944 145.298V148.245C123.944 150.448 122.76 152.317 121 153.322C119.239 152.317 118.056 150.448 118.056 148.245V145.298C118.055 144.487 117.398 143.83 116.588 143.83C115.751 143.83 115.123 143.201 115.123 142.362V137.962C115.123 137.151 114.466 136.494 113.655 136.494H109.353L115.037 120.854C115.174 120.475 115.149 120.056 114.968 119.696L113.684 117.118C113.76 109.677 116.631 103.16 121 98.9436Z" fill="white"/>
<path d="M103.368 93.9265H109.279C112.691 93.9265 115.909 95.0674 118.704 97.0396C113.808 101.911 110.723 109.269 110.723 117.408C110.723 117.635 110.776 117.86 110.878 118.064L112.062 120.435L106.412 135.984C106.353 136.144 106.324 136.314 106.322 136.485C106.322 138.085 107.657 139.421 109.258 139.421H112.182V142.353C112.182 144.196 113.354 145.881 115.103 146.499L115.117 148.236C115.132 150.493 115.995 152.547 117.394 154.107L115.097 154.122H112.182C111.526 154.121 110.948 154.556 110.769 155.188L108.154 164.375H86.179C88.5438 161.351 90.1378 157.442 90.1378 152.648C90.1378 146.553 88.5987 140.934 82.8364 132.682C77.4922 125.028 77.0184 115.216 81.3629 107.102C85.7076 98.9879 94.1613 93.9238 103.367 93.9238L103.368 93.9265Z" fill="white"/>
<path d="M64.417 3.5V1.42H68.577V16H66.277V3.5H64.417ZM72.9292 16.14C72.5158 16.14 72.1692 16 71.8892 15.72C71.6092 15.44 71.4692 15.0933 71.4692 14.68C71.4692 14.2667 71.6092 13.92 71.8892 13.64C72.1692 13.36 72.5158 13.22 72.9292 13.22C73.3292 13.22 73.6692 13.36 73.9492 13.64C74.2292 13.92 74.3692 14.2667 74.3692 14.68C74.3692 15.0933 74.2292 15.44 73.9492 15.72C73.6692 16 73.3292 16.14 72.9292 16.14ZM85.78 3.94V8.02H90.58V9.88H85.78V14.14H91.18V16H83.5V2.08H91.18V3.94H85.78ZM107.328 4.8C108.195 4.8 108.968 4.98 109.648 5.34C110.342 5.7 110.882 6.23333 111.268 6.94C111.668 7.64667 111.868 8.5 111.868 9.5V16H109.608V9.84C109.608 8.85333 109.362 8.1 108.868 7.58C108.375 7.04667 107.702 6.78 106.848 6.78C105.995 6.78 105.315 7.04667 104.808 7.58C104.315 8.1 104.068 8.85333 104.068 9.84V16H101.808V9.84C101.808 8.85333 101.562 8.1 101.068 7.58C100.575 7.04667 99.9016 6.78 99.0483 6.78C98.1949 6.78 97.5149 7.04667 97.0083 7.58C96.5149 8.1 96.2683 8.85333 96.2683 9.84V16H93.9883V4.98H96.2683V6.24C96.6416 5.78667 97.1149 5.43333 97.6883 5.18C98.2616 4.92667 98.8749 4.8 99.5283 4.8C100.408 4.8 101.195 4.98667 101.888 5.36C102.582 5.73333 103.115 6.27333 103.488 6.98C103.822 6.31333 104.342 5.78667 105.048 5.4C105.755 5 106.515 4.8 107.328 4.8ZM117.05 6.6C117.436 6.09333 117.963 5.66667 118.63 5.32C119.296 4.97333 120.05 4.8 120.89 4.8C121.85 4.8 122.723 5.04 123.51 5.52C124.31 5.98667 124.936 6.64667 125.39 7.5C125.843 8.35333 126.07 9.33333 126.07 10.44C126.07 11.5467 125.843 12.54 125.39 13.42C124.936 14.2867 124.31 14.9667 123.51 15.46C122.723 15.94 121.85 16.18 120.89 16.18C120.05 16.18 119.303 16.0133 118.65 15.68C117.996 15.3333 117.463 14.9067 117.05 14.4V21.24H114.77V4.98H117.05V6.6ZM123.75 10.44C123.75 9.68 123.59 9.02667 123.27 8.48C122.963 7.92 122.55 7.5 122.03 7.22C121.523 6.92667 120.976 6.78 120.39 6.78C119.816 6.78 119.27 6.92667 118.75 7.22C118.243 7.51333 117.83 7.94 117.51 8.5C117.203 9.06 117.05 9.72 117.05 10.48C117.05 11.24 117.203 11.9067 117.51 12.48C117.83 13.04 118.243 13.4667 118.75 13.76C119.27 14.0533 119.816 14.2 120.39 14.2C120.976 14.2 121.523 14.0533 122.03 13.76C122.55 13.4533 122.963 13.0133 123.27 12.44C123.59 11.8667 123.75 11.2 123.75 10.44ZM127.564 10.44C127.564 9.33333 127.791 8.35333 128.244 7.5C128.711 6.64667 129.338 5.98667 130.124 5.52C130.924 5.04 131.804 4.8 132.764 4.8C133.631 4.8 134.384 4.97333 135.024 5.32C135.678 5.65333 136.198 6.07333 136.584 6.58V4.98H138.884V16H136.584V14.36C136.198 14.88 135.671 15.3133 135.004 15.66C134.338 16.0067 133.578 16.18 132.724 16.18C131.778 16.18 130.911 15.94 130.124 15.46C129.338 14.9667 128.711 14.2867 128.244 13.42C127.791 12.54 127.564 11.5467 127.564 10.44ZM136.584 10.48C136.584 9.72 136.424 9.06 136.104 8.5C135.798 7.94 135.391 7.51333 134.884 7.22C134.378 6.92667 133.831 6.78 133.244 6.78C132.658 6.78 132.111 6.92667 131.604 7.22C131.098 7.5 130.684 7.92 130.364 8.48C130.058 9.02667 129.904 9.68 129.904 10.44C129.904 11.2 130.058 11.8667 130.364 12.44C130.684 13.0133 131.098 13.4533 131.604 13.76C132.124 14.0533 132.671 14.2 133.244 14.2C133.831 14.2 134.378 14.0533 134.884 13.76C135.391 13.4667 135.798 13.04 136.104 12.48C136.424 11.9067 136.584 11.24 136.584 10.48ZM144.539 6.84V12.94C144.539 13.3533 144.632 13.6533 144.819 13.84C145.019 14.0133 145.352 14.1 145.819 14.1H147.219V16H145.419C144.392 16 143.606 15.76 143.059 15.28C142.512 14.8 142.239 14.02 142.239 12.94V6.84H140.939V4.98H142.239V2.24H144.539V4.98H147.219V6.84H144.539ZM155.02 4.8C155.86 4.8 156.607 4.98 157.26 5.34C157.927 5.7 158.447 6.23333 158.82 6.94C159.207 7.64667 159.4 8.5 159.4 9.5V16H157.14V9.84C157.14 8.85333 156.894 8.1 156.4 7.58C155.907 7.04667 155.234 6.78 154.38 6.78C153.527 6.78 152.847 7.04667 152.34 7.58C151.847 8.1 151.6 8.85333 151.6 9.84V16H149.32V1.2H151.6V6.26C151.987 5.79333 152.474 5.43333 153.06 5.18C153.66 4.92667 154.314 4.8 155.02 4.8ZM163.469 3.52C163.055 3.52 162.709 3.38 162.429 3.1C162.149 2.82 162.009 2.47333 162.009 2.06C162.009 1.64667 162.149 1.3 162.429 1.02C162.709 0.739999 163.055 0.599999 163.469 0.599999C163.869 0.599999 164.209 0.739999 164.489 1.02C164.769 1.3 164.909 1.64667 164.909 2.06C164.909 2.47333 164.769 2.82 164.489 3.1C164.209 3.38 163.869 3.52 163.469 3.52ZM164.589 4.98V16H162.309V4.98H164.589ZM169.602 14.14H174.602V16H166.962V14.14L171.982 6.84H166.962V4.98H174.602V6.84L169.602 14.14ZM187.096 10.22C187.096 10.6333 187.069 11.0067 187.016 11.34H178.596C178.663 12.22 178.989 12.9267 179.576 13.46C180.163 13.9933 180.883 14.26 181.736 14.26C182.963 14.26 183.829 13.7467 184.336 12.72H186.796C186.463 13.7333 185.856 14.5667 184.976 15.22C184.109 15.86 183.029 16.18 181.736 16.18C180.683 16.18 179.736 15.9467 178.896 15.48C178.069 15 177.416 14.3333 176.936 13.48C176.469 12.6133 176.236 11.6133 176.236 10.48C176.236 9.34667 176.463 8.35333 176.916 7.5C177.383 6.63333 178.029 5.96667 178.856 5.5C179.696 5.03333 180.656 4.8 181.736 4.8C182.776 4.8 183.703 5.02667 184.516 5.48C185.329 5.93333 185.963 6.57333 186.416 7.4C186.869 8.21333 187.096 9.15333 187.096 10.22ZM184.716 9.5C184.703 8.66 184.403 7.98667 183.816 7.48C183.229 6.97333 182.503 6.72 181.636 6.72C180.849 6.72 180.176 6.97333 179.616 7.48C179.056 7.97333 178.723 8.64667 178.616 9.5H184.716Z" fill="#000024"/>
</svg>
