<svg width="1365" height="283" viewBox="0 0 1365 283" fill="none" xmlns="http://www.w3.org/2000/svg">
<rect x="35.5" y="45" width="170" height="170" rx="85" fill="#F1465C"/>
<path d="M103.367 91C93.0848 91 83.6277 96.6626 78.7746 105.726C73.9215 114.79 74.4546 125.821 80.4286 134.376C85.9845 142.332 87.2024 147.025 87.2024 152.66C87.2024 158.11 84.9552 161.988 81.839 164.76C80.8345 165.657 81.467 167.32 82.8136 167.323H109.264C109.918 167.322 110.494 166.888 110.674 166.259L113.291 157.068H115.109H115.124L118.085 157.048C119.108 157.048 120.087 156.864 121 156.541C121.913 156.864 122.892 157.048 123.915 157.048L126.877 157.068H126.891H128.709L131.326 166.259C131.506 166.888 132.082 167.322 132.736 167.323H159.186C160.533 167.323 161.166 165.657 160.161 164.76C157.045 161.988 154.798 158.11 154.798 152.66C154.798 147.025 156.016 142.332 161.571 134.376C167.545 125.821 168.079 114.79 163.225 105.726C158.372 96.6624 148.915 91 138.633 91H132.722C128.382 91 124.38 92.5126 121 95.0764C117.621 92.5126 113.618 91 109.279 91H103.367ZM138.632 93.9326C147.838 93.9326 156.292 98.9967 160.636 107.111C164.981 115.225 164.507 125.037 159.163 132.69C153.401 140.942 151.862 146.562 151.862 152.657C151.862 157.45 153.456 161.36 155.82 164.384H133.845L131.231 155.197C131.051 154.565 130.474 154.13 129.817 154.13H126.902L124.606 154.115C126.004 152.555 126.867 150.501 126.882 148.244L126.897 146.507C128.645 145.89 129.818 144.205 129.818 142.362V139.429H132.742C134.342 139.429 135.677 138.094 135.677 136.494C135.677 136.323 135.646 136.153 135.588 135.992L129.937 120.443L131.121 118.073C131.223 117.869 131.276 117.644 131.276 117.416C131.276 109.278 128.191 101.92 123.296 97.0483C126.09 95.076 129.308 93.9351 132.721 93.9351H138.632L138.632 93.9326ZM121 98.9436C125.369 103.16 128.238 109.677 128.315 117.118L127.031 119.696C126.85 120.056 126.825 120.475 126.962 120.854L132.647 136.494H128.344C127.533 136.494 126.876 137.151 126.876 137.962V142.362C126.876 143.201 126.248 143.83 125.411 143.83C124.601 143.83 123.944 144.487 123.944 145.298V148.245C123.944 150.448 122.76 152.317 121 153.322C119.239 152.317 118.056 150.448 118.056 148.245V145.298C118.055 144.487 117.398 143.83 116.588 143.83C115.751 143.83 115.123 143.201 115.123 142.362V137.962C115.123 137.151 114.466 136.494 113.655 136.494H109.353L115.037 120.854C115.174 120.475 115.149 120.056 114.968 119.696L113.684 117.118C113.76 109.677 116.631 103.16 121 98.9436Z" fill="white"/>
<path d="M103.367 93.9265H109.278C112.691 93.9265 115.909 95.0674 118.704 97.0396C113.808 101.911 110.723 109.269 110.723 117.408C110.723 117.635 110.776 117.86 110.878 118.064L112.062 120.435L106.412 135.984C106.353 136.144 106.324 136.314 106.322 136.485C106.322 138.085 107.657 139.421 109.257 139.421H112.181V142.353C112.181 144.196 113.354 145.881 115.103 146.499L115.117 148.236C115.132 150.493 115.995 152.547 117.393 154.107L115.097 154.122H112.182C111.525 154.121 110.948 154.556 110.769 155.188L108.154 164.375H86.1788C88.5435 161.351 90.1376 157.442 90.1376 152.648C90.1376 146.553 88.5985 140.934 82.8361 132.682C77.4919 125.028 77.0182 115.216 81.3627 107.102C85.7074 98.9879 94.1611 93.9238 103.367 93.9238L103.367 93.9265Z" fill="white"/>
<path d="M64.917 3.5V1.42H69.077V16H66.777V3.5H64.917ZM73.4292 16.14C73.0158 16.14 72.6692 16 72.3892 15.72C72.1092 15.44 71.9692 15.0933 71.9692 14.68C71.9692 14.2667 72.1092 13.92 72.3892 13.64C72.6692 13.36 73.0158 13.22 73.4292 13.22C73.8292 13.22 74.1692 13.36 74.4492 13.64C74.7292 13.92 74.8692 14.2667 74.8692 14.68C74.8692 15.0933 74.7292 15.44 74.4492 15.72C74.1692 16 73.8292 16.14 73.4292 16.14ZM86.28 3.94V8.02H91.08V9.88H86.28V14.14H91.68V16H84V2.08H91.68V3.94H86.28ZM107.828 4.8C108.695 4.8 109.468 4.98 110.148 5.34C110.842 5.7 111.382 6.23333 111.768 6.94C112.168 7.64667 112.368 8.5 112.368 9.5V16H110.108V9.84C110.108 8.85333 109.862 8.1 109.368 7.58C108.875 7.04667 108.202 6.78 107.348 6.78C106.495 6.78 105.815 7.04667 105.308 7.58C104.815 8.1 104.568 8.85333 104.568 9.84V16H102.308V9.84C102.308 8.85333 102.062 8.1 101.568 7.58C101.075 7.04667 100.402 6.78 99.5483 6.78C98.6949 6.78 98.0149 7.04667 97.5083 7.58C97.0149 8.1 96.7683 8.85333 96.7683 9.84V16H94.4883V4.98H96.7683V6.24C97.1416 5.78667 97.6149 5.43333 98.1883 5.18C98.7616 4.92667 99.3749 4.8 100.028 4.8C100.908 4.8 101.695 4.98667 102.388 5.36C103.082 5.73333 103.615 6.27333 103.988 6.98C104.322 6.31333 104.842 5.78667 105.548 5.4C106.255 5 107.015 4.8 107.828 4.8ZM117.55 6.6C117.936 6.09333 118.463 5.66667 119.13 5.32C119.796 4.97333 120.55 4.8 121.39 4.8C122.35 4.8 123.223 5.04 124.01 5.52C124.81 5.98667 125.436 6.64667 125.89 7.5C126.343 8.35333 126.57 9.33333 126.57 10.44C126.57 11.5467 126.343 12.54 125.89 13.42C125.436 14.2867 124.81 14.9667 124.01 15.46C123.223 15.94 122.35 16.18 121.39 16.18C120.55 16.18 119.803 16.0133 119.15 15.68C118.496 15.3333 117.963 14.9067 117.55 14.4V21.24H115.27V4.98H117.55V6.6ZM124.25 10.44C124.25 9.68 124.09 9.02667 123.77 8.48C123.463 7.92 123.05 7.5 122.53 7.22C122.023 6.92667 121.476 6.78 120.89 6.78C120.316 6.78 119.77 6.92667 119.25 7.22C118.743 7.51333 118.33 7.94 118.01 8.5C117.703 9.06 117.55 9.72 117.55 10.48C117.55 11.24 117.703 11.9067 118.01 12.48C118.33 13.04 118.743 13.4667 119.25 13.76C119.77 14.0533 120.316 14.2 120.89 14.2C121.476 14.2 122.023 14.0533 122.53 13.76C123.05 13.4533 123.463 13.0133 123.77 12.44C124.09 11.8667 124.25 11.2 124.25 10.44ZM128.064 10.44C128.064 9.33333 128.291 8.35333 128.744 7.5C129.211 6.64667 129.838 5.98667 130.624 5.52C131.424 5.04 132.304 4.8 133.264 4.8C134.131 4.8 134.884 4.97333 135.524 5.32C136.178 5.65333 136.698 6.07333 137.084 6.58V4.98H139.384V16H137.084V14.36C136.698 14.88 136.171 15.3133 135.504 15.66C134.838 16.0067 134.078 16.18 133.224 16.18C132.278 16.18 131.411 15.94 130.624 15.46C129.838 14.9667 129.211 14.2867 128.744 13.42C128.291 12.54 128.064 11.5467 128.064 10.44ZM137.084 10.48C137.084 9.72 136.924 9.06 136.604 8.5C136.298 7.94 135.891 7.51333 135.384 7.22C134.878 6.92667 134.331 6.78 133.744 6.78C133.158 6.78 132.611 6.92667 132.104 7.22C131.598 7.5 131.184 7.92 130.864 8.48C130.558 9.02667 130.404 9.68 130.404 10.44C130.404 11.2 130.558 11.8667 130.864 12.44C131.184 13.0133 131.598 13.4533 132.104 13.76C132.624 14.0533 133.171 14.2 133.744 14.2C134.331 14.2 134.878 14.0533 135.384 13.76C135.891 13.4667 136.298 13.04 136.604 12.48C136.924 11.9067 137.084 11.24 137.084 10.48ZM145.039 6.84V12.94C145.039 13.3533 145.132 13.6533 145.319 13.84C145.519 14.0133 145.852 14.1 146.319 14.1H147.719V16H145.919C144.892 16 144.106 15.76 143.559 15.28C143.012 14.8 142.739 14.02 142.739 12.94V6.84H141.439V4.98H142.739V2.24H145.039V4.98H147.719V6.84H145.039ZM155.52 4.8C156.36 4.8 157.107 4.98 157.76 5.34C158.427 5.7 158.947 6.23333 159.32 6.94C159.707 7.64667 159.9 8.5 159.9 9.5V16H157.64V9.84C157.64 8.85333 157.394 8.1 156.9 7.58C156.407 7.04667 155.734 6.78 154.88 6.78C154.027 6.78 153.347 7.04667 152.84 7.58C152.347 8.1 152.1 8.85333 152.1 9.84V16H149.82V1.2H152.1V6.26C152.487 5.79333 152.974 5.43333 153.56 5.18C154.16 4.92667 154.814 4.8 155.52 4.8ZM163.969 3.52C163.555 3.52 163.209 3.38 162.929 3.1C162.649 2.82 162.509 2.47333 162.509 2.06C162.509 1.64667 162.649 1.3 162.929 1.02C163.209 0.739999 163.555 0.599999 163.969 0.599999C164.369 0.599999 164.709 0.739999 164.989 1.02C165.269 1.3 165.409 1.64667 165.409 2.06C165.409 2.47333 165.269 2.82 164.989 3.1C164.709 3.38 164.369 3.52 163.969 3.52ZM165.089 4.98V16H162.809V4.98H165.089ZM170.102 14.14H175.102V16H167.462V14.14L172.482 6.84H167.462V4.98H175.102V6.84L170.102 14.14ZM187.596 10.22C187.596 10.6333 187.569 11.0067 187.516 11.34H179.096C179.163 12.22 179.489 12.9267 180.076 13.46C180.663 13.9933 181.383 14.26 182.236 14.26C183.463 14.26 184.329 13.7467 184.836 12.72H187.296C186.963 13.7333 186.356 14.5667 185.476 15.22C184.609 15.86 183.529 16.18 182.236 16.18C181.183 16.18 180.236 15.9467 179.396 15.48C178.569 15 177.916 14.3333 177.436 13.48C176.969 12.6133 176.736 11.6133 176.736 10.48C176.736 9.34667 176.963 8.35333 177.416 7.5C177.883 6.63333 178.529 5.96667 179.356 5.5C180.196 5.03333 181.156 4.8 182.236 4.8C183.276 4.8 184.203 5.02667 185.016 5.48C185.829 5.93333 186.463 6.57333 186.916 7.4C187.369 8.21333 187.596 9.15333 187.596 10.22ZM185.216 9.5C185.203 8.66 184.903 7.98667 184.316 7.48C183.729 6.97333 183.003 6.72 182.136 6.72C181.349 6.72 180.676 6.97333 180.116 7.48C179.556 7.97333 179.223 8.64667 179.116 9.5H185.216Z" fill="#000024"/>
<path opacity="0.25" d="M352.205 17.7101L351.428 17.0805L352.205 17.7101ZM120 225.5C120 228.58 120.446 231.471 121.265 234.142L123.177 233.556C122.418 231.078 122 228.385 122 225.5H120ZM131.25 248.224C135.95 251.719 141.673 253.747 147.525 253.991L147.608 251.992C142.157 251.766 136.821 249.875 132.443 246.619L131.25 248.224ZM164.148 249.337C166.466 247.777 168.633 245.812 170.572 243.42L169.019 242.16C167.202 244.402 165.182 246.231 163.032 247.677L164.148 249.337ZM170.572 243.42L175.133 237.793L173.579 236.533L169.019 242.16L170.572 243.42ZM184.253 226.539L193.373 215.285L191.82 214.025L182.699 225.279L184.253 226.539ZM202.494 204.031L211.614 192.777L210.061 191.517L200.94 202.771L202.494 204.031ZM220.735 181.523L229.855 170.269L228.302 169.009L219.181 180.263L220.735 181.523ZM238.976 159.015L248.096 147.761L246.542 146.501L237.422 157.755L238.976 159.015ZM257.217 136.507L266.337 125.253L264.783 123.993L255.663 135.247L257.217 136.507ZM275.458 113.999L284.578 102.745L283.024 101.485L273.904 112.739L275.458 113.999ZM293.699 91.4906L302.819 80.2366L301.265 78.9774L292.145 90.2314L293.699 91.4906ZM311.939 68.9826L321.06 57.7286L319.506 56.4694L310.386 67.7234L311.939 68.9826ZM330.18 46.4746L339.301 35.2206L337.747 33.9614L328.627 45.2154L330.18 46.4746ZM348.421 23.9667L352.981 18.3397L351.428 17.0805L346.867 22.7074L348.421 23.9667ZM352.981 18.3397C354.798 16.0982 356.818 14.2691 358.968 12.8225L357.852 11.1631C355.534 12.7228 353.367 14.6876 351.428 17.0805L352.981 18.3397ZM374.392 8.5077C379.843 8.73445 385.179 10.6254 389.557 13.8811L390.75 12.2763C386.05 8.78088 380.327 6.75286 374.475 6.50943L374.392 8.5077ZM398.823 26.9442C399.582 29.422 400 32.1149 400 35H402C402 31.92 401.554 29.0293 400.735 26.3579L398.823 26.9442Z" fill="#000024"/>
<rect x="316.5" y="45" width="170" height="170" rx="85" fill="#FF5E00"/>
<path d="M389.272 141.344L388.251 147.619C388.217 147.83 388.229 148.046 388.286 148.252C388.343 148.458 388.445 148.65 388.583 148.813C388.722 148.976 388.894 149.106 389.088 149.196C389.282 149.286 389.494 149.332 389.708 149.332H390.236L390.699 153.818H389.708C389.316 153.818 388.941 153.974 388.664 154.25C388.387 154.527 388.232 154.902 388.232 155.294V162.74C388.232 163.131 388.387 163.506 388.664 163.783C388.941 164.06 389.316 164.215 389.708 164.215H391.757L391.951 166.067C391.976 167.105 392.235 168.124 392.707 169.049C393.179 169.974 393.853 170.781 394.679 171.41C396.439 172.797 398.622 173.539 400.863 173.511C405.753 173.511 409.739 170.18 409.79 166.069L409.982 164.215H412.033C412.425 164.215 412.8 164.06 413.077 163.783C413.353 163.506 413.509 163.131 413.509 162.74V155.288C413.509 154.897 413.353 154.521 413.077 154.244C412.8 153.968 412.425 153.812 412.033 153.812H411.042L411.505 149.327H412.033C412.247 149.327 412.458 149.28 412.653 149.19C412.847 149.101 413.019 148.97 413.158 148.807C413.296 148.644 413.398 148.453 413.455 148.247C413.512 148.04 413.524 147.824 413.49 147.613L412.469 141.344C417.733 139.057 422.219 135.288 425.377 130.495C428.536 125.703 430.231 120.095 430.257 114.355C430.264 108.741 428.645 103.246 425.595 98.5323L431.526 92.6167C431.733 92.4101 431.874 92.1467 431.931 91.8598C431.988 91.573 431.959 91.2756 431.846 91.0055C431.734 90.7355 431.544 90.5048 431.3 90.343C431.057 90.1811 430.771 90.0952 430.478 90.0964H427.114V86.7173C427.115 86.4245 427.028 86.1382 426.866 85.8947C426.704 85.6511 426.473 85.4613 426.202 85.3495C425.931 85.2377 425.634 85.2088 425.347 85.2666C425.06 85.3244 424.797 85.4662 424.591 85.674L419 91.2695C415.714 88.6895 411.916 86.8402 407.859 85.8451C403.801 84.8501 399.578 84.7322 395.472 85.4993C391.366 86.2665 387.47 87.9009 384.046 90.2936C380.621 92.6863 377.747 95.7821 375.614 99.3742C373.482 102.966 372.14 106.972 371.679 111.124C371.218 115.276 371.649 119.479 372.941 123.451C374.234 127.424 376.36 131.074 379.176 134.16C381.992 137.245 385.434 139.694 389.272 141.344ZM400.863 87.9272C406.665 87.9255 412.306 89.832 416.917 93.353L416.112 94.1587C415.835 94.4353 415.68 94.8106 415.679 95.2019V99.2185L414.102 100.796C410.879 98.0087 406.842 96.3357 402.592 96.0253V93.17C402.592 92.7787 402.437 92.4033 402.16 92.1266C401.884 91.8499 401.508 91.6944 401.117 91.6944C400.726 91.6944 400.35 91.8499 400.073 92.1266C399.797 92.4033 399.641 92.7787 399.641 93.17V96.0253C394.891 96.3847 390.426 98.4348 387.058 101.804C383.689 105.172 381.64 109.637 381.281 114.388H378.427C378.035 114.388 377.66 114.543 377.383 114.82C377.107 115.096 376.951 115.472 376.951 115.863C376.951 116.254 377.107 116.63 377.383 116.906C377.66 117.183 378.035 117.339 378.427 117.339H381.281C381.64 122.091 383.692 126.556 387.063 129.925C390.434 133.294 394.901 135.343 399.653 135.699V138.556C399.653 138.948 399.809 139.323 400.085 139.6C400.362 139.876 400.737 140.032 401.129 140.032C401.52 140.032 401.895 139.876 402.172 139.6C402.449 139.323 402.604 138.948 402.604 138.556V135.699C407.353 135.338 411.816 133.288 415.183 129.919C418.55 126.551 420.598 122.088 420.958 117.339H423.814C424.206 117.339 424.581 117.183 424.858 116.906C425.134 116.63 425.29 116.254 425.29 115.863C425.29 115.472 425.134 115.096 424.858 114.82C424.581 114.543 424.206 114.388 423.814 114.388H420.958C420.648 110.137 418.975 106.101 416.187 102.878L417.552 101.513H421.993C422.385 101.513 422.76 101.357 423.037 101.081L423.469 100.65C425.989 104.774 427.317 109.517 427.306 114.351C427.282 119.699 425.646 124.915 422.612 129.319C419.577 133.723 415.285 137.109 410.297 139.036C409.98 139.157 409.714 139.384 409.545 139.678C409.375 139.972 409.313 140.315 409.367 140.65L410.298 146.375H391.443L392.374 140.65C392.428 140.315 392.366 139.972 392.197 139.678C392.028 139.384 391.763 139.157 391.446 139.036C385.673 136.836 380.854 132.682 377.826 127.297C374.798 121.912 373.753 115.636 374.872 109.56C375.992 103.484 379.205 97.9931 383.953 94.0409C388.702 90.0887 394.685 87.9254 400.863 87.9272ZM388.849 117.339C389.184 120.087 390.43 122.644 392.388 124.601C394.347 126.558 396.904 127.803 399.653 128.136V132.748C395.683 132.398 391.962 130.663 389.142 127.846C386.323 125.028 384.585 121.309 384.232 117.339H388.849ZM384.232 114.388C384.584 110.417 386.322 106.697 389.142 103.88C391.961 101.062 395.682 99.3263 399.653 98.9765V103.589C396.906 103.925 394.351 105.171 392.394 107.128C390.438 109.085 389.192 111.641 388.856 114.388H384.232ZM391.703 115.863C391.7 114.126 392.178 112.422 393.084 110.941C393.99 109.459 395.289 108.257 396.837 107.469C398.385 106.681 400.12 106.336 401.852 106.474C403.583 106.612 405.243 107.227 406.646 108.251L403.932 110.97C403.082 110.47 402.115 110.204 401.129 110.197C400.008 110.197 398.912 110.529 397.98 111.151C397.048 111.773 396.322 112.658 395.893 113.694C395.464 114.729 395.351 115.868 395.57 116.968C395.788 118.067 396.328 119.077 397.12 119.869C397.912 120.662 398.922 121.202 400.021 121.42C401.12 121.639 402.26 121.527 403.295 121.098C404.331 120.669 405.216 119.943 405.838 119.011C406.461 118.079 406.793 116.984 406.793 115.863C406.787 114.877 406.52 113.91 406.02 113.059L408.74 110.341C409.613 111.544 410.188 112.935 410.42 114.403C410.652 115.87 410.533 117.371 410.074 118.784C409.614 120.196 408.827 121.48 407.776 122.53C406.725 123.58 405.44 124.367 404.027 124.825C402.614 125.283 401.113 125.401 399.646 125.168C398.179 124.935 396.787 124.358 395.586 123.484C394.385 122.61 393.407 121.464 392.734 120.14C392.06 118.816 391.709 117.352 391.71 115.866L391.703 115.863ZM402.604 103.589V98.9765C406.071 99.2761 409.361 100.64 412.023 102.882L408.757 106.146C406.981 104.744 404.852 103.859 402.604 103.589ZM403.842 115.863C403.842 116.4 403.683 116.925 403.385 117.372C403.086 117.818 402.662 118.166 402.166 118.372C401.67 118.577 401.124 118.631 400.597 118.526C400.07 118.421 399.586 118.162 399.207 117.782C398.827 117.403 398.569 116.919 398.464 116.392C398.36 115.865 398.413 115.319 398.619 114.823C398.825 114.327 399.173 113.903 399.62 113.605C400.067 113.307 400.592 113.148 401.129 113.148C401.847 113.151 402.535 113.438 403.042 113.947C403.55 114.456 403.835 115.145 403.835 115.863H403.842ZM402.604 128.136C405.352 127.802 407.908 126.557 409.865 124.6C411.822 122.643 413.067 120.086 413.401 117.339H418.014C417.663 121.308 415.927 125.027 413.11 127.844C410.292 130.661 406.573 132.398 402.604 132.748V128.136ZM413.401 114.388C413.132 112.14 412.247 110.01 410.844 108.233L414.109 104.969C416.351 107.631 417.715 110.92 418.014 114.388H413.401Z" fill="white"/>
<path d="M363.926 273.9C365.206 272.793 366.213 271.887 366.946 271.18C367.693 270.46 368.313 269.713 368.806 268.94C369.3 268.167 369.546 267.393 369.546 266.62C369.546 265.82 369.353 265.193 368.966 264.74C368.593 264.287 368 264.06 367.186 264.06C366.4 264.06 365.786 264.313 365.346 264.82C364.92 265.313 364.693 265.98 364.666 266.82H362.466C362.506 265.3 362.96 264.14 363.826 263.34C364.706 262.527 365.82 262.12 367.166 262.12C368.62 262.12 369.753 262.52 370.566 263.32C371.393 264.12 371.806 265.187 371.806 266.52C371.806 267.48 371.56 268.407 371.066 269.3C370.586 270.18 370.006 270.973 369.326 271.68C368.66 272.373 367.806 273.18 366.766 274.1L365.866 274.9H372.206V276.8H362.486V275.14L363.926 273.9ZM375.429 277.14C375.016 277.14 374.669 277 374.389 276.72C374.109 276.44 373.969 276.093 373.969 275.68C373.969 275.267 374.109 274.92 374.389 274.64C374.669 274.36 375.016 274.22 375.429 274.22C375.829 274.22 376.169 274.36 376.449 274.64C376.729 274.92 376.869 275.267 376.869 275.68C376.869 276.093 376.729 276.44 376.449 276.72C376.169 277 375.829 277.14 375.429 277.14ZM390.54 263.1C392.02 263.1 393.313 263.387 394.42 263.96C395.54 264.52 396.4 265.333 397 266.4C397.613 267.453 397.92 268.687 397.92 270.1C397.92 271.513 397.613 272.74 397 273.78C396.4 274.82 395.54 275.62 394.42 276.18C393.313 276.727 392.02 277 390.54 277H386V263.1H390.54ZM390.54 275.14C392.167 275.14 393.413 274.7 394.28 273.82C395.147 272.94 395.58 271.7 395.58 270.1C395.58 268.487 395.147 267.227 394.28 266.32C393.413 265.413 392.167 264.96 390.54 264.96H388.28V275.14H390.54ZM410.28 271.22C410.28 271.633 410.253 272.007 410.2 272.34H401.78C401.846 273.22 402.173 273.927 402.76 274.46C403.346 274.993 404.066 275.26 404.92 275.26C406.146 275.26 407.013 274.747 407.52 273.72H409.98C409.646 274.733 409.04 275.567 408.16 276.22C407.293 276.86 406.213 277.18 404.92 277.18C403.866 277.18 402.92 276.947 402.08 276.48C401.253 276 400.6 275.333 400.12 274.48C399.653 273.613 399.42 272.613 399.42 271.48C399.42 270.347 399.646 269.353 400.1 268.5C400.566 267.633 401.213 266.967 402.04 266.5C402.88 266.033 403.84 265.8 404.92 265.8C405.96 265.8 406.886 266.027 407.7 266.48C408.513 266.933 409.146 267.573 409.6 268.4C410.053 269.213 410.28 270.153 410.28 271.22ZM407.9 270.5C407.886 269.66 407.586 268.987 407 268.48C406.413 267.973 405.686 267.72 404.82 267.72C404.033 267.72 403.36 267.973 402.8 268.48C402.24 268.973 401.906 269.647 401.8 270.5H407.9ZM417.143 267.84H415.103V277H412.803V267.84H411.503V265.98H412.803V265.2C412.803 263.933 413.137 263.013 413.803 262.44C414.483 261.853 415.543 261.56 416.983 261.56V263.46C416.29 263.46 415.803 263.593 415.523 263.86C415.243 264.113 415.103 264.56 415.103 265.2V265.98H417.143V267.84ZM420.324 264.52C419.911 264.52 419.564 264.38 419.284 264.1C419.004 263.82 418.864 263.473 418.864 263.06C418.864 262.647 419.004 262.3 419.284 262.02C419.564 261.74 419.911 261.6 420.324 261.6C420.724 261.6 421.064 261.74 421.344 262.02C421.624 262.3 421.764 262.647 421.764 263.06C421.764 263.473 421.624 263.82 421.344 264.1C421.064 264.38 420.724 264.52 420.324 264.52ZM421.444 265.98V277H419.164V265.98H421.444ZM429.998 265.8C430.864 265.8 431.638 265.98 432.318 266.34C433.011 266.7 433.551 267.233 433.938 267.94C434.324 268.647 434.518 269.5 434.518 270.5V277H432.258V270.84C432.258 269.853 432.011 269.1 431.518 268.58C431.024 268.047 430.351 267.78 429.498 267.78C428.644 267.78 427.964 268.047 427.458 268.58C426.964 269.1 426.718 269.853 426.718 270.84V277H424.438V265.98H426.718V267.24C427.091 266.787 427.564 266.433 428.138 266.18C428.724 265.927 429.344 265.8 429.998 265.8ZM447.526 271.22C447.526 271.633 447.499 272.007 447.446 272.34H439.026C439.092 273.22 439.419 273.927 440.006 274.46C440.592 274.993 441.312 275.26 442.166 275.26C443.392 275.26 444.259 274.747 444.766 273.72H447.226C446.892 274.733 446.286 275.567 445.406 276.22C444.539 276.86 443.459 277.18 442.166 277.18C441.112 277.18 440.166 276.947 439.326 276.48C438.499 276 437.846 275.333 437.366 274.48C436.899 273.613 436.666 272.613 436.666 271.48C436.666 270.347 436.892 269.353 437.346 268.5C437.812 267.633 438.459 266.967 439.286 266.5C440.126 266.033 441.086 265.8 442.166 265.8C443.206 265.8 444.132 266.027 444.946 266.48C445.759 266.933 446.392 267.573 446.846 268.4C447.299 269.213 447.526 270.153 447.526 271.22ZM445.146 270.5C445.132 269.66 444.832 268.987 444.246 268.48C443.659 267.973 442.932 267.72 442.066 267.72C441.279 267.72 440.606 267.973 440.046 268.48C439.486 268.973 439.152 269.647 439.046 270.5H445.146Z" fill="#000024"/>
<rect x="597.5" y="45" width="170" height="170" rx="85" fill="#FFC14B"/>
<path d="M682.544 96.2427C682.932 96.2427 683.304 96.0885 683.579 95.8141C683.853 95.5397 684.007 95.1675 684.007 94.7794V87.4632C684.007 87.0752 683.853 86.703 683.579 86.4286C683.304 86.1542 682.932 86 682.544 86C682.156 86 681.784 86.1542 681.509 86.4286C681.235 86.703 681.081 87.0752 681.081 87.4632V94.7794C681.081 95.1675 681.235 95.5397 681.509 95.8141C681.784 96.0885 682.156 96.2427 682.544 96.2427Z" fill="white"/>
<path d="M660.817 104.387C660.952 104.527 661.113 104.638 661.291 104.715C661.47 104.792 661.662 104.832 661.856 104.834C662.051 104.835 662.243 104.798 662.423 104.725C662.603 104.651 662.766 104.543 662.904 104.405C663.041 104.268 663.15 104.104 663.223 103.925C663.297 103.745 663.334 103.552 663.332 103.358C663.331 103.163 663.29 102.971 663.213 102.793C663.137 102.614 663.025 102.453 662.886 102.318L657.712 97.144C657.577 97.0042 657.415 96.8927 657.237 96.8161C657.058 96.7394 656.866 96.699 656.672 96.6973C656.477 96.6956 656.285 96.7327 656.105 96.8062C655.925 96.8798 655.762 96.9885 655.624 97.1258C655.487 97.2632 655.378 97.4266 655.305 97.6064C655.231 97.7863 655.194 97.9789 655.196 98.1732C655.198 98.3675 655.238 98.5595 655.315 98.738C655.391 98.9166 655.503 99.078 655.643 99.213L660.817 104.387Z" fill="white"/>
<path d="M645.963 125.507H653.279C653.668 125.507 654.04 125.352 654.314 125.078C654.589 124.804 654.743 124.431 654.743 124.043C654.743 123.655 654.589 123.283 654.314 123.009C654.04 122.734 653.668 122.58 653.279 122.58H645.963C645.575 122.58 645.203 122.734 644.929 123.009C644.654 123.283 644.5 123.655 644.5 124.043C644.5 124.431 644.654 124.804 644.929 125.078C645.203 125.352 645.575 125.507 645.963 125.507Z" fill="white"/>
<path d="M657.712 150.943L662.886 145.769C663.152 145.493 663.3 145.123 663.296 144.74C663.293 144.356 663.139 143.989 662.868 143.718C662.596 143.446 662.229 143.292 661.846 143.289C661.462 143.286 661.092 143.433 660.817 143.7L655.643 148.874C655.503 149.009 655.391 149.17 655.315 149.349C655.238 149.527 655.198 149.719 655.196 149.914C655.194 150.108 655.231 150.301 655.305 150.48C655.378 150.66 655.487 150.824 655.624 150.961C655.762 151.098 655.925 151.207 656.105 151.281C656.285 151.354 656.477 151.391 656.672 151.39C656.866 151.388 657.058 151.347 657.237 151.271C657.415 151.194 657.577 151.083 657.712 150.943Z" fill="white"/>
<path d="M709.446 150.946C709.72 150.671 709.874 150.299 709.874 149.911C709.874 149.523 709.72 149.151 709.446 148.877L704.272 143.703C704.137 143.563 703.975 143.451 703.797 143.375C703.618 143.298 703.426 143.258 703.232 143.256C703.038 143.254 702.845 143.291 702.665 143.365C702.485 143.438 702.322 143.547 702.185 143.684C702.047 143.822 701.939 143.985 701.865 144.165C701.791 144.345 701.754 144.538 701.756 144.732C701.758 144.926 701.798 145.118 701.875 145.297C701.952 145.475 702.063 145.637 702.203 145.772L707.377 150.946C707.651 151.22 708.023 151.374 708.411 151.374C708.799 151.374 709.171 151.22 709.446 150.946Z" fill="white"/>
<path d="M711.809 125.507H719.125C719.513 125.507 719.886 125.352 720.16 125.078C720.434 124.804 720.589 124.431 720.589 124.043C720.589 123.655 720.434 123.283 720.16 123.009C719.886 122.734 719.513 122.58 719.125 122.58H711.809C711.421 122.58 711.049 122.734 710.775 123.009C710.5 123.283 710.346 123.655 710.346 124.043C710.346 124.431 710.5 124.804 710.775 125.078C711.049 125.352 711.421 125.507 711.809 125.507Z" fill="white"/>
<path d="M704.272 104.387L709.446 99.213C709.586 99.078 709.697 98.9166 709.774 98.738C709.85 98.5595 709.891 98.3675 709.893 98.1732C709.894 97.9789 709.857 97.7863 709.784 97.6064C709.71 97.4266 709.601 97.2632 709.464 97.1258C709.327 96.9885 709.163 96.8798 708.983 96.8062C708.804 96.7327 708.611 96.6956 708.417 96.6973C708.222 96.699 708.03 96.7394 707.852 96.8161C707.673 96.8927 707.512 97.0042 707.377 97.144L702.203 102.318C702.063 102.453 701.952 102.614 701.875 102.793C701.798 102.971 701.758 103.163 701.756 103.358C701.754 103.552 701.791 103.745 701.865 103.925C701.939 104.104 702.047 104.268 702.185 104.405C702.322 104.543 702.485 104.651 702.665 104.725C702.845 104.798 703.038 104.835 703.232 104.834C703.426 104.832 703.618 104.792 703.797 104.715C703.975 104.638 704.137 104.527 704.272 104.387Z" fill="white"/>
<path d="M672.558 146.871L671.716 151.975C671.682 152.184 671.694 152.399 671.75 152.603C671.807 152.808 671.908 152.997 672.045 153.159C672.182 153.321 672.353 153.451 672.546 153.54C672.739 153.629 672.948 153.675 673.161 153.675H673.405L673.747 156.997H673.162C672.774 156.997 672.402 157.151 672.127 157.425C671.853 157.7 671.699 158.072 671.699 158.46V164.723C671.699 165.111 671.853 165.483 672.127 165.757C672.402 166.032 672.774 166.186 673.162 166.186H674.694L674.83 167.525C674.856 168.427 675.081 169.312 675.49 170.116C675.899 170.921 676.482 171.624 677.196 172.176C678.716 173.381 680.605 174.025 682.544 173.999C686.764 173.999 690.203 171.102 690.256 167.525L690.392 166.186H691.924C692.312 166.186 692.684 166.032 692.958 165.757C693.233 165.483 693.387 165.111 693.387 164.723V158.46C693.387 158.072 693.233 157.7 692.958 157.425C692.684 157.151 692.312 156.997 691.924 156.997H691.338L691.681 153.675H691.925C692.137 153.675 692.347 153.629 692.54 153.54C692.732 153.451 692.903 153.321 693.041 153.159C693.178 152.997 693.279 152.808 693.335 152.603C693.392 152.399 693.404 152.184 693.369 151.975L692.531 146.871C697.77 144.578 702.06 140.551 704.681 135.467C707.301 130.384 708.092 124.553 706.921 118.955C705.749 113.357 702.686 108.333 698.247 104.727C693.808 101.121 688.263 99.1523 682.544 99.1523C676.825 99.1523 671.28 101.121 666.841 104.727C662.402 108.333 659.34 113.357 658.168 118.955C656.996 124.553 657.787 130.384 660.408 135.467C663.028 140.551 667.318 144.578 672.558 146.871ZM678.155 129.897H675.228C674.649 129.897 674.083 129.726 673.602 129.404C673.121 129.083 672.746 128.626 672.524 128.091C672.303 127.556 672.245 126.968 672.358 126.4C672.471 125.832 672.749 125.311 673.159 124.902C673.568 124.492 674.089 124.214 674.657 124.101C675.225 123.988 675.813 124.046 676.348 124.267C676.883 124.489 677.34 124.864 677.661 125.345C677.983 125.826 678.155 126.392 678.155 126.971V129.897ZM684.008 150.749H681.081V132.824H684.008V150.749ZM682.544 102.096C687.682 102.094 692.658 103.892 696.608 107.178C700.557 110.465 703.23 115.032 704.161 120.084C705.092 125.137 704.223 130.357 701.705 134.835C699.186 139.314 695.178 142.768 690.377 144.597C690.061 144.718 689.797 144.944 689.628 145.237C689.46 145.531 689.399 145.873 689.455 146.207L690.2 150.754H686.934V132.824H689.86C691.018 132.824 692.15 132.481 693.112 131.838C694.075 131.194 694.825 130.28 695.268 129.211C695.711 128.141 695.827 126.964 695.601 125.829C695.375 124.694 694.818 123.651 693.999 122.832C693.181 122.014 692.138 121.456 691.002 121.23C689.867 121.005 688.69 121.121 687.621 121.564C686.551 122.007 685.637 122.757 684.994 123.719C684.351 124.682 684.008 125.813 684.008 126.971V129.897H681.081V126.971C681.081 125.813 680.738 124.682 680.095 123.719C679.451 122.757 678.537 122.007 677.468 121.564C676.398 121.121 675.222 121.005 674.086 121.23C672.951 121.456 671.908 122.014 671.089 122.832C670.271 123.651 669.713 124.694 669.488 125.829C669.262 126.964 669.378 128.141 669.821 129.211C670.264 130.28 671.014 131.194 671.976 131.838C672.939 132.481 674.07 132.824 675.228 132.824H678.155V150.749H674.889L675.633 146.201C675.689 145.867 675.628 145.525 675.46 145.231C675.292 144.938 675.028 144.712 674.712 144.591C669.914 142.759 665.91 139.305 663.395 134.828C660.88 130.351 660.012 125.134 660.943 120.084C661.874 115.034 664.544 110.469 668.49 107.183C672.437 103.897 677.409 102.097 682.544 102.096ZM686.934 129.897V126.971C686.934 126.392 687.106 125.826 687.427 125.345C687.749 124.864 688.206 124.489 688.741 124.267C689.275 124.046 689.864 123.988 690.431 124.101C690.999 124.214 691.521 124.492 691.93 124.902C692.339 125.311 692.618 125.832 692.731 126.4C692.844 126.968 692.786 127.556 692.564 128.091C692.343 128.626 691.968 129.083 691.486 129.404C691.005 129.726 690.439 129.897 689.86 129.897H686.934Z" fill="white"/>
<path d="M682.544 107.948C686.82 107.953 690.919 109.654 693.943 112.677C696.966 115.701 698.667 119.8 698.672 124.076C698.672 124.464 698.826 124.836 699.1 125.11C699.375 125.385 699.747 125.539 700.135 125.539C700.523 125.539 700.895 125.385 701.17 125.11C701.444 124.836 701.598 124.464 701.598 124.076C701.593 119.024 699.583 114.181 696.011 110.609C692.439 107.037 687.596 105.027 682.544 105.021C682.156 105.021 681.784 105.176 681.509 105.45C681.235 105.724 681.081 106.097 681.081 106.485C681.081 106.873 681.235 107.245 681.509 107.519C681.784 107.794 682.156 107.948 682.544 107.948Z" fill="white"/>
<path d="M676.691 109.413C677.499 109.413 678.154 108.758 678.154 107.95C678.154 107.141 677.499 106.486 676.691 106.486C675.883 106.486 675.228 107.141 675.228 107.95C675.228 108.758 675.883 109.413 676.691 109.413Z" fill="white"/>
<path d="M643.294 5.02C643.374 3.78 643.848 2.81333 644.714 2.12C645.594 1.42667 646.714 1.08 648.074 1.08C649.008 1.08 649.814 1.24667 650.494 1.58C651.174 1.91333 651.688 2.36667 652.034 2.94C652.381 3.51333 652.554 4.16 652.554 4.88C652.554 5.70667 652.334 6.41333 651.894 7C651.454 7.58667 650.928 7.98 650.314 8.18V8.26C651.101 8.5 651.714 8.94 652.154 9.58C652.594 10.2067 652.814 11.0133 652.814 12C652.814 12.7867 652.634 13.4867 652.274 14.1C651.914 14.7133 651.381 15.2 650.674 15.56C649.968 15.9067 649.121 16.08 648.134 16.08C646.694 16.08 645.508 15.7133 644.574 14.98C643.654 14.2333 643.161 13.1667 643.094 11.78H645.294C645.348 12.4867 645.621 13.0667 646.114 13.52C646.608 13.96 647.274 14.18 648.114 14.18C648.928 14.18 649.554 13.96 649.994 13.52C650.434 13.0667 650.654 12.4867 650.654 11.78C650.654 10.8467 650.354 10.1867 649.754 9.8C649.168 9.4 648.261 9.2 647.034 9.2H646.514V7.32H647.054C648.134 7.30667 648.954 7.12667 649.514 6.78C650.088 6.43333 650.374 5.88667 650.374 5.14C650.374 4.5 650.168 3.99333 649.754 3.62C649.341 3.23333 648.754 3.04 647.994 3.04C647.248 3.04 646.668 3.23333 646.254 3.62C645.841 3.99333 645.594 4.46 645.514 5.02H643.294ZM656.429 16.14C656.016 16.14 655.669 16 655.389 15.72C655.109 15.44 654.969 15.0933 654.969 14.68C654.969 14.2667 655.109 13.92 655.389 13.64C655.669 13.36 656.016 13.22 656.429 13.22C656.829 13.22 657.169 13.36 657.449 13.64C657.729 13.92 657.869 14.2667 657.869 14.68C657.869 15.0933 657.729 15.44 657.449 15.72C657.169 16 656.829 16.14 656.429 16.14ZM669.28 2.1V16H667V2.1H669.28ZM671.513 10.44C671.513 9.33333 671.74 8.35333 672.193 7.5C672.66 6.64667 673.287 5.98667 674.073 5.52C674.873 5.04 675.76 4.8 676.733 4.8C677.453 4.8 678.16 4.96 678.853 5.28C679.56 5.58667 680.12 6 680.533 6.52V1.2H682.833V16H680.533V14.34C680.16 14.8733 679.64 15.3133 678.973 15.66C678.32 16.0067 677.567 16.18 676.713 16.18C675.753 16.18 674.873 15.94 674.073 15.46C673.287 14.9667 672.66 14.2867 672.193 13.42C671.74 12.54 671.513 11.5467 671.513 10.44ZM680.533 10.48C680.533 9.72 680.373 9.06 680.053 8.5C679.747 7.94 679.34 7.51333 678.833 7.22C678.327 6.92667 677.78 6.78 677.193 6.78C676.607 6.78 676.06 6.92667 675.553 7.22C675.047 7.5 674.633 7.92 674.313 8.48C674.007 9.02667 673.853 9.68 673.853 10.44C673.853 11.2 674.007 11.8667 674.313 12.44C674.633 13.0133 675.047 13.4533 675.553 13.76C676.073 14.0533 676.62 14.2 677.193 14.2C677.78 14.2 678.327 14.0533 678.833 13.76C679.34 13.4667 679.747 13.04 680.053 12.48C680.373 11.9067 680.533 11.24 680.533 10.48ZM695.928 10.22C695.928 10.6333 695.901 11.0067 695.848 11.34H687.428C687.495 12.22 687.821 12.9267 688.408 13.46C688.995 13.9933 689.715 14.26 690.568 14.26C691.795 14.26 692.661 13.7467 693.168 12.72H695.628C695.295 13.7333 694.688 14.5667 693.808 15.22C692.941 15.86 691.861 16.18 690.568 16.18C689.515 16.18 688.568 15.9467 687.728 15.48C686.901 15 686.248 14.3333 685.768 13.48C685.301 12.6133 685.068 11.6133 685.068 10.48C685.068 9.34667 685.295 8.35333 685.748 7.5C686.215 6.63333 686.861 5.96667 687.688 5.5C688.528 5.03333 689.488 4.8 690.568 4.8C691.608 4.8 692.535 5.02667 693.348 5.48C694.161 5.93333 694.795 6.57333 695.248 7.4C695.701 8.21333 695.928 9.15333 695.928 10.22ZM693.548 9.5C693.535 8.66 693.235 7.98667 692.648 7.48C692.061 6.97333 691.335 6.72 690.468 6.72C689.681 6.72 689.008 6.97333 688.448 7.48C687.888 7.97333 687.555 8.64667 687.448 9.5H693.548ZM697.412 10.44C697.412 9.33333 697.639 8.35333 698.092 7.5C698.559 6.64667 699.185 5.98667 699.972 5.52C700.772 5.04 701.652 4.8 702.612 4.8C703.479 4.8 704.232 4.97333 704.872 5.32C705.525 5.65333 706.045 6.07333 706.432 6.58V4.98H708.732V16H706.432V14.36C706.045 14.88 705.519 15.3133 704.852 15.66C704.185 16.0067 703.425 16.18 702.572 16.18C701.625 16.18 700.759 15.94 699.972 15.46C699.185 14.9667 698.559 14.2867 698.092 13.42C697.639 12.54 697.412 11.5467 697.412 10.44ZM706.432 10.48C706.432 9.72 706.272 9.06 705.952 8.5C705.645 7.94 705.239 7.51333 704.732 7.22C704.225 6.92667 703.679 6.78 703.092 6.78C702.505 6.78 701.959 6.92667 701.452 7.22C700.945 7.5 700.532 7.92 700.212 8.48C699.905 9.02667 699.752 9.68 699.752 10.44C699.752 11.2 699.905 11.8667 700.212 12.44C700.532 13.0133 700.945 13.4533 701.452 13.76C701.972 14.0533 702.519 14.2 703.092 14.2C703.679 14.2 704.225 14.0533 704.732 13.76C705.239 13.4667 705.645 13.04 705.952 12.48C706.272 11.9067 706.432 11.24 706.432 10.48ZM714.387 6.84V12.94C714.387 13.3533 714.48 13.6533 714.667 13.84C714.867 14.0133 715.2 14.1 715.667 14.1H717.067V16H715.267C714.24 16 713.453 15.76 712.907 15.28C712.36 14.8 712.087 14.02 712.087 12.94V6.84H710.787V4.98H712.087V2.24H714.387V4.98H717.067V6.84H714.387ZM729.268 10.22C729.268 10.6333 729.241 11.0067 729.188 11.34H720.768C720.835 12.22 721.161 12.9267 721.748 13.46C722.335 13.9933 723.055 14.26 723.908 14.26C725.135 14.26 726.001 13.7467 726.508 12.72H728.968C728.635 13.7333 728.028 14.5667 727.148 15.22C726.281 15.86 725.201 16.18 723.908 16.18C722.855 16.18 721.908 15.9467 721.068 15.48C720.241 15 719.588 14.3333 719.108 13.48C718.641 12.6133 718.408 11.6133 718.408 10.48C718.408 9.34667 718.635 8.35333 719.088 7.5C719.555 6.63333 720.201 5.96667 721.028 5.5C721.868 5.03333 722.828 4.8 723.908 4.8C724.948 4.8 725.875 5.02667 726.688 5.48C727.501 5.93333 728.135 6.57333 728.588 7.4C729.041 8.21333 729.268 9.15333 729.268 10.22ZM726.888 9.5C726.875 8.66 726.575 7.98667 725.988 7.48C725.401 6.97333 724.675 6.72 723.808 6.72C723.021 6.72 722.348 6.97333 721.788 7.48C721.228 7.97333 720.895 8.64667 720.788 9.5H726.888Z" fill="#000024"/>
<path opacity="0.25" d="M682.5 225.5V225.5C682.5 251.438 715.062 263.021 731.443 242.91L914.873 17.7025C931.148 -2.27926 963.5 9.22892 963.5 35V35" stroke="#000024" stroke-width="2" stroke-dasharray="15 15"/>
<path opacity="0.25" d="M683 224.5V224.5C683 250.886 649.853 262.64 633.23 242.149L450.64 17.0743C434.227 -3.15742 401.5 8.44812 401.5 34.5V34.5" stroke="#000024" stroke-width="2" stroke-dasharray="15 15"/>
<rect x="878.5" y="45" width="170" height="170" rx="85" fill="#31CABC"/>
<path d="M948.477 173.196H979.526C985.674 173.196 990.675 168.195 990.675 162.047V95.9762C990.675 89.8278 985.674 84.827 979.526 84.827H948.477C942.329 84.827 937.328 89.8278 937.328 95.9762V162.047C937.328 168.195 942.329 173.196 948.477 173.196ZM939.533 95.9762C939.533 91.0443 943.545 87.0325 948.477 87.0325H979.526C984.458 87.0325 988.469 91.0443 988.469 95.9762V162.047C988.469 166.979 984.458 170.991 979.526 170.991H948.477C943.545 170.991 939.533 166.979 939.533 162.047V95.9762Z" fill="white" stroke="white" stroke-width="0.35"/>
<path d="M938.428 97.0755H989.572C990.183 97.0755 990.675 96.5806 990.675 95.9727C990.675 95.3644 990.18 94.8699 989.572 94.8699H938.428C937.82 94.8699 937.325 95.3644 937.325 95.9727C937.325 96.5809 937.82 97.0755 938.428 97.0755Z" fill="white" stroke="white" stroke-width="0.35"/>
<path d="M938.428 161.476H989.572C990.183 161.476 990.675 160.981 990.675 160.373C990.675 159.765 990.18 159.27 989.572 159.27H938.428C937.82 159.27 937.325 159.765 937.325 160.373C937.325 160.981 937.82 161.476 938.428 161.476Z" fill="white" stroke="white" stroke-width="0.35"/>
<path d="M956.771 91.5579H971.226C971.837 91.5579 972.329 91.063 972.329 90.4551C972.329 89.8469 971.834 89.3523 971.226 89.3523H956.771C956.163 89.3523 955.669 89.8469 955.669 90.4551C955.669 91.0634 956.163 91.5579 956.771 91.5579Z" fill="white" stroke="white" stroke-width="0.35"/>
<path d="M957.733 146.601H970.264L973.354 143.335H973.529C973.529 143.335 973.529 143.335 973.529 143.335C973.529 141.534 972.065 140.069 970.264 140.069H957.733C955.932 140.069 954.468 141.534 954.468 143.335C954.468 145.136 955.932 146.601 957.733 146.601ZM956.673 143.335C956.673 142.75 957.149 142.275 957.733 142.275H970.264C970.848 142.275 971.324 142.75 971.324 143.335C971.324 143.92 970.848 144.395 970.264 144.395H957.733C957.149 144.395 956.673 143.92 956.673 143.335Z" fill="white" stroke="white" stroke-width="0.35"/>
<path d="M958.818 150.932H969.18C970.888 150.932 972.279 149.544 972.279 147.833V147.496C972.279 145.788 970.888 144.397 969.18 144.397H958.818C957.11 144.397 955.719 145.788 955.719 147.496V147.833C955.719 149.541 957.11 150.932 958.818 150.932ZM957.925 147.496C957.925 147.004 958.326 146.603 958.818 146.603H969.18C969.672 146.603 970.073 147.004 970.073 147.496V147.833C970.073 148.325 969.672 148.726 969.18 148.726H958.818C958.326 148.726 957.925 148.325 957.925 147.833V147.496Z" fill="white" stroke="white" stroke-width="0.35"/>
<path d="M958.598 149.826C958.598 152.807 961.022 155.229 964 155.229C966.978 155.229 969.403 152.807 969.403 149.826C969.403 149.218 968.908 148.723 968.3 148.723H959.701C959.092 148.723 958.598 149.218 958.598 149.826ZM964 153.023C962.625 153.023 961.449 152.151 960.999 150.929H967.001C966.552 152.151 965.375 153.023 964 153.023Z" fill="white" stroke="white" stroke-width="0.35"/>
<path d="M974.107 130.675C974.118 130.651 974.129 130.63 974.139 130.609C975.019 128.923 975.486 127.012 975.486 125.085C975.486 118.609 970.333 113.339 964 113.339C957.667 113.339 952.517 118.609 952.517 125.085C952.517 127.012 952.983 128.921 953.863 130.609M974.107 130.675L973.949 130.602L973.948 130.603C973.96 130.576 973.972 130.551 973.983 130.531L973.984 130.528C974.851 128.867 975.311 126.984 975.311 125.085C975.311 118.702 970.232 113.514 964 113.514C957.768 113.514 952.692 118.702 952.692 125.085C952.692 126.983 953.151 128.863 954.018 130.526M974.107 130.675L969.673 140.242M974.107 130.675L973.948 130.604L969.561 140.067M954.018 130.526C954.017 130.526 954.017 130.525 954.016 130.524L953.863 130.609M954.018 130.526C954.018 130.527 954.018 130.528 954.019 130.528L953.863 130.609M954.018 130.526C954.036 130.559 954.049 130.593 954.059 130.617M953.863 130.609C953.877 130.633 953.887 130.659 953.898 130.686M953.898 130.686L954.057 130.612L954.059 130.617M953.898 130.686L958.327 140.242M953.898 130.686L954.06 130.621L954.059 130.618C954.059 130.617 954.059 130.617 954.059 130.617M954.059 130.617L958.439 140.067M958.327 140.242V140.067H958.439M958.327 140.242L958.486 140.168L958.439 140.067M958.327 140.242H969.673M958.439 140.067H969.561M969.673 140.242L969.514 140.168L969.561 140.067M969.673 140.242V140.067H969.561M956.732 141.633L956.732 141.634C956.915 142.023 957.305 142.273 957.734 142.273H970.264C970.692 142.273 971.083 142.024 971.261 141.632C971.261 141.632 971.261 141.632 971.261 141.631L975.953 131.513C976.972 129.546 977.511 127.325 977.511 125.087C977.511 117.495 971.45 111.311 963.995 111.311C956.539 111.311 950.481 117.495 950.481 125.087C950.481 127.326 951.02 129.549 952.041 131.514L952.052 131.536L956.732 141.633Z" fill="white" stroke="white" stroke-width="0.35"/>
<path d="M960.197 134.666L960.198 134.667C960.349 134.789 960.435 134.972 960.435 135.167V141.171C960.435 141.779 960.929 142.274 961.537 142.274C962.145 142.274 962.64 141.782 962.64 141.171V135.167C962.64 134.308 962.259 133.503 961.596 132.959L961.595 132.958L960.373 131.959L960.372 131.958C960.221 131.836 960.135 131.653 960.135 131.458V126.793C960.135 126.185 959.641 125.69 959.033 125.69C958.424 125.69 957.93 126.185 957.93 126.793V131.458C957.93 132.319 958.311 133.122 958.974 133.667L958.975 133.667L960.197 134.666Z" fill="white" stroke="white" stroke-width="0.35"/>
<path d="M966.53 132.958L966.529 132.959C965.866 133.503 965.485 134.308 965.485 135.167V141.171C965.485 141.779 965.979 142.274 966.587 142.274C967.195 142.274 967.69 141.782 967.69 141.171V135.167C967.69 134.973 967.778 134.789 967.928 134.666L969.15 133.667L969.15 133.667C969.814 133.122 970.195 132.317 970.195 131.458V126.793C970.195 126.185 969.701 125.69 969.092 125.69C968.484 125.69 967.99 126.185 967.99 126.793V131.458C967.99 131.654 967.902 131.836 967.752 131.959L966.53 132.958Z" fill="white" stroke="white" stroke-width="0.35"/>
<path d="M957.665 129.558H970.611C971.222 129.558 971.714 129.063 971.714 128.455C971.714 127.847 971.219 127.352 970.611 127.352H957.665C957.056 127.352 956.562 127.847 956.562 128.455C956.562 129.063 957.056 129.558 957.665 129.558Z" fill="white" stroke="white" stroke-width="0.35"/>
<path d="M963.035 106.679C963.035 107.287 963.53 107.782 964.138 107.782C964.749 107.782 965.241 107.287 965.241 106.679V101.939C965.241 101.331 964.746 100.837 964.138 100.837C963.53 100.837 963.035 101.331 963.035 101.939V106.679Z" fill="white" stroke="white" stroke-width="0.35"/>
<path d="M981.188 123.142H985.927C986.536 123.142 987.03 122.647 987.03 122.039C987.03 121.431 986.536 120.936 985.927 120.936H981.188C980.58 120.936 980.085 121.431 980.085 122.039C980.085 122.647 980.58 123.142 981.188 123.142Z" fill="white" stroke="white" stroke-width="0.35"/>
<path d="M942.889 123.142H947.631C948.24 123.142 948.732 122.647 948.732 122.039C948.732 121.431 948.237 120.936 947.629 120.936H942.889C942.281 120.936 941.786 121.431 941.786 122.039C941.786 122.647 942.281 123.142 942.889 123.142Z" fill="white" stroke="white" stroke-width="0.35"/>
<path d="M951.831 112.479L951.831 112.479C952.048 112.696 952.329 112.804 952.612 112.804C952.892 112.804 953.176 112.697 953.391 112.479C953.822 112.047 953.822 111.351 953.391 110.92C953.391 110.92 953.391 110.92 953.391 110.92L950.04 107.567L950.04 107.567C949.609 107.135 948.912 107.135 948.48 107.567C948.049 107.998 948.049 108.695 948.48 109.126C948.48 109.126 948.48 109.126 948.48 109.126L951.831 112.479Z" fill="white" stroke="white" stroke-width="0.35"/>
<path d="M974.8 112.599L974.801 112.599C975.018 112.813 975.298 112.92 975.581 112.92C975.861 112.92 976.145 112.813 976.36 112.599L979.713 109.245C980.145 108.814 980.145 108.117 979.713 107.686C979.282 107.254 978.585 107.254 978.153 107.686L974.8 111.039C974.369 111.47 974.369 112.167 974.8 112.599Z" fill="white" stroke="white" stroke-width="0.35"/>
<path d="M905.98 273.96V272.24L912.7 262.6H915.46V271.98H917.32V273.96H915.46V277H913.22V273.96H905.98ZM913.32 264.92L908.6 271.98H913.32V264.92ZM920.429 277.14C920.016 277.14 919.669 277 919.389 276.72C919.109 276.44 918.969 276.093 918.969 275.68C918.969 275.267 919.109 274.92 919.389 274.64C919.669 274.36 920.016 274.22 920.429 274.22C920.829 274.22 921.169 274.36 921.449 274.64C921.729 274.92 921.869 275.267 921.869 275.68C921.869 276.093 921.729 276.44 921.449 276.72C921.169 277 920.829 277.14 920.429 277.14ZM940.72 267.24C940.72 267.947 940.553 268.613 940.22 269.24C939.887 269.867 939.353 270.38 938.62 270.78C937.887 271.167 936.947 271.36 935.8 271.36H933.28V277H931V263.1H935.8C936.867 263.1 937.767 263.287 938.5 263.66C939.247 264.02 939.8 264.513 940.16 265.14C940.533 265.767 940.72 266.467 940.72 267.24ZM935.8 269.5C936.667 269.5 937.313 269.307 937.74 268.92C938.167 268.52 938.38 267.96 938.38 267.24C938.38 265.72 937.52 264.96 935.8 264.96H933.28V269.5H935.8ZM945.175 267.58C945.508 267.02 945.948 266.587 946.495 266.28C947.055 265.96 947.715 265.8 948.475 265.8V268.16H947.895C947.001 268.16 946.321 268.387 945.855 268.84C945.401 269.293 945.175 270.08 945.175 271.2V277H942.895V265.98H945.175V267.58ZM955.35 277.18C954.31 277.18 953.37 276.947 952.53 276.48C951.69 276 951.03 275.333 950.55 274.48C950.07 273.613 949.83 272.613 949.83 271.48C949.83 270.36 950.077 269.367 950.57 268.5C951.064 267.633 951.737 266.967 952.59 266.5C953.444 266.033 954.397 265.8 955.45 265.8C956.504 265.8 957.457 266.033 958.31 266.5C959.164 266.967 959.837 267.633 960.33 268.5C960.824 269.367 961.07 270.36 961.07 271.48C961.07 272.6 960.817 273.593 960.31 274.46C959.804 275.327 959.11 276 958.23 276.48C957.364 276.947 956.404 277.18 955.35 277.18ZM955.35 275.2C955.937 275.2 956.484 275.06 956.99 274.78C957.51 274.5 957.93 274.08 958.25 273.52C958.57 272.96 958.73 272.28 958.73 271.48C958.73 270.68 958.577 270.007 958.27 269.46C957.964 268.9 957.557 268.48 957.05 268.2C956.544 267.92 955.997 267.78 955.41 267.78C954.824 267.78 954.277 267.92 953.77 268.2C953.277 268.48 952.884 268.9 952.59 269.46C952.297 270.007 952.15 270.68 952.15 271.48C952.15 272.667 952.45 273.587 953.05 274.24C953.664 274.88 954.43 275.2 955.35 275.2ZM965.984 267.84V273.94C965.984 274.353 966.078 274.653 966.264 274.84C966.464 275.013 966.798 275.1 967.264 275.1H968.664V277H966.864C965.838 277 965.051 276.76 964.504 276.28C963.958 275.8 963.684 275.02 963.684 273.94V267.84H962.384V265.98H963.684V263.24H965.984V265.98H968.664V267.84H965.984ZM975.546 277.18C974.506 277.18 973.566 276.947 972.726 276.48C971.886 276 971.226 275.333 970.746 274.48C970.266 273.613 970.026 272.613 970.026 271.48C970.026 270.36 970.272 269.367 970.766 268.5C971.259 267.633 971.932 266.967 972.786 266.5C973.639 266.033 974.592 265.8 975.646 265.8C976.699 265.8 977.652 266.033 978.506 266.5C979.359 266.967 980.032 267.633 980.526 268.5C981.019 269.367 981.266 270.36 981.266 271.48C981.266 272.6 981.012 273.593 980.506 274.46C979.999 275.327 979.306 276 978.426 276.48C977.559 276.947 976.599 277.18 975.546 277.18ZM975.546 275.2C976.132 275.2 976.679 275.06 977.186 274.78C977.706 274.5 978.126 274.08 978.446 273.52C978.766 272.96 978.926 272.28 978.926 271.48C978.926 270.68 978.772 270.007 978.466 269.46C978.159 268.9 977.752 268.48 977.246 268.2C976.739 267.92 976.192 267.78 975.606 267.78C975.019 267.78 974.472 267.92 973.966 268.2C973.472 268.48 973.079 268.9 972.786 269.46C972.492 270.007 972.346 270.68 972.346 271.48C972.346 272.667 972.646 273.587 973.246 274.24C973.859 274.88 974.626 275.2 975.546 275.2ZM986.18 267.84V273.94C986.18 274.353 986.273 274.653 986.46 274.84C986.66 275.013 986.993 275.1 987.46 275.1H988.86V277H987.06C986.033 277 985.246 276.76 984.7 276.28C984.153 275.8 983.88 275.02 983.88 273.94V267.84H982.58V265.98H983.88V263.24H986.18V265.98H988.86V267.84H986.18ZM1000.88 265.98L994.121 282.18H991.761L994.001 276.82L989.661 265.98H992.201L995.301 274.38L998.521 265.98H1000.88ZM1004.88 267.6C1005.27 267.093 1005.79 266.667 1006.46 266.32C1007.13 265.973 1007.88 265.8 1008.72 265.8C1009.68 265.8 1010.55 266.04 1011.34 266.52C1012.14 266.987 1012.77 267.647 1013.22 268.5C1013.67 269.353 1013.9 270.333 1013.9 271.44C1013.9 272.547 1013.67 273.54 1013.22 274.42C1012.77 275.287 1012.14 275.967 1011.34 276.46C1010.55 276.94 1009.68 277.18 1008.72 277.18C1007.88 277.18 1007.13 277.013 1006.48 276.68C1005.83 276.333 1005.29 275.907 1004.88 275.4V282.24H1002.6V265.98H1004.88V267.6ZM1011.58 271.44C1011.58 270.68 1011.42 270.027 1011.1 269.48C1010.79 268.92 1010.38 268.5 1009.86 268.22C1009.35 267.927 1008.81 267.78 1008.22 267.78C1007.65 267.78 1007.1 267.927 1006.58 268.22C1006.07 268.513 1005.66 268.94 1005.34 269.5C1005.03 270.06 1004.88 270.72 1004.88 271.48C1004.88 272.24 1005.03 272.907 1005.34 273.48C1005.66 274.04 1006.07 274.467 1006.58 274.76C1007.1 275.053 1007.65 275.2 1008.22 275.2C1008.81 275.2 1009.35 275.053 1009.86 274.76C1010.38 274.453 1010.79 274.013 1011.1 273.44C1011.42 272.867 1011.58 272.2 1011.58 271.44ZM1026.26 271.22C1026.26 271.633 1026.23 272.007 1026.18 272.34H1017.76C1017.82 273.22 1018.15 273.927 1018.74 274.46C1019.32 274.993 1020.04 275.26 1020.9 275.26C1022.12 275.26 1022.99 274.747 1023.5 273.72H1025.96C1025.62 274.733 1025.02 275.567 1024.14 276.22C1023.27 276.86 1022.19 277.18 1020.9 277.18C1019.84 277.18 1018.9 276.947 1018.06 276.48C1017.23 276 1016.58 275.333 1016.1 274.48C1015.63 273.613 1015.4 272.613 1015.4 271.48C1015.4 270.347 1015.62 269.353 1016.08 268.5C1016.54 267.633 1017.19 266.967 1018.02 266.5C1018.86 266.033 1019.82 265.8 1020.9 265.8C1021.94 265.8 1022.86 266.027 1023.68 266.48C1024.49 266.933 1025.12 267.573 1025.58 268.4C1026.03 269.213 1026.26 270.153 1026.26 271.22ZM1023.88 270.5C1023.86 269.66 1023.56 268.987 1022.98 268.48C1022.39 267.973 1021.66 267.72 1020.8 267.72C1020.01 267.72 1019.34 267.973 1018.78 268.48C1018.22 268.973 1017.88 269.647 1017.78 270.5H1023.88Z" fill="#000024"/>
<rect x="1159.5" y="45" width="170" height="170" rx="85" fill="#4E82BE"/>
<path d="M1267.4 92.3609H1256.28C1255.7 91.1209 1254.45 90.2581 1252.99 90.2581H1250.59C1250.16 87.2877 1247.59 85 1244.5 85C1241.41 85 1238.85 87.2877 1238.41 90.2581H1236.01C1234.55 90.2581 1233.3 91.1218 1232.72 92.3619H1221.6C1216.58 92.3619 1212.5 96.445 1212.5 101.464V163.994C1212.5 169.013 1216.58 173.096 1221.6 173.096H1267.4C1272.42 173.096 1276.5 169.013 1276.5 163.994V101.464C1276.5 96.4441 1272.42 92.3609 1267.4 92.3609ZM1234.17 93.8892C1234.17 92.878 1235 92.0555 1236.01 92.0555H1239.24C1239.74 92.0555 1240.14 91.6533 1240.14 91.1563C1240.14 88.7528 1242.1 86.7974 1244.5 86.7974C1246.9 86.7974 1248.86 88.7528 1248.86 91.1563C1248.86 91.6523 1249.26 92.0555 1249.76 92.0555H1252.99C1254 92.0555 1254.83 92.878 1254.83 93.8892V97.0033C1254.83 98.0145 1254 98.8371 1252.99 98.8371H1236.01C1235 98.8371 1234.17 98.0145 1234.17 97.0033V93.8892ZM1236.01 100.635H1252.99C1254.45 100.635 1255.71 99.7717 1256.28 98.5316H1267.4C1269.02 98.5316 1270.33 99.8464 1270.33 101.464V163.994C1270.33 165.61 1269.02 166.926 1267.4 166.926H1221.6C1219.99 166.926 1218.67 165.611 1218.67 163.994V101.464C1218.67 99.8473 1219.98 98.5316 1221.6 98.5316H1232.72C1233.3 99.7717 1234.55 100.635 1236.01 100.635ZM1274.7 163.993C1274.7 168.02 1271.43 171.297 1267.4 171.297H1221.6C1217.57 171.297 1214.3 168.02 1214.3 163.993V101.463C1214.3 97.4352 1217.57 94.1583 1221.6 94.1583H1232.38V96.7333H1221.6C1218.99 96.7333 1216.87 98.8553 1216.87 101.463V163.993C1216.87 166.6 1218.99 168.722 1221.6 168.722H1267.4C1270.01 168.722 1272.13 166.6 1272.13 163.993V101.463C1272.13 98.8553 1270.01 96.7333 1267.4 96.7333H1256.62V94.1583H1267.4C1271.43 94.1583 1274.7 97.4352 1274.7 101.463L1274.7 163.993ZM1243.04 90.7292C1243.04 89.9268 1243.7 89.2718 1244.5 89.2718C1245.3 89.2718 1245.96 89.9268 1245.96 90.7292C1245.96 91.5317 1245.3 92.1867 1244.5 92.1867C1243.7 92.1867 1243.04 91.5326 1243.04 90.7292ZM1240.04 113.339C1240.04 112.843 1240.44 112.44 1240.94 112.44H1265.45C1265.94 112.44 1266.34 112.842 1266.34 113.339C1266.34 113.836 1265.94 114.238 1265.45 114.238H1240.94C1240.44 114.237 1240.04 113.835 1240.04 113.339ZM1240.04 118.424C1240.04 117.928 1240.44 117.525 1240.94 117.525H1253.19C1253.69 117.525 1254.09 117.927 1254.09 118.424C1254.09 118.92 1253.69 119.324 1253.19 119.324H1240.94C1240.44 119.324 1240.04 118.921 1240.04 118.424ZM1222.66 118.4V113.363C1222.66 111.862 1223.88 110.642 1225.38 110.642H1230.42C1230.78 110.642 1231.12 110.712 1231.46 110.849C1231.91 111.04 1232.13 111.565 1231.94 112.024C1231.75 112.483 1231.22 112.7 1230.77 112.509C1230.65 112.463 1230.54 112.44 1230.42 112.44H1225.38C1224.87 112.44 1224.45 112.854 1224.45 113.364V118.402C1224.45 118.911 1224.87 119.325 1225.38 119.325H1230.42C1230.92 119.325 1231.34 118.912 1231.34 118.402V117.998C1231.34 117.502 1231.74 117.099 1232.24 117.099C1232.74 117.099 1233.14 117.501 1233.14 117.998V118.402C1233.14 119.903 1231.92 121.123 1230.42 121.123H1225.38C1223.88 121.121 1222.66 119.901 1222.66 118.4ZM1233.14 135.895V136.3C1233.14 137.8 1231.92 139.02 1230.42 139.02H1225.38C1223.88 139.02 1222.66 137.799 1222.66 136.3V131.261C1222.66 129.76 1223.88 128.54 1225.38 128.54H1230.42C1230.78 128.54 1231.12 128.61 1231.46 128.747C1231.91 128.938 1232.13 129.463 1231.94 129.922C1231.75 130.381 1231.22 130.598 1230.77 130.408C1230.65 130.362 1230.54 130.339 1230.42 130.339H1225.38C1224.87 130.339 1224.45 130.752 1224.45 131.262V136.301C1224.45 136.81 1224.87 137.224 1225.38 137.224H1230.42C1230.92 137.224 1231.34 136.81 1231.34 136.301V135.896C1231.34 135.399 1231.74 134.997 1232.24 134.997C1232.74 134.997 1233.14 135.399 1233.14 135.895ZM1240.04 131.237C1240.04 130.741 1240.44 130.338 1240.94 130.338H1265.45C1265.94 130.338 1266.34 130.74 1266.34 131.237C1266.34 131.734 1265.94 132.136 1265.45 132.136H1240.94C1240.44 132.136 1240.04 131.734 1240.04 131.237ZM1240.04 136.324C1240.04 135.827 1240.44 135.424 1240.94 135.424H1253.19C1253.69 135.424 1254.09 135.827 1254.09 136.324C1254.09 136.821 1253.69 137.223 1253.19 137.223H1240.94C1240.44 137.222 1240.04 136.82 1240.04 136.324ZM1235.47 129.935C1235.76 130.334 1235.68 130.897 1235.28 131.192L1228.87 135.928C1228.71 136.043 1228.52 136.104 1228.33 136.104C1228.28 136.104 1228.23 136.1 1228.18 136.092C1227.94 136.052 1227.73 135.917 1227.59 135.716L1225.43 132.599C1225.15 132.192 1225.25 131.631 1225.66 131.349C1226.07 131.066 1226.63 131.168 1226.91 131.576L1228.54 133.931L1234.21 129.746C1234.61 129.451 1235.17 129.535 1235.47 129.935ZM1228.54 116.032L1234.21 111.847C1234.61 111.552 1235.17 111.636 1235.47 112.036C1235.76 112.436 1235.68 112.999 1235.28 113.294L1228.87 118.029C1228.71 118.144 1228.52 118.205 1228.33 118.205C1228.28 118.205 1228.23 118.201 1228.18 118.193C1227.94 118.152 1227.73 118.017 1227.59 117.817L1225.43 114.7C1225.15 114.292 1225.25 113.732 1225.66 113.45C1226.07 113.167 1226.63 113.269 1226.91 113.677L1228.54 116.032ZM1230.42 146.439H1225.38C1223.88 146.439 1222.66 147.659 1222.66 149.16V154.199C1222.66 155.699 1223.88 156.919 1225.38 156.919H1230.42C1231.92 156.919 1233.14 155.699 1233.14 154.199V149.16C1233.14 147.659 1231.92 146.439 1230.42 146.439ZM1231.34 154.198C1231.34 154.706 1230.92 155.121 1230.42 155.121H1225.38C1224.87 155.121 1224.45 154.707 1224.45 154.198V149.159C1224.45 148.65 1224.87 148.236 1225.38 148.236H1230.42C1230.92 148.236 1231.34 148.65 1231.34 149.159L1231.34 154.198ZM1240.04 149.136C1240.04 148.639 1240.44 148.237 1240.94 148.237H1265.45C1265.94 148.237 1266.34 148.639 1266.34 149.136C1266.34 149.633 1265.94 150.035 1265.45 150.035H1240.94C1240.44 150.035 1240.04 149.632 1240.04 149.136ZM1240.04 154.222C1240.04 153.725 1240.44 153.323 1240.94 153.323H1253.19C1253.69 153.323 1254.09 153.725 1254.09 154.222C1254.09 154.719 1253.69 155.121 1253.19 155.121H1240.94C1240.44 155.121 1240.04 154.719 1240.04 154.222ZM1230.19 150.661L1229.17 151.679L1230.19 152.697C1230.54 153.049 1230.54 153.617 1230.19 153.968C1230.01 154.143 1229.78 154.231 1229.55 154.231C1229.32 154.231 1229.09 154.143 1228.91 153.968L1227.9 152.95L1226.88 153.968C1226.53 154.319 1225.96 154.319 1225.61 153.968C1225.25 153.617 1225.25 153.048 1225.61 152.697L1226.62 151.679L1225.61 150.661C1225.25 150.31 1225.25 149.741 1225.61 149.391C1225.96 149.039 1226.53 149.039 1226.88 149.391L1227.9 150.409L1228.91 149.391C1229.27 149.039 1229.83 149.039 1230.19 149.391C1230.54 149.741 1230.54 150.31 1230.19 150.661Z" fill="white"/>
<path d="M1224.84 3.38H1218.14V7.36C1218.42 6.98667 1218.83 6.67333 1219.38 6.42C1219.94 6.16667 1220.53 6.04 1221.16 6.04C1222.28 6.04 1223.18 6.28 1223.88 6.76C1224.58 7.24 1225.08 7.84667 1225.38 8.58C1225.68 9.31333 1225.84 10.0867 1225.84 10.9C1225.84 11.8867 1225.64 12.7667 1225.26 13.54C1224.88 14.3 1224.32 14.9 1223.56 15.34C1222.81 15.78 1221.89 16 1220.8 16C1219.34 16 1218.18 15.64 1217.3 14.92C1216.42 14.2 1215.89 13.2467 1215.72 12.06H1217.94C1218.08 12.6867 1218.41 13.1867 1218.92 13.56C1219.42 13.92 1220.06 14.1 1220.82 14.1C1221.76 14.1 1222.47 13.8133 1222.94 13.24C1223.42 12.6667 1223.66 11.9067 1223.66 10.96C1223.66 10 1223.42 9.26667 1222.94 8.76C1222.46 8.24 1221.75 7.98 1220.82 7.98C1220.16 7.98 1219.61 8.14667 1219.16 8.48C1218.72 8.8 1218.4 9.24 1218.2 9.8H1216.04V1.38H1224.84V3.38ZM1229.43 16.14C1229.02 16.14 1228.67 16 1228.39 15.72C1228.11 15.44 1227.97 15.0933 1227.97 14.68C1227.97 14.2667 1228.11 13.92 1228.39 13.64C1228.67 13.36 1229.02 13.22 1229.43 13.22C1229.83 13.22 1230.17 13.36 1230.45 13.64C1230.73 13.92 1230.87 14.2667 1230.87 14.68C1230.87 15.0933 1230.73 15.44 1230.45 15.72C1230.17 16 1229.83 16.14 1229.43 16.14ZM1248.98 2.1V3.96H1245.28V16H1243V3.96H1239.28V2.1H1248.98ZM1261.39 10.22C1261.39 10.6333 1261.36 11.0067 1261.31 11.34H1252.89C1252.96 12.22 1253.28 12.9267 1253.87 13.46C1254.46 13.9933 1255.18 14.26 1256.03 14.26C1257.26 14.26 1258.12 13.7467 1258.63 12.72H1261.09C1260.76 13.7333 1260.15 14.5667 1259.27 15.22C1258.4 15.86 1257.32 16.18 1256.03 16.18C1254.98 16.18 1254.03 15.9467 1253.19 15.48C1252.36 15 1251.71 14.3333 1251.23 13.48C1250.76 12.6133 1250.53 11.6133 1250.53 10.48C1250.53 9.34667 1250.76 8.35333 1251.21 7.5C1251.68 6.63333 1252.32 5.96667 1253.15 5.5C1253.99 5.03333 1254.95 4.8 1256.03 4.8C1257.07 4.8 1258 5.02667 1258.81 5.48C1259.62 5.93333 1260.26 6.57333 1260.71 7.4C1261.16 8.21333 1261.39 9.15333 1261.39 10.22ZM1259.01 9.5C1259 8.66 1258.7 7.98667 1258.11 7.48C1257.52 6.97333 1256.8 6.72 1255.93 6.72C1255.14 6.72 1254.47 6.97333 1253.91 7.48C1253.35 7.97333 1253.02 8.64667 1252.91 9.5H1259.01ZM1267.63 16.18C1266.77 16.18 1265.99 16.0267 1265.29 15.72C1264.61 15.4 1264.07 14.9733 1263.67 14.44C1263.27 13.8933 1263.06 13.2867 1263.03 12.62H1265.39C1265.43 13.0867 1265.65 13.48 1266.05 13.8C1266.47 14.1067 1266.98 14.26 1267.59 14.26C1268.23 14.26 1268.73 14.14 1269.07 13.9C1269.43 13.6467 1269.61 13.3267 1269.61 12.94C1269.61 12.5267 1269.41 12.22 1269.01 12.02C1268.63 11.82 1268.01 11.6 1267.15 11.36C1266.33 11.1333 1265.65 10.9133 1265.13 10.7C1264.61 10.4867 1264.16 10.16 1263.77 9.72C1263.4 9.28 1263.21 8.7 1263.21 7.98C1263.21 7.39333 1263.39 6.86 1263.73 6.38C1264.08 5.88667 1264.57 5.5 1265.21 5.22C1265.87 4.94 1266.61 4.8 1267.45 4.8C1268.71 4.8 1269.71 5.12 1270.47 5.76C1271.25 6.38667 1271.66 7.24667 1271.71 8.34H1269.43C1269.39 7.84667 1269.19 7.45333 1268.83 7.16C1268.47 6.86667 1267.99 6.72 1267.37 6.72C1266.77 6.72 1266.31 6.83333 1265.99 7.06C1265.67 7.28667 1265.51 7.58667 1265.51 7.96C1265.51 8.25333 1265.62 8.5 1265.83 8.7C1266.05 8.9 1266.31 9.06 1266.61 9.18C1266.92 9.28667 1267.37 9.42667 1267.97 9.6C1268.77 9.81333 1269.43 10.0333 1269.93 10.26C1270.45 10.4733 1270.9 10.7933 1271.27 11.22C1271.65 11.6467 1271.84 12.2133 1271.85 12.92C1271.85 13.5467 1271.68 14.1067 1271.33 14.6C1270.99 15.0933 1270.49 15.48 1269.85 15.76C1269.23 16.04 1268.49 16.18 1267.63 16.18ZM1276.98 6.84V12.94C1276.98 13.3533 1277.07 13.6533 1277.26 13.84C1277.46 14.0133 1277.79 14.1 1278.26 14.1H1279.66V16H1277.86C1276.83 16 1276.04 15.76 1275.5 15.28C1274.95 14.8 1274.68 14.02 1274.68 12.94V6.84H1273.38V4.98H1274.68V2.24H1276.98V4.98H1279.66V6.84H1276.98Z" fill="#000024"/>
<path opacity="0.25" d="M1245 225.5V225.5C1245 251.256 1212.66 262.75 1196.41 242.771L1010.52 14.2899C994.79 -5.04061 963.5 6.08 963.5 31V31" stroke="#000024" stroke-width="2" stroke-dasharray="15 15"/>
</svg>
