<svg width="241" height="249" viewBox="0 0 241 249" fill="none" xmlns="http://www.w3.org/2000/svg">
<rect x="35.5" y="44" width="170" height="170" rx="85" fill="#31CABC"/>
<path d="M105.477 172.196H136.526C142.674 172.196 147.675 167.195 147.675 161.047V94.9762C147.675 88.8278 142.674 83.827 136.526 83.827H105.477C99.3288 83.827 94.3279 88.8278 94.3279 94.9762V161.047C94.3279 167.195 99.3288 172.196 105.477 172.196ZM96.5335 94.9762C96.5335 90.0443 100.545 86.0325 105.477 86.0325H136.526C141.458 86.0325 145.469 90.0443 145.469 94.9762V161.047C145.469 165.979 141.458 169.991 136.526 169.991H105.477C100.545 169.991 96.5335 165.979 96.5335 161.047V94.9762Z" fill="white" stroke="white" stroke-width="0.35"/>
<path d="M95.4278 96.0755H146.572C147.183 96.0755 147.675 95.5806 147.675 94.9727C147.675 94.3644 147.18 93.8699 146.572 93.8699H95.4278C94.8195 93.8699 94.325 94.3644 94.325 94.9727C94.325 95.5809 94.8195 96.0755 95.4278 96.0755Z" fill="white" stroke="white" stroke-width="0.35"/>
<path d="M95.4278 160.476H146.572C147.183 160.476 147.675 159.981 147.675 159.373C147.675 158.765 147.18 158.27 146.572 158.27H95.4278C94.8195 158.27 94.325 158.765 94.325 159.373C94.325 159.981 94.8195 160.476 95.4278 160.476Z" fill="white" stroke="white" stroke-width="0.35"/>
<path d="M113.772 90.5579H128.226C128.837 90.5579 129.329 90.063 129.329 89.4551C129.329 88.8469 128.834 88.3523 128.226 88.3523H113.772C113.163 88.3523 112.669 88.8469 112.669 89.4551C112.669 90.0634 113.163 90.5579 113.772 90.5579Z" fill="white" stroke="white" stroke-width="0.35"/>
<path d="M114.733 145.601H127.264L130.354 142.335H130.529C130.529 142.335 130.529 142.335 130.529 142.335C130.529 140.534 129.065 139.069 127.264 139.069H114.733C112.932 139.069 111.468 140.534 111.468 142.335C111.468 144.136 112.932 145.601 114.733 145.601ZM113.673 142.335C113.673 141.75 114.149 141.275 114.733 141.275H127.264C127.848 141.275 128.324 141.75 128.324 142.335C128.324 142.92 127.848 143.395 127.264 143.395H114.733C114.149 143.395 113.673 142.92 113.673 142.335Z" fill="white" stroke="white" stroke-width="0.35"/>
<path d="M115.818 149.932H126.18C127.888 149.932 129.279 148.544 129.279 146.833V146.496C129.279 144.788 127.889 143.397 126.18 143.397H115.818C114.11 143.397 112.72 144.788 112.72 146.496V146.833C112.72 148.541 114.11 149.932 115.818 149.932ZM114.925 146.496C114.925 146.004 115.327 145.603 115.818 145.603H126.18C126.672 145.603 127.074 146.004 127.074 146.496V146.833C127.074 147.325 126.672 147.726 126.18 147.726H115.818C115.327 147.726 114.925 147.325 114.925 146.833V146.496Z" fill="white" stroke="white" stroke-width="0.35"/>
<path d="M115.597 148.826C115.597 151.807 118.022 154.229 121 154.229C123.978 154.229 126.402 151.807 126.402 148.826C126.402 148.218 125.908 147.723 125.299 147.723H116.7C116.092 147.723 115.597 148.218 115.597 148.826ZM121 152.023C119.625 152.023 118.448 151.151 117.999 149.929H124.001C123.551 151.151 122.375 152.023 121 152.023Z" fill="white" stroke="white" stroke-width="0.35"/>
<path d="M131.108 129.675C131.118 129.651 131.129 129.63 131.14 129.609C132.02 127.923 132.486 126.012 132.486 124.085C132.486 117.609 127.333 112.339 121 112.339C114.668 112.339 109.517 117.609 109.517 124.085C109.517 126.012 109.984 127.921 110.864 129.609M131.108 129.675L130.949 129.602L130.948 129.603C130.961 129.576 130.973 129.551 130.983 129.531L130.984 129.528C131.851 127.867 132.311 125.984 132.311 124.085C132.311 117.702 127.233 112.514 121 112.514C114.768 112.514 109.692 117.702 109.692 124.085C109.692 125.983 110.152 127.863 111.018 129.526M131.108 129.675L126.673 139.242M131.108 129.675L130.948 129.604L126.561 139.067M111.018 129.526C111.018 129.526 111.017 129.525 111.017 129.524L110.864 129.609M111.018 129.526C111.018 129.527 111.019 129.528 111.019 129.528L110.864 129.609M111.018 129.526C111.036 129.559 111.049 129.593 111.059 129.617M110.864 129.609C110.877 129.633 110.888 129.659 110.898 129.686M110.898 129.686L111.057 129.612L111.059 129.617M110.898 129.686L115.328 139.242M110.898 129.686L111.061 129.621L111.059 129.618C111.059 129.617 111.059 129.617 111.059 129.617M111.059 129.617L115.439 139.067M115.328 139.242V139.067H115.439M115.328 139.242L115.486 139.168L115.439 139.067M115.328 139.242H126.673M115.439 139.067H126.561M126.673 139.242L126.514 139.168L126.561 139.067M126.673 139.242V139.067H126.561M113.732 140.633L113.732 140.634C113.915 141.023 114.305 141.273 114.734 141.273H127.264C127.692 141.273 128.084 141.024 128.261 140.632C128.261 140.632 128.261 140.632 128.261 140.631L132.953 130.513C133.973 128.546 134.511 126.325 134.511 124.087C134.511 116.495 128.451 110.311 120.995 110.311C113.539 110.311 107.481 116.495 107.481 124.087C107.481 126.326 108.021 128.549 109.041 130.514L109.052 130.536L113.732 140.633Z" fill="white" stroke="white" stroke-width="0.35"/>
<path d="M117.197 133.666L117.197 133.667C117.349 133.789 117.434 133.972 117.434 134.167V140.171C117.434 140.779 117.929 141.274 118.537 141.274C119.145 141.274 119.64 140.782 119.64 140.171V134.167C119.64 133.308 119.259 132.503 118.595 131.959L118.595 131.958L117.373 130.959L117.372 130.958C117.221 130.836 117.135 130.653 117.135 130.458V125.793C117.135 125.185 116.641 124.69 116.032 124.69C115.424 124.69 114.929 125.185 114.929 125.793V130.458C114.929 131.319 115.311 132.122 115.974 132.667L115.974 132.667L117.197 133.666Z" fill="white" stroke="white" stroke-width="0.35"/>
<path d="M123.529 131.958L123.529 131.959C122.866 132.503 122.484 133.308 122.484 134.167V140.171C122.484 140.779 122.979 141.274 123.587 141.274C124.195 141.274 124.69 140.782 124.69 140.171V134.167C124.69 133.973 124.777 133.789 124.928 133.666L126.15 132.667L126.15 132.667C126.813 132.122 127.195 131.317 127.195 130.458V125.793C127.195 125.185 126.7 124.69 126.092 124.69C125.484 124.69 124.989 125.185 124.989 125.793V130.458C124.989 130.654 124.902 130.836 124.751 130.959L123.529 131.958Z" fill="white" stroke="white" stroke-width="0.35"/>
<path d="M114.665 128.558H127.611C128.223 128.558 128.714 128.063 128.714 127.455C128.714 126.847 128.22 126.352 127.611 126.352H114.665C114.057 126.352 113.562 126.847 113.562 127.455C113.562 128.063 114.057 128.558 114.665 128.558Z" fill="white" stroke="white" stroke-width="0.35"/>
<path d="M120.035 105.679C120.035 106.287 120.529 106.782 121.138 106.782C121.749 106.782 122.241 106.287 122.241 105.679V100.939C122.241 100.331 121.746 99.8367 121.138 99.8367C120.529 99.8367 120.035 100.331 120.035 100.939V105.679Z" fill="white" stroke="white" stroke-width="0.35"/>
<path d="M138.188 122.142H142.927C143.535 122.142 144.03 121.647 144.03 121.039C144.03 120.431 143.535 119.936 142.927 119.936H138.188C137.579 119.936 137.085 120.431 137.085 121.039C137.085 121.647 137.579 122.142 138.188 122.142Z" fill="white" stroke="white" stroke-width="0.35"/>
<path d="M99.8887 122.142H104.631C105.24 122.142 105.731 121.647 105.731 121.039C105.731 120.431 105.237 119.936 104.628 119.936H99.8887C99.2805 119.936 98.7859 120.431 98.7859 121.039C98.7859 121.647 99.2805 122.142 99.8887 122.142Z" fill="white" stroke="white" stroke-width="0.35"/>
<path d="M108.831 111.479L108.831 111.479C109.048 111.696 109.329 111.804 109.612 111.804C109.892 111.804 110.176 111.697 110.391 111.479C110.822 111.047 110.822 110.351 110.391 109.92C110.391 109.92 110.391 109.92 110.391 109.92L107.04 106.567L107.04 106.567C106.609 106.135 105.912 106.135 105.481 106.567C105.049 106.998 105.049 107.695 105.481 108.126C105.481 108.126 105.481 108.126 105.481 108.126L108.831 111.479Z" fill="white" stroke="white" stroke-width="0.35"/>
<path d="M131.8 111.599L131.801 111.599C132.018 111.813 132.298 111.92 132.581 111.92C132.861 111.92 133.145 111.813 133.36 111.599L136.713 108.245C137.144 107.814 137.144 107.117 136.713 106.686C136.281 106.254 135.585 106.254 135.153 106.686L131.8 110.039C131.368 110.47 131.368 111.167 131.8 111.599Z" fill="white" stroke="white" stroke-width="0.35"/>
<path d="M62.48 11.96V10.24L69.2 0.599999H71.96V9.98H73.82V11.96H71.96V15H69.72V11.96H62.48ZM69.82 2.92L65.1 9.98H69.82V2.92ZM76.9292 15.14C76.5158 15.14 76.1692 15 75.8892 14.72C75.6092 14.44 75.4692 14.0933 75.4692 13.68C75.4692 13.2667 75.6092 12.92 75.8892 12.64C76.1692 12.36 76.5158 12.22 76.9292 12.22C77.3292 12.22 77.6692 12.36 77.9492 12.64C78.2292 12.92 78.3692 13.2667 78.3692 13.68C78.3692 14.0933 78.2292 14.44 77.9492 14.72C77.6692 15 77.3292 15.14 76.9292 15.14ZM97.22 5.24C97.22 5.94667 97.0533 6.61333 96.72 7.24C96.3867 7.86667 95.8533 8.38 95.12 8.78C94.3867 9.16667 93.4467 9.36 92.3 9.36H89.78V15H87.5V1.1H92.3C93.3667 1.1 94.2667 1.28667 95 1.66C95.7467 2.02 96.3 2.51333 96.66 3.14C97.0333 3.76667 97.22 4.46667 97.22 5.24ZM92.3 7.5C93.1667 7.5 93.8133 7.30667 94.24 6.92C94.6667 6.52 94.88 5.96 94.88 5.24C94.88 3.72 94.02 2.96 92.3 2.96H89.78V7.5H92.3ZM101.675 5.58C102.008 5.02 102.448 4.58667 102.995 4.28C103.555 3.96 104.215 3.8 104.975 3.8V6.16H104.395C103.501 6.16 102.821 6.38667 102.355 6.84C101.901 7.29333 101.675 8.08 101.675 9.2V15H99.3945V3.98H101.675V5.58ZM111.85 15.18C110.81 15.18 109.87 14.9467 109.03 14.48C108.19 14 107.53 13.3333 107.05 12.48C106.57 11.6133 106.33 10.6133 106.33 9.48C106.33 8.36 106.577 7.36667 107.07 6.5C107.564 5.63333 108.237 4.96667 109.09 4.5C109.944 4.03333 110.897 3.8 111.95 3.8C113.004 3.8 113.957 4.03333 114.81 4.5C115.664 4.96667 116.337 5.63333 116.83 6.5C117.324 7.36667 117.57 8.36 117.57 9.48C117.57 10.6 117.317 11.5933 116.81 12.46C116.304 13.3267 115.61 14 114.73 14.48C113.864 14.9467 112.904 15.18 111.85 15.18ZM111.85 13.2C112.437 13.2 112.984 13.06 113.49 12.78C114.01 12.5 114.43 12.08 114.75 11.52C115.07 10.96 115.23 10.28 115.23 9.48C115.23 8.68 115.077 8.00667 114.77 7.46C114.464 6.9 114.057 6.48 113.55 6.2C113.044 5.92 112.497 5.78 111.91 5.78C111.324 5.78 110.777 5.92 110.27 6.2C109.777 6.48 109.384 6.9 109.09 7.46C108.797 8.00667 108.65 8.68 108.65 9.48C108.65 10.6667 108.95 11.5867 109.55 12.24C110.164 12.88 110.93 13.2 111.85 13.2ZM122.484 5.84V11.94C122.484 12.3533 122.578 12.6533 122.764 12.84C122.964 13.0133 123.298 13.1 123.764 13.1H125.164V15H123.364C122.338 15 121.551 14.76 121.004 14.28C120.458 13.8 120.184 13.02 120.184 11.94V5.84H118.884V3.98H120.184V1.24H122.484V3.98H125.164V5.84H122.484ZM132.046 15.18C131.006 15.18 130.066 14.9467 129.226 14.48C128.386 14 127.726 13.3333 127.246 12.48C126.766 11.6133 126.526 10.6133 126.526 9.48C126.526 8.36 126.772 7.36667 127.266 6.5C127.759 5.63333 128.432 4.96667 129.286 4.5C130.139 4.03333 131.092 3.8 132.146 3.8C133.199 3.8 134.152 4.03333 135.006 4.5C135.859 4.96667 136.532 5.63333 137.026 6.5C137.519 7.36667 137.766 8.36 137.766 9.48C137.766 10.6 137.512 11.5933 137.006 12.46C136.499 13.3267 135.806 14 134.926 14.48C134.059 14.9467 133.099 15.18 132.046 15.18ZM132.046 13.2C132.632 13.2 133.179 13.06 133.686 12.78C134.206 12.5 134.626 12.08 134.946 11.52C135.266 10.96 135.426 10.28 135.426 9.48C135.426 8.68 135.272 8.00667 134.966 7.46C134.659 6.9 134.252 6.48 133.746 6.2C133.239 5.92 132.692 5.78 132.106 5.78C131.519 5.78 130.972 5.92 130.466 6.2C129.972 6.48 129.579 6.9 129.286 7.46C128.992 8.00667 128.846 8.68 128.846 9.48C128.846 10.6667 129.146 11.5867 129.746 12.24C130.359 12.88 131.126 13.2 132.046 13.2ZM142.68 5.84V11.94C142.68 12.3533 142.773 12.6533 142.96 12.84C143.16 13.0133 143.493 13.1 143.96 13.1H145.36V15H143.56C142.533 15 141.746 14.76 141.2 14.28C140.653 13.8 140.38 13.02 140.38 11.94V5.84H139.08V3.98H140.38V1.24H142.68V3.98H145.36V5.84H142.68ZM157.381 3.98L150.621 20.18H148.261L150.501 14.82L146.161 3.98H148.701L151.801 12.38L155.021 3.98H157.381ZM161.382 5.6C161.768 5.09333 162.295 4.66667 162.962 4.32C163.628 3.97333 164.382 3.8 165.222 3.8C166.182 3.8 167.055 4.04 167.842 4.52C168.642 4.98667 169.268 5.64667 169.722 6.5C170.175 7.35333 170.402 8.33333 170.402 9.44C170.402 10.5467 170.175 11.54 169.722 12.42C169.268 13.2867 168.642 13.9667 167.842 14.46C167.055 14.94 166.182 15.18 165.222 15.18C164.382 15.18 163.635 15.0133 162.982 14.68C162.328 14.3333 161.795 13.9067 161.382 13.4V20.24H159.102V3.98H161.382V5.6ZM168.082 9.44C168.082 8.68 167.922 8.02667 167.602 7.48C167.295 6.92 166.882 6.5 166.362 6.22C165.855 5.92667 165.308 5.78 164.722 5.78C164.148 5.78 163.602 5.92667 163.082 6.22C162.575 6.51333 162.162 6.94 161.842 7.5C161.535 8.06 161.382 8.72 161.382 9.48C161.382 10.24 161.535 10.9067 161.842 11.48C162.162 12.04 162.575 12.4667 163.082 12.76C163.602 13.0533 164.148 13.2 164.722 13.2C165.308 13.2 165.855 13.0533 166.362 12.76C166.882 12.4533 167.295 12.0133 167.602 11.44C167.922 10.8667 168.082 10.2 168.082 9.44ZM182.756 9.22C182.756 9.63333 182.73 10.0067 182.676 10.34H174.256C174.323 11.22 174.65 11.9267 175.236 12.46C175.823 12.9933 176.543 13.26 177.396 13.26C178.623 13.26 179.49 12.7467 179.996 11.72H182.456C182.123 12.7333 181.516 13.5667 180.636 14.22C179.77 14.86 178.69 15.18 177.396 15.18C176.343 15.18 175.396 14.9467 174.556 14.48C173.73 14 173.076 13.3333 172.596 12.48C172.13 11.6133 171.896 10.6133 171.896 9.48C171.896 8.34667 172.123 7.35333 172.576 6.5C173.043 5.63333 173.69 4.96667 174.516 4.5C175.356 4.03333 176.316 3.8 177.396 3.8C178.436 3.8 179.363 4.02667 180.176 4.48C180.99 4.93333 181.623 5.57333 182.076 6.4C182.53 7.21333 182.756 8.15333 182.756 9.22ZM180.376 8.5C180.363 7.66 180.063 6.98667 179.476 6.48C178.89 5.97333 178.163 5.72 177.296 5.72C176.51 5.72 175.836 5.97333 175.276 6.48C174.716 6.97333 174.383 7.64667 174.276 8.5H180.376Z" fill="#000024"/>
</svg>
