<svg width="241" height="250" viewBox="0 0 241 250" fill="none" xmlns="http://www.w3.org/2000/svg">
<rect x="35.5" y="45" width="170" height="170" rx="85" fill="#FF5E00"/>
<path d="M108.272 141.344L107.251 147.619C107.217 147.83 107.229 148.046 107.286 148.252C107.343 148.458 107.445 148.65 107.583 148.813C107.722 148.976 107.894 149.106 108.088 149.196C108.282 149.286 108.494 149.332 108.708 149.332H109.236L109.699 153.818H108.708C108.316 153.818 107.941 153.974 107.664 154.25C107.387 154.527 107.232 154.902 107.232 155.294V162.74C107.232 163.131 107.387 163.506 107.664 163.783C107.941 164.06 108.316 164.215 108.708 164.215H110.757L110.951 166.067C110.976 167.105 111.235 168.124 111.707 169.049C112.179 169.974 112.853 170.781 113.679 171.41C115.439 172.797 117.622 173.539 119.863 173.511C124.753 173.511 128.739 170.18 128.79 166.069L128.982 164.215H131.033C131.425 164.215 131.8 164.06 132.077 163.783C132.353 163.506 132.509 163.131 132.509 162.74V155.288C132.509 154.897 132.353 154.521 132.077 154.244C131.8 153.968 131.425 153.812 131.033 153.812H130.042L130.505 149.327H131.033C131.247 149.327 131.458 149.28 131.653 149.19C131.847 149.101 132.019 148.97 132.158 148.807C132.296 148.644 132.398 148.453 132.455 148.247C132.512 148.04 132.524 147.824 132.49 147.613L131.469 141.344C136.733 139.057 141.219 135.288 144.377 130.495C147.536 125.703 149.231 120.095 149.257 114.355C149.264 108.741 147.645 103.246 144.595 98.5323L150.526 92.6167C150.733 92.4101 150.874 92.1467 150.931 91.8598C150.988 91.573 150.959 91.2756 150.846 91.0055C150.734 90.7355 150.544 90.5048 150.3 90.343C150.057 90.1811 149.771 90.0952 149.478 90.0964H146.114V86.7173C146.115 86.4245 146.028 86.1382 145.866 85.8947C145.704 85.6511 145.473 85.4613 145.202 85.3495C144.931 85.2377 144.634 85.2088 144.347 85.2666C144.06 85.3244 143.797 85.4662 143.591 85.674L138 91.2695C134.714 88.6895 130.916 86.8402 126.859 85.8451C122.801 84.8501 118.578 84.7322 114.472 85.4993C110.366 86.2665 106.47 87.9009 103.046 90.2936C99.6213 92.6863 96.7468 95.7821 94.6143 99.3742C92.4818 102.966 91.1402 106.972 90.6793 111.124C90.2184 115.276 90.6486 119.479 91.9414 123.451C93.2341 127.424 95.3596 131.074 98.1758 134.16C100.992 137.245 104.434 139.694 108.272 141.344ZM119.863 87.9272C125.665 87.9255 131.306 89.832 135.917 93.353L135.112 94.1587C134.835 94.4353 134.68 94.8106 134.679 95.2019V99.2185L133.102 100.796C129.879 98.0087 125.842 96.3357 121.592 96.0253V93.17C121.592 92.7787 121.437 92.4033 121.16 92.1266C120.884 91.8499 120.508 91.6944 120.117 91.6944C119.726 91.6944 119.35 91.8499 119.073 92.1266C118.797 92.4033 118.641 92.7787 118.641 93.17V96.0253C113.891 96.3847 109.426 98.4348 106.058 101.804C102.689 105.172 100.64 109.637 100.281 114.388H97.4267C97.0354 114.388 96.6601 114.543 96.3833 114.82C96.1066 115.096 95.9511 115.472 95.9511 115.863C95.9511 116.254 96.1066 116.63 96.3833 116.906C96.6601 117.183 97.0354 117.339 97.4267 117.339H100.281C100.64 122.091 102.692 126.556 106.063 129.925C109.434 133.294 113.901 135.343 118.653 135.699V138.556C118.653 138.948 118.809 139.323 119.085 139.6C119.362 139.876 119.737 140.032 120.129 140.032C120.52 140.032 120.895 139.876 121.172 139.6C121.449 139.323 121.604 138.948 121.604 138.556V135.699C126.353 135.338 130.816 133.288 134.183 129.919C137.55 126.551 139.598 122.088 139.958 117.339H142.814C143.206 117.339 143.581 117.183 143.858 116.906C144.134 116.63 144.29 116.254 144.29 115.863C144.29 115.472 144.134 115.096 143.858 114.82C143.581 114.543 143.206 114.388 142.814 114.388H139.958C139.648 110.137 137.975 106.101 135.187 102.878L136.552 101.513H140.993C141.385 101.513 141.76 101.357 142.037 101.081L142.469 100.65C144.989 104.774 146.317 109.517 146.306 114.351C146.282 119.699 144.646 124.915 141.612 129.319C138.577 133.723 134.285 137.109 129.297 139.036C128.98 139.157 128.714 139.384 128.545 139.678C128.375 139.972 128.313 140.315 128.367 140.65L129.298 146.375H110.443L111.374 140.65C111.428 140.315 111.366 139.972 111.197 139.678C111.028 139.384 110.763 139.157 110.446 139.036C104.673 136.836 99.8536 132.682 96.8257 127.297C93.7978 121.912 92.7528 115.636 93.8723 109.56C94.9918 103.484 98.205 97.9931 102.953 94.0409C107.702 90.0887 113.685 87.9254 119.863 87.9272ZM107.849 117.339C108.184 120.087 109.43 122.644 111.388 124.601C113.347 126.558 115.904 127.803 118.653 128.136V132.748C114.683 132.398 110.962 130.663 108.142 127.846C105.323 125.028 103.585 121.309 103.232 117.339H107.849ZM103.232 114.388C103.584 110.417 105.322 106.697 108.142 103.88C110.961 101.062 114.682 99.3263 118.653 98.9765V103.589C115.906 103.925 113.351 105.171 111.394 107.128C109.438 109.085 108.192 111.641 107.856 114.388H103.232ZM110.703 115.863C110.7 114.126 111.178 112.422 112.084 110.941C112.99 109.459 114.289 108.257 115.837 107.469C117.385 106.681 119.12 106.336 120.852 106.474C122.583 106.612 124.243 107.227 125.646 108.251L122.932 110.97C122.082 110.47 121.115 110.204 120.129 110.197C119.008 110.197 117.912 110.529 116.98 111.151C116.048 111.773 115.322 112.658 114.893 113.694C114.464 114.729 114.351 115.868 114.57 116.968C114.788 118.067 115.328 119.077 116.12 119.869C116.912 120.662 117.922 121.202 119.021 121.42C120.12 121.639 121.26 121.527 122.295 121.098C123.331 120.669 124.216 119.943 124.838 119.011C125.461 118.079 125.793 116.984 125.793 115.863C125.787 114.877 125.52 113.91 125.02 113.059L127.74 110.341C128.613 111.544 129.188 112.935 129.42 114.403C129.652 115.87 129.533 117.371 129.074 118.784C128.614 120.196 127.827 121.48 126.776 122.53C125.725 123.58 124.44 124.367 123.027 124.825C121.614 125.283 120.113 125.401 118.646 125.168C117.179 124.935 115.787 124.358 114.586 123.484C113.385 122.61 112.407 121.464 111.734 120.14C111.06 118.816 110.709 117.352 110.71 115.866L110.703 115.863ZM121.604 103.589V98.9765C125.071 99.2761 128.361 100.64 131.023 102.882L127.757 106.146C125.981 104.744 123.852 103.859 121.604 103.589ZM122.842 115.863C122.842 116.4 122.683 116.925 122.385 117.372C122.086 117.818 121.662 118.166 121.166 118.372C120.67 118.577 120.124 118.631 119.597 118.526C119.07 118.421 118.586 118.162 118.207 117.782C117.827 117.403 117.569 116.919 117.464 116.392C117.36 115.865 117.413 115.319 117.619 114.823C117.825 114.327 118.173 113.903 118.62 113.605C119.067 113.307 119.592 113.148 120.129 113.148C120.847 113.151 121.535 113.438 122.042 113.947C122.55 114.456 122.835 115.145 122.835 115.863H122.842ZM121.604 128.136C124.352 127.802 126.908 126.557 128.865 124.6C130.822 122.643 132.067 120.086 132.401 117.339H137.014C136.663 121.308 134.927 125.027 132.11 127.844C129.292 130.661 125.573 132.398 121.604 132.748V128.136ZM132.401 114.388C132.132 112.14 131.247 110.01 129.844 108.233L133.109 104.969C135.351 107.631 136.715 110.92 137.014 114.388H132.401Z" fill="white"/>
<path d="M82.4262 12.9C83.7062 11.7933 84.7129 10.8867 85.4462 10.18C86.1929 9.46 86.8129 8.71333 87.3062 7.94C87.7995 7.16667 88.0462 6.39333 88.0462 5.62C88.0462 4.82 87.8529 4.19333 87.4662 3.74C87.0929 3.28667 86.4995 3.06 85.6862 3.06C84.8995 3.06 84.2862 3.31333 83.8462 3.82C83.4195 4.31333 83.1929 4.98 83.1662 5.82H80.9662C81.0062 4.3 81.4595 3.14 82.3262 2.34C83.2062 1.52667 84.3195 1.12 85.6662 1.12C87.1195 1.12 88.2529 1.52 89.0662 2.32C89.8929 3.12 90.3062 4.18667 90.3062 5.52C90.3062 6.48 90.0595 7.40667 89.5662 8.3C89.0862 9.18 88.5062 9.97333 87.8262 10.68C87.1595 11.3733 86.3062 12.18 85.2662 13.1L84.3662 13.9H90.7062V15.8H80.9862V14.14L82.4262 12.9ZM93.9292 16.14C93.5158 16.14 93.1692 16 92.8892 15.72C92.6092 15.44 92.4692 15.0933 92.4692 14.68C92.4692 14.2667 92.6092 13.92 92.8892 13.64C93.1692 13.36 93.5158 13.22 93.9292 13.22C94.3292 13.22 94.6692 13.36 94.9492 13.64C95.2292 13.92 95.3692 14.2667 95.3692 14.68C95.3692 15.0933 95.2292 15.44 94.9492 15.72C94.6692 16 94.3292 16.14 93.9292 16.14ZM109.04 2.1C110.52 2.1 111.813 2.38667 112.92 2.96C114.04 3.52 114.9 4.33333 115.5 5.4C116.113 6.45333 116.42 7.68667 116.42 9.1C116.42 10.5133 116.113 11.74 115.5 12.78C114.9 13.82 114.04 14.62 112.92 15.18C111.813 15.7267 110.52 16 109.04 16H104.5V2.1H109.04ZM109.04 14.14C110.667 14.14 111.913 13.7 112.78 12.82C113.647 11.94 114.08 10.7 114.08 9.1C114.08 7.48667 113.647 6.22667 112.78 5.32C111.913 4.41333 110.667 3.96 109.04 3.96H106.78V14.14H109.04ZM128.78 10.22C128.78 10.6333 128.753 11.0067 128.7 11.34H120.28C120.346 12.22 120.673 12.9267 121.26 13.46C121.846 13.9933 122.566 14.26 123.42 14.26C124.646 14.26 125.513 13.7467 126.02 12.72H128.48C128.146 13.7333 127.54 14.5667 126.66 15.22C125.793 15.86 124.713 16.18 123.42 16.18C122.366 16.18 121.42 15.9467 120.58 15.48C119.753 15 119.1 14.3333 118.62 13.48C118.153 12.6133 117.92 11.6133 117.92 10.48C117.92 9.34667 118.146 8.35333 118.6 7.5C119.066 6.63333 119.713 5.96667 120.54 5.5C121.38 5.03333 122.34 4.8 123.42 4.8C124.46 4.8 125.386 5.02667 126.2 5.48C127.013 5.93333 127.646 6.57333 128.1 7.4C128.553 8.21333 128.78 9.15333 128.78 10.22ZM126.4 9.5C126.386 8.66 126.086 7.98667 125.5 7.48C124.913 6.97333 124.186 6.72 123.32 6.72C122.533 6.72 121.86 6.97333 121.3 7.48C120.74 7.97333 120.406 8.64667 120.3 9.5H126.4ZM135.643 6.84H133.603V16H131.303V6.84H130.003V4.98H131.303V4.2C131.303 2.93333 131.637 2.01333 132.303 1.44C132.983 0.853333 134.043 0.56 135.483 0.56V2.46C134.79 2.46 134.303 2.59333 134.023 2.86C133.743 3.11333 133.603 3.56 133.603 4.2V4.98H135.643V6.84ZM138.824 3.52C138.411 3.52 138.064 3.38 137.784 3.1C137.504 2.82 137.364 2.47333 137.364 2.06C137.364 1.64667 137.504 1.3 137.784 1.02C138.064 0.739999 138.411 0.599999 138.824 0.599999C139.224 0.599999 139.564 0.739999 139.844 1.02C140.124 1.3 140.264 1.64667 140.264 2.06C140.264 2.47333 140.124 2.82 139.844 3.1C139.564 3.38 139.224 3.52 138.824 3.52ZM139.944 4.98V16H137.664V4.98H139.944ZM148.498 4.8C149.364 4.8 150.138 4.98 150.818 5.34C151.511 5.7 152.051 6.23333 152.438 6.94C152.824 7.64667 153.018 8.5 153.018 9.5V16H150.758V9.84C150.758 8.85333 150.511 8.1 150.018 7.58C149.524 7.04667 148.851 6.78 147.998 6.78C147.144 6.78 146.464 7.04667 145.958 7.58C145.464 8.1 145.218 8.85333 145.218 9.84V16H142.938V4.98H145.218V6.24C145.591 5.78667 146.064 5.43333 146.638 5.18C147.224 4.92667 147.844 4.8 148.498 4.8ZM166.026 10.22C166.026 10.6333 165.999 11.0067 165.946 11.34H157.526C157.592 12.22 157.919 12.9267 158.506 13.46C159.092 13.9933 159.812 14.26 160.666 14.26C161.892 14.26 162.759 13.7467 163.266 12.72H165.726C165.392 13.7333 164.786 14.5667 163.906 15.22C163.039 15.86 161.959 16.18 160.666 16.18C159.612 16.18 158.666 15.9467 157.826 15.48C156.999 15 156.346 14.3333 155.866 13.48C155.399 12.6133 155.166 11.6133 155.166 10.48C155.166 9.34667 155.392 8.35333 155.846 7.5C156.312 6.63333 156.959 5.96667 157.786 5.5C158.626 5.03333 159.586 4.8 160.666 4.8C161.706 4.8 162.632 5.02667 163.446 5.48C164.259 5.93333 164.892 6.57333 165.346 7.4C165.799 8.21333 166.026 9.15333 166.026 10.22ZM163.646 9.5C163.632 8.66 163.332 7.98667 162.746 7.48C162.159 6.97333 161.432 6.72 160.566 6.72C159.779 6.72 159.106 6.97333 158.546 7.48C157.986 7.97333 157.652 8.64667 157.546 9.5H163.646Z" fill="#000024"/>
</svg>
