<svg width="241" height="249" viewBox="0 0 241 249" fill="none" xmlns="http://www.w3.org/2000/svg">
<rect x="35.5" y="44" width="170" height="170" rx="85" fill="#FFC14B"/>
<path d="M120.544 95.2427C120.932 95.2427 121.305 95.0885 121.579 94.8141C121.853 94.5397 122.008 94.1675 122.008 93.7794V86.4632C122.008 86.0752 121.853 85.703 121.579 85.4286C121.305 85.1542 120.932 85 120.544 85C120.156 85 119.784 85.1542 119.51 85.4286C119.235 85.703 119.081 86.0752 119.081 86.4632V93.7794C119.081 94.1675 119.235 94.5397 119.51 94.8141C119.784 95.0885 120.156 95.2427 120.544 95.2427Z" fill="white"/>
<path d="M98.817 103.387C98.952 103.527 99.1135 103.638 99.292 103.715C99.4705 103.792 99.6625 103.832 99.8568 103.834C100.051 103.835 100.244 103.798 100.424 103.725C100.603 103.651 100.767 103.543 100.904 103.405C101.042 103.268 101.15 103.104 101.224 102.925C101.297 102.745 101.334 102.552 101.333 102.358C101.331 102.163 101.291 101.971 101.214 101.793C101.137 101.614 101.026 101.453 100.886 101.318L95.712 96.144C95.577 96.0042 95.4156 95.8927 95.2371 95.8161C95.0585 95.7394 94.8665 95.699 94.6722 95.6973C94.478 95.6956 94.2853 95.7327 94.1054 95.8062C93.9256 95.8798 93.7622 95.9885 93.6249 96.1258C93.4875 96.2632 93.3788 96.4266 93.3053 96.6064C93.2317 96.7863 93.1947 96.9789 93.1963 97.1732C93.198 97.3675 93.2384 97.5595 93.3151 97.738C93.3918 97.9166 93.5032 98.078 93.643 98.213L98.817 103.387Z" fill="white"/>
<path d="M83.9632 124.507H91.2794C91.6675 124.507 92.0397 124.352 92.3141 124.078C92.5885 123.804 92.7427 123.431 92.7427 123.043C92.7427 122.655 92.5885 122.283 92.3141 122.009C92.0397 121.734 91.6675 121.58 91.2794 121.58H83.9632C83.5752 121.58 83.203 121.734 82.9286 122.009C82.6542 122.283 82.5 122.655 82.5 123.043C82.5 123.431 82.6542 123.804 82.9286 124.078C83.203 124.352 83.5752 124.507 83.9632 124.507Z" fill="white"/>
<path d="M95.712 149.943L100.886 144.769C101.153 144.493 101.3 144.123 101.297 143.74C101.293 143.356 101.14 142.989 100.868 142.718C100.597 142.446 100.23 142.292 99.8463 142.289C99.4626 142.286 99.093 142.433 98.817 142.7L93.643 147.874C93.5032 148.009 93.3918 148.17 93.3151 148.349C93.2384 148.527 93.198 148.719 93.1963 148.914C93.1947 149.108 93.2317 149.301 93.3053 149.48C93.3788 149.66 93.4875 149.824 93.6249 149.961C93.7622 150.098 93.9256 150.207 94.1054 150.281C94.2853 150.354 94.478 150.391 94.6722 150.39C94.8665 150.388 95.0585 150.347 95.2371 150.271C95.4156 150.194 95.577 150.083 95.712 149.943Z" fill="white"/>
<path d="M147.446 149.946C147.72 149.671 147.874 149.299 147.874 148.911C147.874 148.523 147.72 148.151 147.446 147.877L142.272 142.703C142.137 142.563 141.975 142.451 141.797 142.375C141.618 142.298 141.426 142.258 141.232 142.256C141.038 142.254 140.845 142.291 140.665 142.365C140.485 142.438 140.322 142.547 140.184 142.684C140.047 142.822 139.938 142.985 139.865 143.165C139.791 143.345 139.754 143.538 139.756 143.732C139.758 143.926 139.798 144.118 139.875 144.297C139.951 144.475 140.063 144.637 140.203 144.772L145.377 149.946C145.651 150.22 146.023 150.374 146.411 150.374C146.799 150.374 147.171 150.22 147.446 149.946Z" fill="white"/>
<path d="M149.809 124.507H157.125C157.513 124.507 157.885 124.352 158.16 124.078C158.434 123.804 158.588 123.431 158.588 123.043C158.588 122.655 158.434 122.283 158.16 122.009C157.885 121.734 157.513 121.58 157.125 121.58H149.809C149.421 121.58 149.049 121.734 148.774 122.009C148.5 122.283 148.346 122.655 148.346 123.043C148.346 123.431 148.5 123.804 148.774 124.078C149.049 124.352 149.421 124.507 149.809 124.507Z" fill="white"/>
<path d="M142.272 103.387L147.446 98.213C147.585 98.078 147.697 97.9166 147.774 97.738C147.85 97.5595 147.891 97.3675 147.892 97.1732C147.894 96.9789 147.857 96.7863 147.783 96.6064C147.71 96.4266 147.601 96.2632 147.464 96.1258C147.326 95.9885 147.163 95.8798 146.983 95.8062C146.803 95.7327 146.611 95.6956 146.416 95.6973C146.222 95.699 146.03 95.7394 145.852 95.8161C145.673 95.8927 145.512 96.0042 145.377 96.144L140.203 101.318C140.063 101.453 139.951 101.614 139.875 101.793C139.798 101.971 139.758 102.163 139.756 102.358C139.754 102.552 139.791 102.745 139.865 102.925C139.938 103.104 140.047 103.268 140.184 103.405C140.322 103.543 140.485 103.651 140.665 103.725C140.845 103.798 141.038 103.835 141.232 103.834C141.426 103.832 141.618 103.792 141.797 103.715C141.975 103.638 142.137 103.527 142.272 103.387Z" fill="white"/>
<path d="M110.557 145.871L109.716 150.975C109.682 151.184 109.693 151.399 109.75 151.603C109.807 151.808 109.907 151.997 110.045 152.159C110.182 152.321 110.353 152.451 110.546 152.54C110.738 152.629 110.948 152.675 111.16 152.675H111.405L111.747 155.997H111.162C110.774 155.997 110.401 156.151 110.127 156.425C109.853 156.7 109.698 157.072 109.698 157.46V163.723C109.698 164.111 109.853 164.483 110.127 164.757C110.401 165.032 110.774 165.186 111.162 165.186H112.694L112.83 166.525C112.855 167.427 113.081 168.312 113.49 169.116C113.899 169.921 114.482 170.624 115.196 171.176C116.716 172.381 118.605 173.025 120.544 172.999C124.764 172.999 128.203 170.102 128.255 166.525L128.391 165.186H129.923C130.311 165.186 130.684 165.032 130.958 164.757C131.232 164.483 131.387 164.111 131.387 163.723V157.46C131.387 157.072 131.232 156.7 130.958 156.425C130.684 156.151 130.311 155.997 129.923 155.997H129.338L129.68 152.675H129.925C130.137 152.675 130.347 152.629 130.539 152.54C130.732 152.451 130.903 152.321 131.04 152.159C131.178 151.997 131.278 151.808 131.335 151.603C131.392 151.399 131.403 151.184 131.369 150.975L130.531 145.871C135.77 143.578 140.06 139.551 142.681 134.467C145.301 129.384 146.092 123.553 144.92 117.955C143.749 112.357 140.686 107.333 136.247 103.727C131.808 100.121 126.263 98.1523 120.544 98.1523C114.825 98.1523 109.28 100.121 104.841 103.727C100.402 107.333 97.3393 112.357 96.1678 117.955C94.9962 123.553 95.7871 129.384 98.4075 134.467C101.028 139.551 105.318 143.578 110.557 145.871ZM116.154 128.897H113.228C112.649 128.897 112.083 128.726 111.602 128.404C111.121 128.083 110.746 127.626 110.524 127.091C110.303 126.556 110.245 125.968 110.358 125.4C110.47 124.832 110.749 124.311 111.158 123.902C111.568 123.492 112.089 123.214 112.657 123.101C113.225 122.988 113.813 123.046 114.348 123.267C114.882 123.489 115.34 123.864 115.661 124.345C115.983 124.826 116.154 125.392 116.154 125.971V128.897ZM122.007 149.749H119.081V131.824H122.007V149.749ZM120.544 101.096C125.682 101.094 130.658 102.892 134.608 106.178C138.557 109.465 141.23 114.032 142.161 119.084C143.092 124.137 142.223 129.357 139.705 133.835C137.186 138.314 133.178 141.768 128.377 143.597C128.061 143.718 127.796 143.944 127.628 144.237C127.46 144.531 127.399 144.873 127.455 145.207L128.2 149.754H124.934V131.824H127.86C129.018 131.824 130.149 131.481 131.112 130.838C132.074 130.194 132.825 129.28 133.268 128.211C133.711 127.141 133.827 125.964 133.601 124.829C133.375 123.694 132.817 122.651 131.999 121.832C131.18 121.014 130.137 120.456 129.002 120.23C127.867 120.005 126.69 120.121 125.62 120.564C124.551 121.007 123.637 121.757 122.994 122.719C122.351 123.682 122.007 124.813 122.007 125.971V128.897H119.081V125.971C119.081 124.813 118.738 123.682 118.094 122.719C117.451 121.757 116.537 121.007 115.468 120.564C114.398 120.121 113.221 120.005 112.086 120.23C110.951 120.456 109.908 121.014 109.089 121.832C108.271 122.651 107.713 123.694 107.487 124.829C107.261 125.964 107.377 127.141 107.82 128.211C108.263 129.28 109.014 130.194 109.976 130.838C110.939 131.481 112.07 131.824 113.228 131.824H116.154V149.749H112.888L113.633 145.201C113.689 144.867 113.628 144.525 113.46 144.231C113.292 143.938 113.027 143.712 112.711 143.591C107.914 141.759 103.91 138.305 101.395 133.828C98.8795 129.351 98.0119 124.134 98.9428 119.084C99.8736 114.034 102.544 109.469 106.49 106.183C110.436 102.897 115.409 101.097 120.544 101.096ZM124.934 128.897V125.971C124.934 125.392 125.105 124.826 125.427 124.345C125.749 123.864 126.206 123.489 126.74 123.267C127.275 123.046 127.863 122.988 128.431 123.101C128.999 123.214 129.52 123.492 129.93 123.902C130.339 124.311 130.618 124.832 130.73 125.4C130.843 125.968 130.785 126.556 130.564 127.091C130.342 127.626 129.967 128.083 129.486 128.404C129.005 128.726 128.439 128.897 127.86 128.897H124.934Z" fill="white"/>
<path d="M120.544 106.948C124.82 106.953 128.919 108.654 131.943 111.677C134.966 114.701 136.667 118.8 136.672 123.076C136.672 123.464 136.826 123.836 137.101 124.11C137.375 124.385 137.747 124.539 138.135 124.539C138.523 124.539 138.896 124.385 139.17 124.11C139.444 123.836 139.599 123.464 139.599 123.076C139.593 118.024 137.583 113.181 134.011 109.609C130.439 106.037 125.596 104.027 120.544 104.021C120.156 104.021 119.784 104.176 119.51 104.45C119.235 104.724 119.081 105.097 119.081 105.485C119.081 105.873 119.235 106.245 119.51 106.519C119.784 106.794 120.156 106.948 120.544 106.948Z" fill="white"/>
<path d="M114.691 108.413C115.499 108.413 116.154 107.758 116.154 106.95C116.154 106.141 115.499 105.486 114.691 105.486C113.883 105.486 113.228 106.141 113.228 106.95C113.228 107.758 113.883 108.413 114.691 108.413Z" fill="white"/>
<path d="M80.7942 4.02C80.8742 2.78 81.3475 1.81333 82.2142 1.12C83.0942 0.426666 84.2142 0.079999 85.5742 0.079999C86.5075 0.079999 87.3142 0.246666 87.9942 0.58C88.6742 0.913333 89.1875 1.36667 89.5342 1.94C89.8808 2.51333 90.0542 3.16 90.0542 3.88C90.0542 4.70667 89.8342 5.41333 89.3942 6C88.9542 6.58667 88.4275 6.98 87.8142 7.18V7.26C88.6008 7.5 89.2142 7.94 89.6542 8.58C90.0942 9.20667 90.3142 10.0133 90.3142 11C90.3142 11.7867 90.1342 12.4867 89.7742 13.1C89.4142 13.7133 88.8808 14.2 88.1742 14.56C87.4675 14.9067 86.6208 15.08 85.6342 15.08C84.1942 15.08 83.0075 14.7133 82.0742 13.98C81.1542 13.2333 80.6608 12.1667 80.5942 10.78H82.7942C82.8475 11.4867 83.1208 12.0667 83.6142 12.52C84.1075 12.96 84.7742 13.18 85.6142 13.18C86.4275 13.18 87.0542 12.96 87.4942 12.52C87.9342 12.0667 88.1542 11.4867 88.1542 10.78C88.1542 9.84667 87.8542 9.18667 87.2542 8.8C86.6675 8.4 85.7608 8.2 84.5342 8.2H84.0142V6.32H84.5542C85.6342 6.30667 86.4542 6.12667 87.0142 5.78C87.5875 5.43333 87.8742 4.88667 87.8742 4.14C87.8742 3.5 87.6675 2.99333 87.2542 2.62C86.8408 2.23333 86.2542 2.04 85.4942 2.04C84.7475 2.04 84.1675 2.23333 83.7542 2.62C83.3408 2.99333 83.0942 3.46 83.0142 4.02H80.7942ZM93.9292 15.14C93.5158 15.14 93.1692 15 92.8892 14.72C92.6092 14.44 92.4692 14.0933 92.4692 13.68C92.4692 13.2667 92.6092 12.92 92.8892 12.64C93.1692 12.36 93.5158 12.22 93.9292 12.22C94.3292 12.22 94.6692 12.36 94.9492 12.64C95.2292 12.92 95.3692 13.2667 95.3692 13.68C95.3692 14.0933 95.2292 14.44 94.9492 14.72C94.6692 15 94.3292 15.14 93.9292 15.14ZM106.78 1.1V15H104.5V1.1H106.78ZM109.013 9.44C109.013 8.33333 109.24 7.35333 109.693 6.5C110.16 5.64667 110.787 4.98667 111.573 4.52C112.373 4.04 113.26 3.8 114.233 3.8C114.953 3.8 115.66 3.96 116.353 4.28C117.06 4.58667 117.62 5 118.033 5.52V0.2H120.333V15H118.033V13.34C117.66 13.8733 117.14 14.3133 116.473 14.66C115.82 15.0067 115.067 15.18 114.213 15.18C113.253 15.18 112.373 14.94 111.573 14.46C110.787 13.9667 110.16 13.2867 109.693 12.42C109.24 11.54 109.013 10.5467 109.013 9.44ZM118.033 9.48C118.033 8.72 117.873 8.06 117.553 7.5C117.247 6.94 116.84 6.51333 116.333 6.22C115.827 5.92667 115.28 5.78 114.693 5.78C114.107 5.78 113.56 5.92667 113.053 6.22C112.547 6.5 112.133 6.92 111.813 7.48C111.507 8.02667 111.353 8.68 111.353 9.44C111.353 10.2 111.507 10.8667 111.813 11.44C112.133 12.0133 112.547 12.4533 113.053 12.76C113.573 13.0533 114.12 13.2 114.693 13.2C115.28 13.2 115.827 13.0533 116.333 12.76C116.84 12.4667 117.247 12.04 117.553 11.48C117.873 10.9067 118.033 10.24 118.033 9.48ZM133.428 9.22C133.428 9.63333 133.401 10.0067 133.348 10.34H124.928C124.995 11.22 125.321 11.9267 125.908 12.46C126.495 12.9933 127.215 13.26 128.068 13.26C129.295 13.26 130.161 12.7467 130.668 11.72H133.128C132.795 12.7333 132.188 13.5667 131.308 14.22C130.441 14.86 129.361 15.18 128.068 15.18C127.015 15.18 126.068 14.9467 125.228 14.48C124.401 14 123.748 13.3333 123.268 12.48C122.801 11.6133 122.568 10.6133 122.568 9.48C122.568 8.34667 122.795 7.35333 123.248 6.5C123.715 5.63333 124.361 4.96667 125.188 4.5C126.028 4.03333 126.988 3.8 128.068 3.8C129.108 3.8 130.035 4.02667 130.848 4.48C131.661 4.93333 132.295 5.57333 132.748 6.4C133.201 7.21333 133.428 8.15333 133.428 9.22ZM131.048 8.5C131.035 7.66 130.735 6.98667 130.148 6.48C129.561 5.97333 128.835 5.72 127.968 5.72C127.181 5.72 126.508 5.97333 125.948 6.48C125.388 6.97333 125.055 7.64667 124.948 8.5H131.048ZM134.912 9.44C134.912 8.33333 135.139 7.35333 135.592 6.5C136.059 5.64667 136.685 4.98667 137.472 4.52C138.272 4.04 139.152 3.8 140.112 3.8C140.979 3.8 141.732 3.97333 142.372 4.32C143.025 4.65333 143.545 5.07333 143.932 5.58V3.98H146.232V15H143.932V13.36C143.545 13.88 143.019 14.3133 142.352 14.66C141.685 15.0067 140.925 15.18 140.072 15.18C139.125 15.18 138.259 14.94 137.472 14.46C136.685 13.9667 136.059 13.2867 135.592 12.42C135.139 11.54 134.912 10.5467 134.912 9.44ZM143.932 9.48C143.932 8.72 143.772 8.06 143.452 7.5C143.145 6.94 142.739 6.51333 142.232 6.22C141.725 5.92667 141.179 5.78 140.592 5.78C140.005 5.78 139.459 5.92667 138.952 6.22C138.445 6.5 138.032 6.92 137.712 7.48C137.405 8.02667 137.252 8.68 137.252 9.44C137.252 10.2 137.405 10.8667 137.712 11.44C138.032 12.0133 138.445 12.4533 138.952 12.76C139.472 13.0533 140.019 13.2 140.592 13.2C141.179 13.2 141.725 13.0533 142.232 12.76C142.739 12.4667 143.145 12.04 143.452 11.48C143.772 10.9067 143.932 10.24 143.932 9.48ZM151.887 5.84V11.94C151.887 12.3533 151.98 12.6533 152.167 12.84C152.367 13.0133 152.7 13.1 153.167 13.1H154.567V15H152.767C151.74 15 150.953 14.76 150.407 14.28C149.86 13.8 149.587 13.02 149.587 11.94V5.84H148.287V3.98H149.587V1.24H151.887V3.98H154.567V5.84H151.887ZM166.768 9.22C166.768 9.63333 166.741 10.0067 166.688 10.34H158.268C158.335 11.22 158.661 11.9267 159.248 12.46C159.835 12.9933 160.555 13.26 161.408 13.26C162.635 13.26 163.501 12.7467 164.008 11.72H166.468C166.135 12.7333 165.528 13.5667 164.648 14.22C163.781 14.86 162.701 15.18 161.408 15.18C160.355 15.18 159.408 14.9467 158.568 14.48C157.741 14 157.088 13.3333 156.608 12.48C156.141 11.6133 155.908 10.6133 155.908 9.48C155.908 8.34667 156.135 7.35333 156.588 6.5C157.055 5.63333 157.701 4.96667 158.528 4.5C159.368 4.03333 160.328 3.8 161.408 3.8C162.448 3.8 163.375 4.02667 164.188 4.48C165.001 4.93333 165.635 5.57333 166.088 6.4C166.541 7.21333 166.768 8.15333 166.768 9.22ZM164.388 8.5C164.375 7.66 164.075 6.98667 163.488 6.48C162.901 5.97333 162.175 5.72 161.308 5.72C160.521 5.72 159.848 5.97333 159.288 6.48C158.728 6.97333 158.395 7.64667 158.288 8.5H164.388Z" fill="#000024"/>
</svg>
