<svg width="88" height="87" viewBox="0 0 88 87" fill="none" xmlns="http://www.w3.org/2000/svg">
<circle cx="44" cy="43.5" r="43.5" fill="#F9F2EB"/>
<path d="M38.75 54.455H38C32 54.455 29 52.955 29 45.455V37.955C29 31.955 32 28.955 38 28.955H50C56 28.955 59 31.955 59 37.955V45.455C59 51.455 56 54.455 50 54.455H49.25C48.785 54.455 48.335 54.68 48.05 55.055L45.8 58.055C44.81 59.375 43.19 59.375 42.2 58.055L39.95 55.055C39.71 54.725 39.17 54.455 38.75 54.455Z" stroke="#E59F5E" stroke-width="2.25" stroke-miterlimit="10" stroke-linecap="round" stroke-linejoin="round"/>
<path opacity="0.4" d="M38 39.05L35 42.05L38 45.05" stroke="#E59F5E" stroke-width="2.25" stroke-miterlimit="10" stroke-linecap="round" stroke-linejoin="round"/>
<path opacity="0.4" d="M50 39.05L53 42.05L50 45.05" stroke="#E59F5E" stroke-width="2.25" stroke-miterlimit="10" stroke-linecap="round" stroke-linejoin="round"/>
<path opacity="0.4" d="M45.5 38.555L42.5 45.545" stroke="#E59F5E" stroke-width="2.25" stroke-miterlimit="10" stroke-linecap="round" stroke-linejoin="round"/>
</svg>
