<svg width="32" height="32" viewBox="0 0 32 32" fill="none" xmlns="http://www.w3.org/2000/svg">
<g id="mingcute:pen-fill" clip-path="url(#clip0_46_5408)">
<g id="Group">
<path id="Vector" d="M19.0599 6.63875L25.3586 12.9388C25.7277 13.3077 25.9804 13.7769 26.0854 14.2881C26.1904 14.7994 26.143 15.3302 25.9493 15.8148L22.7959 23.6988C22.6191 24.1402 22.3275 24.5263 21.9512 24.817C21.5749 25.1077 21.1277 25.2925 20.6559 25.3521L13.8839 26.1988C13.7106 26.2188 13.5266 26.2441 13.3373 26.2734L12.7453 26.3694L12.4359 26.4254L11.4719 26.6121L10.8119 26.7521L9.81859 26.9761L8.54526 27.2801L6.47592 27.8081L5.61459 28.0401C5.39722 28.0999 5.16833 28.1041 4.9489 28.0524C4.72947 28.0008 4.52652 27.8948 4.35866 27.7444C4.1908 27.5939 4.0634 27.4037 3.98814 27.1912C3.91289 26.9787 3.89218 26.7507 3.92792 26.5281L3.97326 26.3334L4.36659 24.8508L4.71859 23.4534L5.02259 22.1801L5.24526 21.1868L5.38526 20.5254L5.57326 19.5628L5.67992 18.9534L5.76526 18.3828L6.64526 11.3428C6.70501 10.8709 6.88997 10.4235 7.18093 10.0472C7.47189 9.67094 7.85825 9.37935 8.29992 9.20275L16.1839 6.04942C16.6685 5.85564 17.1993 5.80832 17.7105 5.91331C18.2218 6.0183 18.6909 6.26967 19.0599 6.63875ZM14.1133 14.1121C13.7764 14.4492 13.536 14.8704 13.4171 15.3318C13.2983 15.7933 13.3052 16.2782 13.4373 16.7361C13.3401 16.7931 13.2505 16.8621 13.1706 16.9414L7.75992 22.3521C7.72447 22.3881 7.69996 22.4334 7.68926 22.4828L7.57059 22.9961L7.33326 23.9868L7.21859 24.4548C7.20727 24.4997 7.2078 24.5468 7.22014 24.5915C7.23248 24.6362 7.25619 24.6769 7.28897 24.7097C7.32175 24.7425 7.36247 24.7662 7.40716 24.7785C7.45185 24.7909 7.49897 24.7914 7.54392 24.7801L8.49992 24.5468L9.51726 24.3094C9.5663 24.2981 9.61114 24.2731 9.64659 24.2374L15.0573 18.8268C15.1366 18.7473 15.2056 18.6582 15.2626 18.5614C15.7144 18.6913 16.1925 18.6994 16.6485 18.585C17.1044 18.4706 17.522 18.2377 17.8589 17.9098C18.1959 17.582 18.4402 17.171 18.5671 16.7183C18.6939 16.2657 18.6989 15.7875 18.5815 15.3323C18.464 14.8771 18.2283 14.4611 17.8983 14.1263C17.5682 13.7916 17.1556 13.55 16.7021 13.4261C16.2486 13.3023 15.7704 13.3005 15.316 13.4209C14.8616 13.5414 14.4472 13.7798 14.1146 14.1121H14.1133ZM20.3239 4.13342C20.5533 3.90366 20.8587 3.7655 21.1828 3.74488C21.5068 3.72426 21.8272 3.82259 22.0839 4.02142L22.2093 4.13342L27.8653 9.78942C28.1069 10.0288 28.248 10.3515 28.2595 10.6915C28.271 11.0315 28.1522 11.363 27.9273 11.6182C27.7024 11.8734 27.3885 12.033 27.0498 12.0644C26.711 12.0957 26.3732 11.9964 26.1053 11.7868L25.9799 11.6748L20.3239 6.01875C20.074 5.76872 19.9335 5.42964 19.9335 5.07609C19.9335 4.72254 20.074 4.38346 20.3239 4.13342Z" fill="url(#paint0_angular_46_5408)"/>
</g>
</g>
<defs>
<radialGradient id="paint0_angular_46_5408" cx="0" cy="0" r="1" gradientUnits="userSpaceOnUse" gradientTransform="translate(16.0856 15.9152) rotate(90) scale(12.173 12.1747)">
<stop stop-color="#000024"/>
<stop offset="0.552083" stop-color="#A3383E"/>
<stop offset="1" stop-color="#44040C"/>
</radialGradient>
<clipPath id="clip0_46_5408">
<rect width="32" height="32" fill="white"/>
</clipPath>
</defs>
</svg>
