<svg width="128" height="40" viewBox="0 0 128 40" fill="none" xmlns="http://www.w3.org/2000/svg">
<g clip-path="url(#clip0_4_11)">
<path d="M31.121 15.493L30.8359 15.2079L29.9918 14.3638L29.7068 14.0787L28.8643 13.2363L28.5792 12.9512L27.7367 12.1071L27.4501 11.822L26.3209 10.6929L26.0358 10.9795L17.5282 19.4872L22.0321 23.9894L19.6129 26.4086L9.91084 16.7049L13.7538 12.862L20.836 5.77973L21.1227 5.49307L20.844 5.21596L19.9521 4.32251L19.6655 4.03744L18.772 3.14399L18.4885 2.85892L17.5951 1.96706L16.1331 0.505066L15.848 0.790141L-0.036499 16.6555L22.8029 39.5013L27.7399 34.5643L25.8017 32.6261L26.4834 31.9444L24.5452 30.0063L25.2252 29.3246L23.287 27.3864L23.9687 26.7048L21.9333 24.6822L30.8359 15.7796L31.121 15.493ZM27.1634 34.5706L22.8029 38.9311L0.532058 16.6555L16.1267 1.06247L17.0186 1.95433L2.3078 16.6715L22.0321 36.4037L25.5103 32.9239L27.1634 34.5706ZM25.9052 31.9444L22.0321 35.8192L2.87795 16.6715L17.3036 2.24577L18.1955 3.13922L4.65847 16.6763L21.2596 33.2918L24.2521 30.2977L25.9052 31.9444ZM24.6487 29.3262L21.2612 32.7153L5.22224 16.6826L18.4806 3.4227L19.374 4.31614L6.99639 16.6954L20.4872 30.1926L22.9956 27.6843L24.6487 29.3262ZM23.3905 26.7048L20.4872 29.6081L7.56654 16.689L19.6591 4.59644L20.5525 5.48829L9.34069 16.6986L19.6145 26.9724L20.2738 26.313L20.285 26.3242L21.6467 24.9609L23.3905 26.7048ZM18.0999 19.4808L26.3209 11.2582L27.165 12.1007L18.9424 20.3233L18.0999 19.4808ZM19.2275 20.61L27.4501 12.3874L28.2941 13.2299L20.0716 21.4524L19.2275 20.61ZM20.3567 21.7518L28.5792 13.5293L29.4217 14.3718L21.1991 22.5943L20.3567 21.7518ZM22.3283 23.7235L21.4842 22.8794L29.7068 14.6568L30.5508 15.5009L22.3283 23.7235Z" fill="#470912"/>
<path d="M48.5137 14.1074V11.666H41.6337V25.1855H44.1405V19.6433H48.3115V17.2098H44.1405V14.1074H48.5137Z" fill="url(#paint0_angular_4_11)"/>
<path d="M58.1919 15.0502V16.4963C57.8133 15.9442 57.3039 15.4944 56.7092 15.1872C56.1134 14.8885 55.4549 14.7367 54.7885 14.7444C54.0791 14.7372 53.3766 14.8839 52.7293 15.1744C52.0696 15.4851 51.4858 15.9362 51.0189 16.4963C50.5768 16.9847 50.2377 17.5572 50.0219 18.1796C49.6115 19.4722 49.621 20.8615 50.049 22.1484C50.2567 22.7609 50.5728 23.3311 50.9822 23.8318C51.4218 24.3568 51.9715 24.7787 52.5923 25.0676C53.258 25.3723 53.9832 25.5252 54.7153 25.5151C54.8252 25.5151 54.9366 25.5151 55.0529 25.4976L55.3921 25.461C55.9381 25.3593 56.4633 25.1677 56.9465 24.894C57.4268 24.6314 57.8404 24.262 58.1553 23.8142H58.1919V25.1855H60.4215V15.0502H58.1919ZM58.1186 20.1178C58.1395 20.9245 57.8413 21.7068 57.2889 22.2949C57.016 22.5851 56.6831 22.8124 56.3135 22.9609C55.9438 23.1094 55.5463 23.1756 55.1485 23.1549C54.7582 23.167 54.3696 23.0996 54.0062 22.9567C53.6429 22.8137 53.3125 22.5983 53.0351 22.3236C52.7482 22.0562 52.5209 21.7314 52.368 21.3703C52.2152 21.0091 52.1402 20.6198 52.148 20.2277C52.1363 19.8184 52.2053 19.4108 52.3513 19.0282C52.4972 18.6457 52.7171 18.2956 52.9985 17.9981C53.2782 17.7029 53.6184 17.4715 53.9958 17.3198C54.3732 17.1681 54.7788 17.0996 55.1851 17.119C55.5777 17.0989 55.97 17.1646 56.3347 17.3114C56.6994 17.4583 57.0277 17.6828 57.2969 17.9694C57.8389 18.5451 58.1319 19.3114 58.1123 20.1019L58.1186 20.1178Z" fill="url(#paint1_angular_4_11)"/>
<path d="M68.875 15.0502L66.4415 21.5448L64.1195 15.0502H61.3564L65.0703 24.2347L63.2038 28.5713H65.8204L71.6382 15.0502H68.875Z" fill="url(#paint2_angular_4_11)"/>
<path d="M86.1387 15.6538L86.1467 15.6729V15.6538H86.1387ZM78.0054 18.2895V20.6673H83.6575C83.2977 21.3695 82.7538 21.9607 82.084 22.3777C81.43 22.81 80.6723 23.0596 79.8894 23.1008H79.7062C79.0579 23.1006 78.4165 22.9667 77.8222 22.7074C77.2149 22.4499 76.6668 22.0705 76.2121 21.5926C75.874 21.2402 75.593 20.8372 75.3792 20.3981C75.1568 19.9539 75.0114 19.4752 74.9492 18.9823C74.9364 18.8979 74.9285 18.8103 74.9221 18.718C74.9157 18.6256 74.9125 18.5396 74.9125 18.4536C74.9125 18.3676 74.9125 18.2625 74.9221 18.1701C74.9316 18.0777 74.9364 17.9854 74.9492 17.8882C75.0381 17.3447 75.2173 16.8198 75.4795 16.3354C75.7336 15.8571 76.0681 15.4261 76.4685 15.0614C76.8933 14.6783 77.3866 14.379 77.9225 14.1791C78.4573 13.9762 79.0244 13.872 79.5964 13.8717H79.8336C80.4818 13.9135 81.1129 14.0967 81.6826 14.4084C82.2594 14.711 82.7598 15.1407 83.1462 15.665H86.1387C85.6411 14.406 84.7465 13.3436 83.5906 12.639C82.4488 11.901 81.1272 11.4886 79.7684 11.4462H79.6091C78.6732 11.4315 77.7437 11.6029 76.8746 11.9504C76.0055 12.2979 75.2141 12.8145 74.5462 13.4704C73.8542 14.1141 73.3058 14.8967 72.937 15.7669C72.5681 16.6372 72.3871 17.5755 72.4058 18.5205C72.4058 20.508 73.1225 22.1696 74.5558 23.5053C75.9266 24.7876 77.732 25.5033 79.609 25.5087C81.4861 25.514 83.2955 24.8085 84.6735 23.534C86.1069 22.2153 86.8235 20.5622 86.8235 18.5746V18.2832L78.0054 18.2895Z" fill="url(#paint3_angular_4_11)"/>
<path d="M92.6444 14.7445C92.2041 14.7298 91.7679 14.8338 91.3815 15.0455C91.0088 15.2784 90.6958 15.5953 90.4674 15.9708H90.4307V15.055H88.217V25.1903H90.6505V19.4601C90.6479 19.1121 90.6875 18.765 90.7684 18.4265C90.8599 18.0861 91.0629 17.7861 91.3449 17.5745C91.483 17.4638 91.6371 17.3747 91.802 17.3101C91.9684 17.2435 92.1399 17.1902 92.3148 17.1509C92.3986 17.1275 92.4844 17.1126 92.5712 17.1063C92.6556 17.1063 92.7416 17.0904 92.8276 17.0776V14.7206L92.6444 14.7445Z" fill="url(#paint4_angular_4_11)"/>
<path d="M102.539 16.3371C102.058 15.8201 101.474 15.409 100.825 15.1302C100.176 14.8513 99.4759 14.7107 98.7696 14.7174V14.7445C98.0527 14.7317 97.3407 14.8636 96.676 15.1323C96.0113 15.401 95.4077 15.801 94.9012 16.3084C94.1435 17.0572 93.6251 18.0138 93.4114 19.0574C93.1978 20.1009 93.2986 21.1844 93.701 22.1706C94.1034 23.1569 94.7894 24.0016 95.6721 24.5978C96.5548 25.194 97.5945 25.5149 98.6597 25.5199C99.3685 25.5307 100.072 25.3987 100.729 25.1316C101.386 24.8646 101.982 24.468 102.482 23.9656C102.997 23.4764 103.405 22.8853 103.679 22.23C103.953 21.5747 104.088 20.8695 104.074 20.1593C104.085 19.4521 103.955 18.7499 103.692 18.0936C103.428 17.4373 103.036 16.8402 102.539 16.3371ZM100.802 22.2934C100.524 22.5776 100.19 22.801 99.8213 22.9493C99.4525 23.0977 99.0569 23.1677 98.6597 23.1549C98.2692 23.1633 97.8813 23.0885 97.5219 22.9356C97.1625 22.7827 96.8397 22.5551 96.575 22.2679C96.0257 21.7045 95.7226 20.9461 95.7325 20.1593C95.7302 19.7682 95.8021 19.3802 95.9443 19.0158C96.0868 18.6559 96.3039 18.3302 96.5813 18.0602C96.7996 17.8325 97.0528 17.6411 97.3314 17.4933C97.6125 17.3398 97.9146 17.2287 98.2281 17.1636C98.3013 17.1525 98.3746 17.1429 98.4479 17.1365C98.5211 17.1302 98.5944 17.1206 98.666 17.1095C99.0633 17.1012 99.4579 17.1772 99.8238 17.3322C100.19 17.4873 100.519 17.7181 100.789 18.0093C101.067 18.2923 101.287 18.6278 101.434 18.9963C101.582 19.3649 101.655 19.7591 101.649 20.1561C101.658 20.5509 101.587 20.9434 101.442 21.3105C101.296 21.6776 101.079 22.0118 100.802 22.2934Z" fill="url(#paint5_angular_4_11)"/>
<path d="M112.034 15.0502V20.3058C112.034 20.3915 112.028 20.4772 112.017 20.5622C111.987 21.1818 111.831 21.7888 111.558 22.3459C111.291 22.8895 110.748 23.1608 109.93 23.1597C109.57 23.1648 109.216 23.0699 108.906 22.8858C108.6 22.7022 108.353 22.4354 108.193 22.1166C108.116 21.9499 108.058 21.7752 108.019 21.5958C107.976 21.4063 107.943 21.2152 107.917 21.0193C107.906 20.8489 107.897 20.6816 107.89 20.516C107.884 20.3504 107.881 20.1895 107.881 20.0382V15.0502H105.447V20.7963C105.443 21.394 105.492 21.9909 105.594 22.58C105.713 23.1641 105.999 23.7011 106.417 24.1264C106.821 24.5858 107.325 24.946 107.89 25.1791C108.439 25.4028 109.027 25.5175 109.62 25.5168C110.144 25.5247 110.664 25.4119 111.138 25.1871C111.602 24.9558 111.976 24.5764 112.2 24.1089H112.233V25.1871H114.463V15.0502H112.034Z" fill="url(#paint6_angular_4_11)"/>
<path d="M126.68 18.0889C126.173 16.7953 125.2 15.7381 123.953 15.1251C123.318 14.8612 122.636 14.7316 121.948 14.7445C121.307 14.7352 120.671 14.873 120.091 15.1474C119.525 15.4253 119.043 15.8478 118.693 16.3721H118.656V15.055H116.427V28.5761H118.86V24.0882L118.897 24.1073C119.246 24.5752 119.708 24.9463 120.241 25.1855C120.782 25.4121 121.365 25.5244 121.951 25.5152C123.438 25.5152 124.659 24.9785 125.614 23.9051C126.552 22.8756 127.064 21.5291 127.048 20.137C127.047 19.4379 126.923 18.7444 126.68 18.0889ZM123.753 22.2758C123.475 22.5645 123.141 22.7921 122.771 22.9438C122.401 23.0954 122.003 23.1679 121.603 23.1565C121.517 23.1565 121.443 23.1565 121.356 23.1565C121.272 23.1492 121.189 23.1337 121.109 23.1103C120.842 23.0579 120.583 22.9684 120.341 22.8444C120.097 22.7248 119.869 22.5744 119.663 22.3969C119.345 22.1199 119.098 21.7717 118.941 21.3808C118.787 20.9878 118.709 20.5688 118.712 20.1465C118.703 19.751 118.774 19.3578 118.92 18.9902C119.067 18.6225 119.285 18.2879 119.562 18.0061C119.837 17.7183 120.169 17.4902 120.535 17.3359C120.902 17.1817 121.297 17.1046 121.695 17.1095C122.084 17.1016 122.471 17.178 122.828 17.3333C123.186 17.4886 123.505 17.7192 123.765 18.0093C124.303 18.5921 124.6 19.3571 124.597 20.1503C124.593 20.9435 124.289 21.7058 123.746 22.2838L123.753 22.2758Z" fill="url(#paint7_angular_4_11)"/>
</g>
<defs>
<radialGradient id="paint0_angular_4_11" cx="0" cy="0" r="1" gradientUnits="userSpaceOnUse" gradientTransform="translate(45.0737 18.4257) rotate(90) scale(6.75976 3.44)">
<stop stop-color="#000024"/>
<stop offset="0.552083" stop-color="#A3383E"/>
<stop offset="1" stop-color="#44040C"/>
</radialGradient>
<radialGradient id="paint1_angular_4_11" cx="0" cy="0" r="1" gradientUnits="userSpaceOnUse" gradientTransform="translate(55.0712 20.1299) rotate(90) scale(5.38572 5.35032)">
<stop stop-color="#000024"/>
<stop offset="0.552083" stop-color="#A3383E"/>
<stop offset="1" stop-color="#44040C"/>
</radialGradient>
<radialGradient id="paint2_angular_4_11" cx="0" cy="0" r="1" gradientUnits="userSpaceOnUse" gradientTransform="translate(66.4973 21.8108) rotate(90) scale(6.76056 5.14089)">
<stop stop-color="#000024"/>
<stop offset="0.552083" stop-color="#A3383E"/>
<stop offset="1" stop-color="#44040C"/>
</radialGradient>
<radialGradient id="paint3_angular_4_11" cx="0" cy="0" r="1" gradientUnits="userSpaceOnUse" gradientTransform="translate(79.614 18.477) rotate(90) scale(7.03169 7.20953)">
<stop stop-color="#000024"/>
<stop offset="0.552083" stop-color="#A3383E"/>
<stop offset="1" stop-color="#44040C"/>
</radialGradient>
<radialGradient id="paint4_angular_4_11" cx="0" cy="0" r="1" gradientUnits="userSpaceOnUse" gradientTransform="translate(90.5223 19.9554) rotate(90) scale(5.23485 2.30528)">
<stop stop-color="#000024"/>
<stop offset="0.552083" stop-color="#A3383E"/>
<stop offset="1" stop-color="#44040C"/>
</radialGradient>
<radialGradient id="paint5_angular_4_11" cx="0" cy="0" r="1" gradientUnits="userSpaceOnUse" gradientTransform="translate(98.6887 20.1189) rotate(90) scale(5.4017 5.38665)">
<stop stop-color="#000024"/>
<stop offset="0.552083" stop-color="#A3383E"/>
<stop offset="1" stop-color="#44040C"/>
</radialGradient>
<radialGradient id="paint6_angular_4_11" cx="0" cy="0" r="1" gradientUnits="userSpaceOnUse" gradientTransform="translate(109.955 20.2837) rotate(90) scale(5.23346 4.50794)">
<stop stop-color="#000024"/>
<stop offset="0.552083" stop-color="#A3383E"/>
<stop offset="1" stop-color="#44040C"/>
</radialGradient>
<radialGradient id="paint7_angular_4_11" cx="0" cy="0" r="1" gradientUnits="userSpaceOnUse" gradientTransform="translate(121.737 21.6599) rotate(90) scale(6.91626 5.31068)">
<stop stop-color="#000024"/>
<stop offset="0.552083" stop-color="#A3383E"/>
<stop offset="1" stop-color="#44040C"/>
</radialGradient>
<clipPath id="clip0_4_11">
<rect width="128" height="40" fill="white"/>
</clipPath>
</defs>
</svg>
