<svg width="41" height="42" viewBox="0 0 41 42" fill="none" xmlns="http://www.w3.org/2000/svg">
<circle opacity="0.2" cx="20.1543" cy="21.0498" r="19.6804" stroke="#000024" stroke-width="0.742658"/>
<path d="M20.151 18.012C18.4804 18.012 17.1171 19.3753 17.1171 21.0458C17.1171 22.7163 18.4804 24.0796 20.151 24.0796C21.8215 24.0796 23.1848 22.7163 23.1848 21.0458C23.1848 19.3753 21.8215 18.012 20.151 18.012ZM29.2501 21.0458C29.2501 19.7895 29.2615 18.5446 29.1909 17.2905C29.1204 15.8339 28.7881 14.5412 27.723 13.4761C26.6556 12.4087 25.3651 12.0786 23.9085 12.0081C22.6522 11.9375 21.4073 11.9489 20.1532 11.9489C18.8969 11.9489 17.652 11.9375 16.3979 12.0081C14.9414 12.0786 13.6486 12.4109 12.5835 13.4761C11.5161 14.5435 11.1861 15.8339 11.1155 17.2905C11.045 18.5468 11.0563 19.7918 11.0563 21.0458C11.0563 22.2998 11.045 23.5471 11.1155 24.8011C11.1861 26.2577 11.5184 27.5504 12.5835 28.6155C13.6509 29.683 14.9414 30.013 16.3979 30.0835C17.6543 30.1541 18.8992 30.1427 20.1532 30.1427C21.4095 30.1427 22.6545 30.1541 23.9085 30.0835C25.3651 30.013 26.6578 29.6807 27.723 28.6155C28.7904 27.5481 29.1204 26.2577 29.1909 24.8011C29.2638 23.5471 29.2501 22.3021 29.2501 21.0458ZM20.151 25.7137C17.5678 25.7137 15.483 23.629 15.483 21.0458C15.483 18.4626 17.5678 16.3779 20.151 16.3779C22.7341 16.3779 24.8189 18.4626 24.8189 21.0458C24.8189 23.629 22.7341 25.7137 20.151 25.7137ZM25.0101 17.2769C24.4069 17.2769 23.9199 16.7898 23.9199 16.1867C23.9199 15.5836 24.4069 15.0965 25.0101 15.0965C25.6132 15.0965 26.1002 15.5836 26.1002 16.1867C26.1004 16.3299 26.0723 16.4718 26.0176 16.6041C25.9629 16.7364 25.8826 16.8567 25.7813 16.958C25.6801 17.0592 25.5598 17.1395 25.4275 17.1942C25.2951 17.249 25.1533 17.277 25.0101 17.2769Z" fill="#000024"/>
</svg>
