<svg width="41" height="42" viewBox="0 0 41 42" fill="none" xmlns="http://www.w3.org/2000/svg">
<circle opacity="0.2" cx="20.2598" cy="21.0498" r="19.6804" stroke="#000024" stroke-width="0.742658"/>
<path d="M29.3543 15.5898C28.673 15.8816 27.9503 16.0732 27.2103 16.1581C27.9811 15.7114 28.5729 15.0041 28.8516 14.1614C28.1189 14.5818 27.3172 14.878 26.4812 15.0372C25.8002 14.3358 24.8301 13.8975 23.7564 13.8975C21.6948 13.8975 20.0233 15.5134 20.0233 17.5064C20.0233 17.7894 20.0564 18.0648 20.12 18.329C17.0176 18.1784 14.267 16.7416 12.4258 14.5581C12.1045 15.0911 11.9205 15.7112 11.9205 16.3725C11.9205 17.6246 12.5795 18.7293 13.5811 19.3765C12.9883 19.3585 12.4086 19.2037 11.8903 18.925C11.89 18.9401 11.89 18.9553 11.89 18.9704C11.89 20.7191 13.1768 22.1778 14.8844 22.5093C14.3347 22.6539 13.7581 22.675 13.1987 22.5712C13.6737 24.005 15.0523 25.0484 16.6857 25.0776C15.4082 26.0456 13.7985 26.6226 12.0497 26.6226C11.7483 26.6226 11.4512 26.6055 11.1592 26.5721C12.8112 27.5961 14.7733 28.1936 16.8814 28.1936C23.7477 28.1936 27.5024 22.6942 27.5024 17.925C27.5024 17.7685 27.4988 17.6128 27.4916 17.4581C28.2224 16.9473 28.8532 16.3146 29.3543 15.5898Z" fill="#000024"/>
</svg>
