<svg width="41" height="42" viewBox="0 0 41 42" fill="none" xmlns="http://www.w3.org/2000/svg">
<circle opacity="0.2" cx="20.0518" cy="21.0498" r="19.6804" stroke="#000024" stroke-width="0.742658"/>
<path d="M21.0116 29.674H17.1745V18.1628H21.0116V20.0814C21.4156 19.5675 21.9282 19.1493 22.5128 18.8569C23.0975 18.5645 23.7395 18.4051 24.393 18.3902C25.5359 18.3965 26.6296 18.8558 27.4343 19.6674C28.239 20.4789 28.6891 21.5765 28.6857 22.7193V29.674H24.8487V23.199C24.7745 22.6806 24.5155 22.2064 24.1194 21.8638C23.7234 21.5211 23.2169 21.333 22.6932 21.3342C22.4588 21.3416 22.2283 21.3963 22.0156 21.4949C21.8029 21.5936 21.6123 21.7342 21.4552 21.9084C21.2982 22.0826 21.1779 22.2866 21.1017 22.5084C21.0255 22.7302 20.9948 22.9651 21.0116 23.199V29.674ZM15.256 29.674H11.4189V18.1628H15.256V29.674ZM13.3375 16.2443C12.8287 16.2443 12.3407 16.0422 11.9809 15.6824C11.6211 15.3226 11.4189 14.8346 11.4189 14.3258C11.4189 13.8169 11.6211 13.3289 11.9809 12.9692C12.3407 12.6094 12.8287 12.4072 13.3375 12.4072C13.8463 12.4072 14.3343 12.6094 14.6941 12.9692C15.0539 13.3289 15.256 13.8169 15.256 14.3258C15.256 14.8346 15.0539 15.3226 14.6941 15.6824C14.3343 16.0422 13.8463 16.2443 13.3375 16.2443Z" fill="#000024"/>
</svg>
