<svg width="76" height="76" viewBox="0 0 76 76" fill="none" xmlns="http://www.w3.org/2000/svg">
<circle cx="38" cy="38" r="38" fill="#F4F4F4"/>
<g clip-path="url(#clip0_591_2221)">
<path d="M38.4374 46.9436C37.2082 44.7707 36.7289 42.2533 37.0737 39.7807C37.4185 37.3082 38.5682 35.018 40.345 33.2643C42.1219 31.5106 44.4269 30.391 46.9038 30.0786C49.3807 29.7662 51.8915 30.2783 54.0481 31.5359C56.2048 32.7935 57.8871 34.7265 58.8351 37.036C59.783 39.3455 59.9439 41.903 59.2927 44.3131C58.6415 46.7232 57.2145 48.8517 55.2324 50.3695C53.2503 51.8874 50.8234 52.71 48.3269 52.7104C46.3146 52.7157 44.3372 52.1841 42.5988 51.1704C40.8604 50.1567 39.4239 48.6976 38.4374 46.9436Z" fill="#E59F5E"/>
<path d="M42.9076 29.3033C44.1751 29.3016 45.4269 29.583 46.5716 30.1271C44.7578 30.4118 43.04 31.1316 41.5652 32.2251C40.0903 33.3186 38.9024 34.7531 38.103 36.406C37.3036 38.0588 36.9165 39.8807 36.9749 41.7157C37.0334 43.5508 37.5355 45.3444 38.4385 46.943H21.9797C21.233 46.9426 20.4938 46.7946 19.8045 46.5077C19.1151 46.2208 18.4893 45.8006 17.9628 45.2711C17.4363 44.7416 17.0196 44.1134 16.7366 43.4225C16.4535 42.7315 16.3098 41.9915 16.3135 41.2448C16.3134 41.2374 16.3137 41.2299 16.3144 41.2225L16.3233 40.9233C16.3296 37.3465 18.769 34.2988 22.1186 33.5284V33.5258C22.1191 31.178 22.9265 28.9017 24.4054 27.0783C25.8843 25.2549 27.9449 23.9951 30.242 23.51C32.5391 23.0249 34.9331 23.344 37.023 24.4138C39.1128 25.4835 40.7716 27.239 41.7213 29.3861C42.1143 29.3309 42.5107 29.3032 42.9076 29.3033Z" fill="#BC0C13"/>
<path d="M48.3278 29.1013C47.786 29.102 47.2448 29.1384 46.7078 29.2101C45.5108 28.6811 44.2161 28.4094 42.9074 28.4128C42.6894 28.4128 42.471 28.4204 42.2534 28.4355C41.3167 26.6176 39.8976 25.0927 38.1517 24.0278C36.4057 22.9629 34.4004 22.3992 32.3553 22.3984C26.4488 22.3984 21.6023 27.0242 21.2485 32.8455C19.676 33.3568 18.2905 34.3231 17.2674 35.6221C16.0847 37.1312 15.4391 38.9916 15.4327 40.9089L15.4248 41.1761C15.4232 41.2023 15.4229 41.224 15.4229 41.2401C15.4192 42.1021 15.5863 42.9564 15.9144 43.7535C16.2426 44.5506 16.7255 45.2749 17.335 45.8845C17.9446 46.494 18.6689 46.9768 19.466 47.305C20.2632 47.6331 21.1175 47.8001 21.9795 47.7964H37.9339C40.1651 51.448 44.0993 53.5819 48.3275 53.5819C55.082 53.5819 60.5772 48.0961 60.5772 41.3416C60.5772 34.5871 55.0823 29.1013 48.3278 29.1013ZM18.5941 44.6247C18.1506 44.1831 17.7993 43.6577 17.5606 43.0791C17.322 42.5005 17.2007 41.8803 17.204 41.2544C17.204 41.2497 17.2044 41.2495 17.2045 41.2447L17.2134 40.9478C17.2134 40.9394 17.2134 40.9322 17.2134 40.9239C17.2157 39.4013 17.727 37.9231 18.666 36.7245C19.5837 35.5564 20.8714 34.7353 22.3176 34.3962C22.5142 34.3505 22.6895 34.2396 22.8149 34.0815C22.9404 33.9234 23.0087 33.7275 23.0086 33.5257C23.0091 31.3822 23.7463 29.3039 25.0966 27.6391C26.4469 25.9744 28.3283 24.8242 30.4256 24.3813C32.5229 23.9385 34.7087 24.2299 36.6167 25.2066C38.5248 26.1834 40.0392 27.7863 40.9063 29.7466C40.9848 29.9238 41.1189 30.0705 41.2883 30.1646C41.4577 30.2587 41.6531 30.2951 41.845 30.2682C42.1968 30.2188 42.5517 30.194 42.907 30.1941C43.022 30.1941 43.1365 30.1973 43.2505 30.2023C41.1143 31.1754 39.3027 32.7417 38.0311 34.7148C36.7596 36.688 36.0817 38.9849 36.0781 41.3322C36.0729 42.9403 36.3917 44.533 37.0155 46.0151H21.9795C21.3511 46.0202 20.728 45.8998 20.1467 45.6611C19.5654 45.4223 19.0375 45.07 18.5941 44.6247ZM48.3278 51.8193C46.2573 51.8193 44.2333 51.2054 42.5118 50.0551C40.7903 48.9048 39.4485 47.2699 38.6562 45.357C37.8639 43.4442 37.6566 41.3393 38.0605 39.3087C38.4644 37.278 39.4615 35.4127 40.9255 33.9487C42.3895 32.4846 44.2548 31.4876 46.2855 31.0837C48.3162 30.6798 50.421 30.8871 52.3339 31.6794C54.2467 32.4717 55.8816 33.8135 57.0319 35.535C58.1822 37.2565 58.7962 39.2805 58.7962 41.3509C58.7888 44.1251 57.6835 46.7835 55.7219 48.7451C53.7603 50.7067 51.1019 51.812 48.3278 51.8193Z" fill="#470912"/>
<path d="M48.9053 36.5948C48.7391 36.4338 48.5168 36.3438 48.2855 36.3438C48.0541 36.3438 47.8318 36.4338 47.6657 36.5948L44.268 39.8875C44.184 39.9689 44.1168 40.066 44.0703 40.1734C44.0239 40.2807 43.999 40.3962 43.9972 40.5131C43.9953 40.6301 44.0165 40.7462 44.0596 40.855C44.1027 40.9637 44.1667 41.0629 44.2481 41.1469C44.3273 41.2308 44.4224 41.298 44.5279 41.3445C44.6334 41.391 44.7472 41.4159 44.8625 41.4178C44.9778 41.4196 45.0923 41.3984 45.1993 41.3553C45.3062 41.3122 45.4035 41.2481 45.4853 41.1668L47.3503 39.3376V45.4673C47.3503 45.7035 47.4442 45.93 47.6112 46.097C47.7782 46.2641 48.0047 46.3579 48.241 46.3579C48.4772 46.3579 48.7037 46.2641 48.8707 46.097C49.0377 45.93 49.1316 45.7035 49.1316 45.4673V39.3376L51.0412 41.1666C51.2115 41.3281 51.4373 41.418 51.672 41.4176C51.7922 41.4178 51.9112 41.3939 52.022 41.3474C52.1329 41.3009 52.2333 41.2327 52.3173 41.1468C52.3989 41.0629 52.4632 40.9639 52.5065 40.8552C52.5498 40.7466 52.5712 40.6305 52.5696 40.5135C52.568 40.3966 52.5434 40.2811 52.4972 40.1736C52.451 40.0662 52.3841 39.9689 52.3002 39.8873L48.9053 36.5948Z" fill="#470912"/>
</g>
<defs>
<clipPath id="clip0_591_2221">
<rect width="45.6" height="45.6" fill="white" transform="translate(15.1992 15.1992)"/>
</clipPath>
</defs>
</svg>
