<svg width="97" height="97" viewBox="0 0 97 97" fill="none" xmlns="http://www.w3.org/2000/svg">
<circle opacity="0.12" cx="48.5" cy="48.5" r="48.5" fill="#000024"/>
<path d="M41.6592 60.9949C41.5974 60.9331 41.5357 60.8096 41.4122 60.7479C41.2886 60.8096 41.1651 60.8096 40.9799 60.8714C39.93 61.1184 38.7566 61.4272 37.5215 61.4272C35.9158 61.4272 34.5571 60.9949 33.3837 60.1303C30.8517 58.3393 30.5429 55.4368 30.4194 53.5223L22.2674 68.4058C21.4646 69.8262 22.5762 71.4319 24.1819 71.3084L30.8517 70.7525L34.0013 76.6812C34.7424 78.1016 36.7186 78.1017 37.4597 76.743L44.5618 63.774C43.2649 62.9711 42.3385 61.8595 41.6592 60.9949Z" fill="#000024"/>
<path d="M74.3905 68.4058L66.2386 53.5223C66.1151 55.4368 65.7445 58.2776 63.2742 60.1303C62.1009 60.9949 60.7422 61.4272 59.1365 61.4272C57.8396 61.4272 56.728 61.1802 55.6781 60.8714C55.5546 60.8096 55.4311 60.8096 55.2458 60.7479C55.1223 60.8714 55.0605 60.9331 54.9988 60.9949C54.3195 61.7977 53.3931 62.9711 52.0962 63.774L59.1983 76.743C59.9394 78.1634 61.9156 78.1016 62.6567 76.6812L65.8063 70.7525L72.4761 71.3084C74.0818 71.4936 75.1316 69.8262 74.3905 68.4058Z" fill="#000024"/>
<path d="M53.64 55.9308C53.887 55.8691 54.1341 55.8073 54.4428 55.8073C55.8633 55.8073 57.716 56.6101 59.1364 56.6101C59.6304 56.6101 60.0627 56.4866 60.4333 56.2396C62.039 55.0662 61.0509 51.299 62.2242 49.6933C63.3359 48.0877 67.2883 47.9024 67.9059 45.9879C68.4617 44.1352 65.4974 41.6649 65.4974 39.6269C65.4974 37.5889 68.5235 35.1186 67.9059 33.2659C67.2883 31.3514 63.3359 31.1662 62.2242 29.5605C61.0509 27.9548 62.039 24.1258 60.4333 22.9525C60.0627 22.7054 59.6922 22.5819 59.1364 22.5819C57.716 22.5819 55.8633 23.3848 54.4428 23.3848C54.1341 23.3848 53.887 23.323 53.64 23.2612C51.7873 22.7054 50.3669 19 48.3289 19C46.2909 19 44.8705 22.6437 43.0795 23.2612C42.8325 23.3848 42.5855 23.3848 42.2767 23.3848C40.8563 23.3848 39.0035 22.5819 37.5831 22.5819C37.0891 22.5819 36.6568 22.7054 36.2862 22.9525C34.6805 24.1258 35.6686 27.893 34.4953 29.5605C33.3836 31.1662 29.4312 31.3514 28.8136 33.2659C28.2578 35.0569 31.2221 37.5272 31.2221 39.6269C31.2221 41.6649 28.196 44.1352 28.8136 45.9879C29.4312 47.9024 33.3836 48.0877 34.4953 49.6933C35.6686 51.299 34.6805 55.0662 36.2862 56.2396C36.6568 56.4866 37.0273 56.6101 37.5831 56.6101C39.0035 56.6101 40.8563 55.8073 42.2767 55.8073C42.5855 55.8073 42.8325 55.8691 43.0795 55.9308C44.9322 56.4866 46.3526 60.1921 48.3289 60.1921C50.3669 60.1921 51.7873 56.4866 53.64 55.9308ZM48.7612 46.0497C48.5141 45.9261 48.1436 45.9261 47.8966 46.0497L43.9441 48.2729C42.8942 48.8905 41.6591 47.9641 41.8444 46.7907L42.7707 42.3442C42.8325 42.0354 42.709 41.7267 42.5237 41.5414L39.1888 38.4535C38.3242 37.6507 38.7565 36.1685 39.9917 36.045L44.4999 35.5509C44.8087 35.4892 45.0557 35.3039 45.1793 35.0569L47.032 30.9191C47.526 29.8075 49.07 29.8075 49.564 30.9191L51.4785 35.0569C51.602 35.3657 51.849 35.5509 52.1578 35.5509L56.6661 36.045C57.8395 36.1685 58.3335 37.6507 57.4689 38.4535L54.1341 41.5414C53.887 41.7267 53.8253 42.0354 53.887 42.3442L54.8134 46.7907C55.0604 47.9641 53.7635 48.8905 52.7136 48.2729L48.7612 46.0497Z" fill="#000024"/>
</svg>
