<svg width="97" height="97" viewBox="0 0 97 97" fill="none" xmlns="http://www.w3.org/2000/svg">
<circle opacity="0.12" cx="48.5" cy="48.5" r="48.5" fill="#000024"/>
<path d="M68.1338 38.3595C68.3483 37.6033 68.5 36.8233 68.5 36C68.5 31.2117 64.6217 27.3333 59.8333 27.3333C58.035 27.3333 56.3667 27.8815 54.9822 28.8175C53.7992 25.4375 50.6163 23 46.8333 23C42.7882 23 39.419 25.782 38.4635 29.5303C38.3617 29.526 38.2685 29.5 38.1667 29.5C33.3783 29.5 29.5 33.3805 29.5 38.1667C29.5 38.99 29.6517 39.77 29.8662 40.5262C25.9445 41.356 23 44.8313 23 49C23 53.7862 26.8783 57.6667 31.6667 57.6667C34.362 57.6667 36.7388 56.4122 38.327 54.4838C40.6085 56.4598 43.5768 57.6667 46.8333 57.6667C47.6545 57.6667 48.454 57.5822 49.234 57.437C50.118 61.2872 53.5478 64.1667 57.6667 64.1667C62.455 64.1667 66.3333 60.2862 66.3333 55.5C71.1217 55.5 75 51.6195 75 46.8333C75 42.6647 72.0555 39.1893 68.1338 38.3595Z" fill="#000024"/>
<path d="M41.4167 70.6667C44.4082 70.6667 46.8333 68.2416 46.8333 65.25C46.8333 62.2585 44.4082 59.8334 41.4167 59.8334C38.4251 59.8334 36 62.2585 36 65.25C36 68.2416 38.4251 70.6667 41.4167 70.6667Z" fill="#000024"/>
<path d="M30.584 75C32.3789 75 33.834 73.5449 33.834 71.75C33.834 69.9551 32.3789 68.5 30.584 68.5C28.7891 68.5 27.334 69.9551 27.334 71.75C27.334 73.5449 28.7891 75 30.584 75Z" fill="#000024"/>
</svg>
