<svg width="97" height="97" viewBox="0 0 97 97" fill="none" xmlns="http://www.w3.org/2000/svg">
<circle opacity="0.12" cx="48.5" cy="48.5" r="48.5" fill="#000024"/>
<path d="M43.6478 37.4035C46.3525 37.4035 48.5973 39.4283 48.9622 42.053H53.5968V36.6786C53.5968 36.2636 53.9317 35.9286 54.3467 35.9286C56.4815 35.9286 58.2163 34.1788 58.2163 32.029C58.2163 29.8792 56.4815 28.1294 54.3467 28.1294C53.9317 28.1294 53.5968 27.7944 53.5968 27.3795V22H33.6987V42.053H38.3333C38.6982 39.4283 40.943 37.4035 43.6478 37.4035Z" fill="#000024"/>
<path d="M74.9952 22H55.0972V26.6795C57.7019 27.0495 59.7167 29.3043 59.7167 32.029C59.7167 34.7537 57.7069 37.0085 55.0972 37.3785V42.058H60.4316C60.8466 42.058 61.1816 42.393 61.1816 42.808C61.1816 44.9577 62.9164 46.7076 65.0462 46.7076C67.176 46.7076 68.9158 44.9577 68.9158 42.808C68.9158 42.393 69.2508 42.058 69.6657 42.058H75.0002V22H74.9952Z" fill="#000024"/>
<path d="M74.9946 63.6059V43.5529H70.3601C69.9951 46.1776 67.7504 48.2024 65.0456 48.2024C62.3409 48.2024 60.0961 46.1776 59.7311 43.5529H55.0966V48.9274C55.0966 49.3423 54.7616 49.6773 54.3467 49.6773C52.2119 49.6773 50.4771 51.4271 50.4771 53.5769C50.4771 55.7267 52.2119 57.4765 54.3467 57.4765C54.7616 57.4765 55.0966 57.8115 55.0966 58.2264V63.6009H74.9946V63.6059Z" fill="#000024"/>
<path d="M42.898 70.5352C40.2933 70.1653 38.2785 67.9105 38.2785 65.1858C38.2785 62.461 40.2883 60.2062 42.898 59.8363V55.1567H37.5636C37.1486 55.1567 36.8136 54.8218 36.8136 54.4068C36.8136 52.257 35.0788 50.5072 32.949 50.5072C30.8192 50.5072 29.0794 52.257 29.0794 54.4068C29.0794 54.8218 28.7444 55.1567 28.3295 55.1567H23V75.2098H42.898V70.5302V70.5352Z" fill="#000024"/>
</svg>
