<svg width="97" height="97" viewBox="0 0 97 97" fill="none" xmlns="http://www.w3.org/2000/svg">
<circle opacity="0.12" cx="48.5" cy="48.5" r="48.5" fill="#000024"/>
<path d="M75 73.8444C75 74.48 74.48 75 73.8444 75H70.3778H59.9778H54.2H43.8H38.0222H27.6222H24.1556C23.52 75 23 74.48 23 73.8444C23 73.2089 23.52 72.6889 24.1556 72.6889H26.4667V44.9556C26.4667 44.32 26.9867 43.8 27.6222 43.8H38.0222C38.6578 43.8 39.1778 44.32 39.1778 44.9556V72.6889H42.6444V49.5778C42.6444 48.9422 43.1644 48.4222 43.8 48.4222H54.2C54.8356 48.4222 55.3556 48.9422 55.3556 49.5778V72.6889H58.8222V36.8667C58.8222 36.2311 59.3422 35.7111 59.9778 35.7111H70.3778C71.0133 35.7111 71.5333 36.2311 71.5333 36.8667V72.6889H73.8444C74.48 72.6889 75 73.2089 75 73.8444ZM32.8222 40.3333C46.9431 40.3333 59.3422 30.8636 64.0222 26.7844V31.0889C64.0222 31.7244 64.5422 32.2444 65.1778 32.2444C65.8133 32.2444 66.3333 31.7244 66.3333 31.0889V24.1556C66.3333 24.0804 66.3276 24.0053 66.3102 23.9302C66.3044 23.8956 66.2929 23.8667 66.2813 23.832C66.2698 23.7916 66.2582 23.7511 66.2467 23.7164C66.2293 23.676 66.2062 23.6413 66.1889 23.6067C66.1716 23.5778 66.16 23.5489 66.1427 23.52C66.056 23.3929 65.9462 23.2831 65.8249 23.2022C65.796 23.1849 65.7671 23.1733 65.7382 23.156C65.7036 23.1329 65.6631 23.1156 65.6227 23.0982C65.5822 23.0809 65.5476 23.0751 65.5071 23.0636C65.4724 23.052 65.4436 23.0404 65.4089 23.0347C65.328 23.0058 65.2529 23 65.1778 23H58.2444C57.6089 23 57.0889 23.52 57.0889 24.1556C57.0889 24.7911 57.6089 25.3111 58.2444 25.3111H62.1676C57.4529 29.3151 45.7182 38.0222 32.8222 38.0222C32.1867 38.0222 31.6667 38.5422 31.6667 39.1778C31.6667 39.8133 32.1867 40.3333 32.8222 40.3333Z" fill="#000024"/>
</svg>
