<svg width="97" height="97" viewBox="0 0 97 97" fill="none" xmlns="http://www.w3.org/2000/svg">
<circle opacity="0.12" cx="48.5" cy="48.5" r="48.5" fill="#000024"/>
<path d="M63.3229 27.483C61.0678 25.4504 58.4046 23.9229 55.5115 23.0027C52.6183 22.0826 49.562 21.791 46.5471 22.1475C41.7343 22.7111 37.252 24.8809 33.8244 28.3062C30.3969 31.7316 28.2242 36.2124 27.6574 41.0249C27.2146 44.7612 27.7689 48.5482 29.264 52.0009C30.7591 55.4535 33.1417 58.4488 36.1696 60.6822C37.0018 61.317 37.675 62.1367 38.136 63.0763C38.5971 64.016 38.8333 65.05 38.8262 66.0967C38.83 66.8122 39.0601 67.5082 39.4834 68.0851C39.9068 68.662 40.5018 69.0902 41.1833 69.3084C41.4069 70.6211 42.0869 71.8126 43.1035 72.6727C44.12 73.5328 45.4077 74.0062 46.7393 74.0093H51.2611C52.5927 74.0062 53.8804 73.5327 54.897 72.6726C55.9136 71.8124 56.5937 70.6208 56.8172 69.308C57.5027 69.0857 58.1 68.6518 58.5235 68.0687C58.947 67.4857 59.1748 66.7834 59.1742 66.0628C59.1698 65.023 59.4076 63.9965 59.8687 63.0645C60.3298 62.1326 61.0015 61.3208 61.8307 60.6934C64.5226 58.7069 66.7085 56.114 68.211 53.1248C69.7135 50.1357 70.4904 46.8345 70.4786 43.489C70.4765 40.4682 69.8382 37.4817 68.6053 34.724C67.3724 31.9662 65.5726 29.499 63.3229 27.483ZM56.9133 66.0967C56.9124 66.3962 56.793 66.6832 56.5812 66.895C56.3694 67.1068 56.0824 67.2262 55.7828 67.227H42.2175C42.0666 67.2256 41.9175 67.1943 41.7787 67.1348C41.64 67.0754 41.5145 66.9891 41.4093 66.8808C41.3042 66.7725 41.2216 66.6445 41.1663 66.504C41.111 66.3636 41.084 66.2136 41.0871 66.0628C41.0893 65.6958 41.0628 65.3292 41.0079 64.9663H56.9924C56.9376 65.3406 56.9111 65.7184 56.9133 66.0967ZM60.0783 42.3587C60.0776 42.8393 60.0448 43.3192 59.9801 43.7954L61.36 45.1719C61.6654 45.477 61.8616 45.8742 61.9183 46.3022C61.975 46.7301 61.8889 47.1647 61.6735 47.5387L59.8233 50.7433C59.6069 51.1168 59.2735 51.4086 58.8745 51.5735C58.4756 51.7384 58.0335 51.7673 57.6165 51.6556L55.7321 51.1478C54.9693 51.7318 54.1336 52.2137 53.246 52.5812L52.7425 54.4689C52.6314 54.886 52.3857 55.2546 52.0436 55.5176C51.7014 55.7806 51.2819 55.9232 50.8504 55.9232H47.15C46.718 55.923 46.2982 55.7801 45.9558 55.5167C45.6134 55.2533 45.3677 54.8841 45.2567 54.4667L44.7543 52.5812C43.8668 52.2137 43.031 51.7318 42.2683 51.1478L40.3838 51.6556C39.9669 51.7671 39.5248 51.7381 39.1259 51.5732C38.7271 51.4083 38.3936 51.1167 38.1771 50.7433L36.3269 47.5387C36.1114 47.1647 36.0254 46.7301 36.0821 46.3022C36.1387 45.8742 36.335 45.477 36.6404 45.1719L38.0203 43.7954C37.8893 42.8421 37.8893 41.8753 38.0203 40.922L36.6404 39.5455C36.335 39.2404 36.1387 38.8432 36.0821 38.4153C36.0254 37.9874 36.1114 37.5527 36.3269 37.1787L38.1771 33.9741C38.3936 33.6007 38.727 33.309 39.1259 33.1441C39.5248 32.9792 39.9669 32.9503 40.3838 33.0618L42.2683 33.5696C43.031 32.9856 43.8668 32.5037 44.7543 32.1362L45.2578 30.2485C45.3689 29.8315 45.6146 29.4628 45.9568 29.1998C46.299 28.9368 46.7184 28.7942 47.15 28.7942H50.8504C51.2824 28.7944 51.7022 28.9373 52.0445 29.2007C52.3869 29.4641 52.6327 29.8333 52.7436 30.2507L53.246 32.1362C54.1336 32.5037 54.9693 32.9856 55.7321 33.5696L57.6165 33.0618C58.0335 32.9503 58.4756 32.9792 58.8745 33.1441C59.2733 33.309 59.6068 33.6007 59.8233 33.9741L61.6735 37.1787C61.8889 37.5527 61.975 37.9874 61.9183 38.4153C61.8616 38.8432 61.6654 39.2404 61.36 39.5455L59.9801 40.922C60.0448 41.3982 60.0777 41.8782 60.0783 42.3587Z" fill="#000024"/>
<path d="M49.0001 45.7499C50.873 45.7499 52.3913 44.2316 52.3913 42.3587C52.3913 40.4858 50.873 38.9675 49.0001 38.9675C47.1272 38.9675 45.6089 40.4858 45.6089 42.3587C45.6089 44.2316 47.1272 45.7499 49.0001 45.7499Z" fill="#000024"/>
<path d="M59.5995 38.1088L57.981 35.3049L56.1672 35.7939C55.8722 35.8732 55.5626 35.8819 55.2636 35.8192C54.9645 35.7564 54.6845 35.6241 54.4462 35.4329C53.7864 34.9142 53.0555 34.493 52.2759 34.1822C51.9929 34.0696 51.7398 33.893 51.5364 33.6662C51.333 33.4395 51.1848 33.1687 51.1035 32.8752L50.6188 31.055H47.3821L46.8973 32.8725C46.8166 33.1664 46.6688 33.4376 46.4656 33.6647C46.2623 33.8919 46.0092 34.0688 45.7261 34.1817C44.9455 34.4927 44.2139 34.9145 43.5535 35.4341C43.3152 35.6245 43.0355 35.7563 42.7369 35.8188C42.4384 35.8813 42.1293 35.8728 41.8346 35.7939L40.0198 35.3049L38.4014 38.1088L39.7261 39.4306C39.9424 39.6484 40.1048 39.9136 40.2005 40.2052C40.2961 40.4968 40.3223 40.8067 40.277 41.1103C40.1519 41.9375 40.1519 42.7789 40.277 43.6062C40.3224 43.9101 40.2961 44.2205 40.2002 44.5124C40.1044 44.8044 39.9417 45.07 39.725 45.2879L38.4014 46.6087L40.0198 49.4126L41.8336 48.9236C42.1287 48.8442 42.4383 48.8355 42.7373 48.8982C43.0363 48.9609 43.3163 49.0933 43.5546 49.2845C44.2144 49.8033 44.9453 50.2245 45.7249 50.5352C46.008 50.6479 46.261 50.8245 46.4644 51.0512C46.6678 51.278 46.816 51.5487 46.8973 51.8422L47.3821 53.6625H50.6188L51.1035 51.845C51.1842 51.5511 51.332 51.2799 51.5353 51.0527C51.7385 50.8256 51.9916 50.6486 52.2747 50.5358C53.0553 50.2247 53.787 49.8029 54.4473 49.2834C54.6853 49.0924 54.965 48.9602 55.2637 48.8977C55.5624 48.8352 55.8716 48.844 56.1662 48.9236L57.981 49.4126L59.5995 46.6087L58.2747 45.2868C58.0584 45.0691 57.896 44.8038 57.8004 44.5122C57.7047 44.2206 57.6785 43.9107 57.7238 43.6072C57.8489 42.78 57.8489 41.9386 57.7238 41.1114C57.6784 40.8074 57.7047 40.4971 57.8006 40.2051C57.8964 39.913 58.0591 39.6475 58.2758 39.4295L59.5995 38.1088ZM49.0004 48.0106C47.8826 48.0105 46.7899 47.679 45.8605 47.0579C44.9311 46.4368 44.2067 45.5541 43.779 44.5214C43.3513 43.4886 43.2394 42.3522 43.4575 41.2559C43.6756 40.1596 44.2139 39.1525 45.0044 38.3621C45.7948 37.5717 46.8019 37.0335 47.8982 36.8154C48.9946 36.5974 50.131 36.7093 51.1637 37.1371C52.1964 37.5649 53.0791 38.2893 53.7001 39.2187C54.3212 40.1482 54.6526 41.2409 54.6526 42.3587C54.6508 43.8572 54.0547 45.2938 52.9951 46.3533C51.9355 47.4129 50.4989 48.0089 49.0004 48.0106Z" fill="#000024"/>
<path d="M69.3479 28.7942C69.4963 28.7943 69.6434 28.7652 69.7805 28.7083C69.9177 28.6515 70.0423 28.5681 70.1471 28.463L74.6689 23.9415C74.8803 23.7294 74.999 23.4421 74.9988 23.1426C74.9986 22.8431 74.8795 22.556 74.6677 22.3442C74.456 22.1324 74.1688 22.0134 73.8693 22.0132C73.5698 22.0129 73.2825 22.1316 73.0704 22.3431L68.5486 26.8646C68.3906 27.0227 68.283 27.2241 68.2395 27.4433C68.1959 27.6626 68.2183 27.8898 68.3038 28.0963C68.3894 28.3028 68.5342 28.4793 68.72 28.6036C68.9059 28.7278 69.1243 28.7941 69.3479 28.7942Z" fill="#000024"/>
<path d="M27.8527 28.463C28.0646 28.6749 28.3521 28.794 28.6519 28.794C28.9516 28.794 29.2391 28.675 29.4511 28.463C29.663 28.2511 29.7821 27.9636 29.7821 27.6638C29.7821 27.3641 29.6631 27.0766 29.4511 26.8646L24.9293 22.3431C24.7173 22.1316 24.4299 22.0129 24.1304 22.0132C23.831 22.0134 23.5438 22.1324 23.332 22.3442C23.1203 22.556 23.0012 22.8431 23.001 23.1426C23.0008 23.4421 23.1194 23.7294 23.3309 23.9415L27.8527 28.463Z" fill="#000024"/>
<path d="M27.8528 59.6456L23.331 64.1671C23.2261 64.2721 23.1428 64.3967 23.086 64.5338C23.0292 64.6709 23 64.8179 23 64.9663C23 65.1148 23.0292 65.2617 23.086 65.3989C23.1429 65.536 23.2261 65.6606 23.3311 65.7655C23.436 65.8705 23.5606 65.9537 23.6977 66.0105C23.8349 66.0673 23.9818 66.0965 24.1303 66.0965C24.2787 66.0965 24.4257 66.0673 24.5628 66.0105C24.6999 65.9537 24.8245 65.8704 24.9295 65.7655L29.4512 61.244C29.6627 61.032 29.7814 60.7446 29.7811 60.4451C29.7809 60.1457 29.6619 59.8585 29.4501 59.6467C29.2383 59.435 28.9512 59.3159 28.6517 59.3157C28.3522 59.3155 28.0649 59.4341 27.8528 59.6456Z" fill="#000024"/>
<path d="M70.1471 59.6456C69.935 59.4341 69.6477 59.3155 69.3482 59.3157C69.0487 59.3159 68.7616 59.435 68.5498 59.6467C68.338 59.8585 68.219 60.1457 68.2188 60.4451C68.2185 60.7446 68.3372 61.032 68.5487 61.244L73.0704 65.7655C73.1754 65.8704 73.3 65.9537 73.4371 66.0105C73.5742 66.0673 73.7212 66.0965 73.8696 66.0965C74.018 66.0965 74.165 66.0673 74.3021 66.0105C74.4393 65.9537 74.5639 65.8705 74.6688 65.7655C74.7738 65.6606 74.857 65.536 74.9138 65.3989C74.9707 65.2617 74.9999 65.1148 74.9999 64.9663C74.9999 64.8179 74.9707 64.6709 74.9139 64.5338C74.8571 64.3967 74.7738 64.2721 74.6689 64.1671L70.1471 59.6456Z" fill="#000024"/>
</svg>
