<svg width="87" height="87" viewBox="0 0 87 87" fill="none" xmlns="http://www.w3.org/2000/svg">
<circle opacity="0.2" cx="43.5" cy="43.5" r="43.5" fill="#E59F5E"/>
<path fill-rule="evenodd" clip-rule="evenodd" d="M52.6718 23.721C52.6718 21.6698 50.8521 20.0123 48.6153 20C34.2428 20 27.0563 20 27.0563 20C24.8196 20.0123 23 21.6698 23 23.721C23 50.1702 23 63.396 23 63.396C23 65.4465 24.8196 67.1051 27.0563 67.1051C41.4291 67.1051 48.6153 67.1051 48.6153 67.1051C50.8521 67.1051 52.6718 65.4465 52.6718 63.396V57.1014H50.2494V60.8801H25.4223V27.3025H50.2493V37.7573L52.6717 37.5721V23.721H52.6718ZM39.4465 32.3681C39.4465 32.0437 39.7136 31.7769 40.0379 31.7769C40.3622 31.7769 40.6293 32.0437 40.6293 32.3681V54.7492H43.051V49.1863H46.1345V54.7492H49.6578L50.9444 53.9963V54.7492H52.6716V44.5726H55.7543V54.7491H57.4932V54.1577L60.5762 52.3722V52.9984L57.551 54.749H59.8927L60.5763 54.3553V54.749H62.9986C63.3235 54.749 63.5896 55.0038 63.5896 55.3282C63.5896 55.6526 63.3235 55.9195 62.9986 55.9195H40.038C39.7136 55.9195 39.4466 55.6525 39.4466 55.3282V32.3681H39.4465ZM50.9446 52.6394V52.0133L47.8612 53.7986V54.4249L50.9446 52.6394ZM50.9446 50.6575V50.0314L47.8612 51.8169V52.4432L50.9446 50.6575ZM50.9446 48.6754V48.0493L47.8612 49.8337V50.4601L50.9446 48.6754ZM50.2144 47.1224H47.8611V48.4782L50.2144 47.1224ZM60.5764 51.0175V50.3913L57.4934 52.1769V52.8009L60.5764 51.0175ZM60.5764 49.0359V48.4096L57.4934 50.1826V50.8202L60.5764 49.0359ZM60.5764 47.0528V46.4265L57.4934 48.2119V48.8383L60.5764 47.0528ZM60.5764 45.0699V44.4448L57.4934 46.2303V46.8554L60.5764 45.0699ZM60.5764 43.089V42.4627L57.4934 44.2361V44.8745L60.5764 43.089ZM59.8463 41.5235H57.4934V42.8917L59.8463 41.5235ZM42.0198 44.4561C41.7651 44.6535 41.3936 44.6076 41.1972 44.3516C40.9996 44.098 41.0463 43.7264 41.3015 43.5302L46.8184 39.288C46.9228 39.2072 47.0272 39.1713 47.1428 39.1602L53.6911 38.6845L58.2352 34.5577C57.9109 34.5476 57.6555 34.268 57.6673 33.9438C57.6786 33.6194 57.9568 33.3648 58.2812 33.3882L59.7187 33.4444C60.0319 33.4569 60.2866 33.7238 60.2748 34.0369L60.2518 35.4734C60.2518 35.7977 59.9847 36.0647 59.6605 36.0534C59.3361 36.0534 59.0691 35.7878 59.0808 35.4622V35.3812L54.3521 39.6582C54.2591 39.7626 54.1204 39.832 53.9695 39.8433L47.3975 40.3182L42.0198 44.4561ZM31.1828 23.0716C31.1828 22.7473 31.4495 22.4811 31.7738 22.4811C32.0982 22.4811 32.3533 22.7472 32.3533 23.0716C32.3533 23.4081 32.4925 23.7101 32.7124 23.9412C32.9441 24.1624 33.2461 24.3001 33.5817 24.3001H42.0895C42.4255 24.3001 42.7269 24.1624 42.9592 23.9412L42.9817 23.9188C43.1904 23.6976 43.3183 23.3966 43.3183 23.0717C43.3183 22.7474 43.573 22.4812 43.8975 22.4812C44.2219 22.4812 44.4888 22.7473 44.4888 23.0717C44.4888 23.7211 44.2341 24.3001 43.8166 24.7291C43.8053 24.7415 43.7937 24.7525 43.7819 24.7637C43.3526 25.2049 42.7505 25.4709 42.0895 25.4709H33.5817C32.9211 25.4709 32.3185 25.2049 31.8899 24.7637C31.4495 24.3352 31.1828 23.7334 31.1828 23.0716ZM37.0473 64.5768C36.7229 64.5768 36.4568 64.3232 36.4568 63.9978C36.4568 63.6734 36.7229 63.4073 37.0473 63.4073H38.624C38.9482 63.4073 39.2152 63.6734 39.2152 63.9978C39.2152 64.3231 38.9482 64.5768 38.624 64.5768H37.0473Z" fill="#E59F5E"/>
</svg>
