<svg width="87" height="87" viewBox="0 0 87 87" fill="none" xmlns="http://www.w3.org/2000/svg">
<circle opacity="0.2" cx="43.5" cy="43.5" r="43.5" fill="#E59F5E"/>
<g clip-path="url(#clip0_316_1662)">
<path fill-rule="evenodd" clip-rule="evenodd" d="M33.4301 35.8299C34.0576 35.3648 34.8334 35.0897 35.6741 35.0897C36.5257 35.0897 37.3108 35.3725 37.9429 35.8485C38.4529 36.2348 39.1808 36.1328 39.5656 35.6213C39.9504 35.1113 39.8499 34.3834 39.3384 33.9986C38.3184 33.2289 37.0496 32.7715 35.6741 32.7715C34.3172 32.7715 33.0639 33.2166 32.05 33.9661C31.5369 34.3478 31.4288 35.0742 31.8089 35.5888C32.1907 36.1019 32.917 36.2101 33.4301 35.8299Z" fill="#E59F5E"/>
<path fill-rule="evenodd" clip-rule="evenodd" d="M30.481 33.1142C31.9276 32.0417 33.7188 31.408 35.6568 31.408C37.621 31.408 39.4339 32.0587 40.8928 33.159C41.4028 33.5438 42.1307 33.4418 42.5155 32.9318C42.9003 32.4203 42.7983 31.6939 42.2883 31.3076C40.4415 29.9151 38.145 29.0898 35.6568 29.0898C33.201 29.0898 30.9339 29.8935 29.101 31.2504C28.5863 31.6321 28.4781 32.3585 28.8599 32.8716C29.24 33.3862 29.9664 33.4944 30.481 33.1142Z" fill="#E59F5E"/>
<path d="M35.6906 39.303C36.4314 39.303 37.032 38.7024 37.032 37.9616C37.032 37.2207 36.4314 36.6201 35.6906 36.6201C34.9497 36.6201 34.3491 37.2207 34.3491 37.9616C34.3491 38.7024 34.9497 39.303 35.6906 39.303Z" fill="#E59F5E"/>
<path fill-rule="evenodd" clip-rule="evenodd" d="M27.5635 21.1124C27.5635 21.1124 29.3624 19.9316 28.7226 19.9316H42.6317C41.9903 19.9316 43.7907 20.0445 43.7907 21.1124V22.6362C43.7907 23.5588 43.4229 24.4428 42.7723 25.095C42.1201 25.7472 41.2346 26.1135 40.3135 26.1135C37.7403 26.1135 33.6124 26.1135 31.0407 26.1135C30.1181 26.1135 29.2341 25.7472 28.5819 25.095C27.9297 24.4428 27.5635 23.5588 27.5635 22.6362V21.1124Z" fill="#E59F5E"/>
<path fill-rule="evenodd" clip-rule="evenodd" d="M46.1089 26.4999V30.3635C46.1089 31.0034 46.6282 31.5226 47.268 31.5226C47.9063 31.5226 48.4271 31.0034 48.4271 30.3635V26.4999C48.4271 25.8601 47.9063 25.3408 47.268 25.3408C46.6282 25.3408 46.1089 25.8601 46.1089 26.4999Z" fill="#E59F5E"/>
<path fill-rule="evenodd" clip-rule="evenodd" d="M46.1089 34.2275V36.5456C46.1089 37.1855 46.6282 37.7047 47.268 37.7047C47.9063 37.7047 48.4271 37.1855 48.4271 36.5456V34.2275C48.4271 33.5876 47.9063 33.0684 47.268 33.0684C46.6282 33.0684 46.1089 33.5876 46.1089 34.2275Z" fill="#E59F5E"/>
<path fill-rule="evenodd" clip-rule="evenodd" d="M31.0636 59.3406H40.2884C40.9283 59.3406 41.4475 58.8214 41.4475 58.1816C41.4475 57.5417 40.9283 57.0225 40.2884 57.0225H31.0636C30.4238 57.0225 29.9045 57.5417 29.9045 58.1816C29.9045 58.8214 30.4238 59.3406 31.0636 59.3406Z" fill="#E59F5E"/>
<path fill-rule="evenodd" clip-rule="evenodd" d="M66.5476 43.812H37.187V52.7726C37.187 55.1201 39.0895 57.0226 41.437 57.0226C46.6406 57.0226 57.0925 57.0226 62.296 57.0226C64.6436 57.0226 66.546 55.1201 66.5476 52.7726V43.812ZM37.187 41.4938H66.5476V41.1816C66.546 38.8341 64.6436 36.9316 62.296 36.9316C57.0925 36.9316 46.6406 36.9316 41.437 36.9316C39.0895 36.9316 37.187 38.8341 37.187 41.1816V41.4938Z" fill="#E59F5E"/>
<path fill-rule="evenodd" clip-rule="evenodd" d="M39.5051 43.812V52.7725C39.5051 53.8389 40.369 54.7044 41.4369 54.7044H46.9712C47.6125 54.7044 48.1303 55.2236 48.1303 55.8635V61.2725C48.1303 63.6201 46.2278 65.5225 43.8803 65.5225H27.5C25.1525 65.5225 23.25 63.6201 23.25 61.2725V24.1816C23.25 21.8341 25.1525 19.9316 27.5 19.9316H43.8803C46.2278 19.9316 48.1303 21.8341 48.1303 24.1816V38.0907C48.1303 38.7305 47.6125 39.2498 46.9712 39.2498H41.4369C40.369 39.2498 39.5051 40.1153 39.5051 41.1816V41.4938H37.1869V41.1816C37.1869 38.8341 39.0894 36.9316 41.4369 36.9316H45.8121V24.1816C45.8121 23.1153 44.9482 22.2498 43.8803 22.2498H27.5C26.4336 22.2498 25.5682 23.1153 25.5682 24.1816C25.5682 32.1469 25.5682 53.3073 25.5682 61.2725C25.5682 62.3389 26.4336 63.2044 27.5 63.2044H43.8803C44.9482 63.2044 45.8121 62.3389 45.8121 61.2725V57.0225H41.4369C39.0894 57.0225 37.1869 55.1201 37.1869 52.7725V43.812H39.5051Z" fill="#E59F5E"/>
</g>
<defs>
<clipPath id="clip0_316_1662">
<rect width="49.4545" height="51" fill="white" transform="translate(19 18)"/>
</clipPath>
</defs>
</svg>
