<svg width="87" height="87" viewBox="0 0 87 87" fill="none" xmlns="http://www.w3.org/2000/svg">
<circle opacity="0.2" cx="43.5" cy="43.5" r="43.5" fill="#E59F5E"/>
<path d="M31.0049 61.4746H27.6001C27.3053 61.4744 27.0212 61.364 26.8036 61.1651C26.586 60.9661 26.4507 60.693 26.4241 60.3994H16.1201V61.385C16.1201 61.6999 16.2452 62.0018 16.4678 62.2245C16.6905 62.4471 16.9925 62.5722 17.3073 62.5722H41.9473C42.2622 62.5722 42.5642 62.4471 42.7868 62.2245C43.0094 62.0018 43.1345 61.6999 43.1345 61.385V60.3994H32.1809C32.1544 60.693 32.019 60.9661 31.8014 61.1651C31.5838 61.364 31.2997 61.4744 31.0049 61.4746Z" fill="#E59F5E"/>
<path d="M68.7601 39.9875H65.2825V25.8195C65.2825 25.3561 65.0984 24.9117 64.7708 24.584C64.4431 24.2563 63.9987 24.0723 63.5353 24.0723H21.7201C21.2567 24.0723 20.8123 24.2563 20.4847 24.584C20.157 24.9117 19.9729 25.3561 19.9729 25.8195V39.9875H17.8729C17.6435 39.9867 17.4161 40.0312 17.2039 40.1183C16.9916 40.2054 16.7986 40.3335 16.6358 40.4952C16.4731 40.657 16.3437 40.8492 16.2553 41.0609C16.1668 41.2726 16.1209 41.4996 16.1201 41.7291V59.1731H43.1625V56.6363H49.5185C49.8334 56.6363 50.1353 56.5112 50.358 56.2885C50.5806 56.0659 50.7057 55.7639 50.7057 55.4491V54.1723C50.7057 53.8574 50.5806 53.5554 50.358 53.3328C50.1353 53.1101 49.8334 52.9851 49.5185 52.9851H43.1625V50.6331H54.6593V61.2731C54.6593 61.7186 54.8363 62.1459 55.1514 62.461C55.4664 62.7761 55.8938 62.9531 56.3393 62.9531H68.7601C69.2057 62.9531 69.633 62.7761 69.9481 62.461C70.2631 62.1459 70.4401 61.7186 70.4401 61.2731V41.6675C70.4401 41.2219 70.2631 40.7946 69.9481 40.4795C69.633 40.1645 69.2057 39.9875 68.7601 39.9875ZM69.3201 41.6675V59.2067H55.7793V41.6675C55.7793 41.5189 55.8383 41.3765 55.9433 41.2715C56.0484 41.1665 56.1908 41.1075 56.3393 41.1075H68.7601C68.9086 41.1075 69.0511 41.1665 69.1561 41.2715C69.2611 41.3765 69.3201 41.5189 69.3201 41.6675ZM61.5921 60.5899C61.5921 60.4271 61.6404 60.2679 61.7309 60.1325C61.8213 59.9972 61.9499 59.8916 62.1003 59.8293C62.2507 59.767 62.4162 59.7507 62.5759 59.7825C62.7356 59.8142 62.8823 59.8927 62.9974 60.0078C63.1125 60.1229 63.1909 60.2696 63.2227 60.4293C63.2545 60.589 63.2382 60.7545 63.1759 60.9049C63.1136 61.0553 63.008 61.1839 62.8727 61.2743C62.7373 61.3648 62.5781 61.4131 62.4153 61.4131C62.197 61.4131 61.9876 61.3263 61.8332 61.172C61.6788 61.0176 61.5921 60.8082 61.5921 60.5899ZM42.0481 58.0531H17.2401V41.7291C17.2401 41.5627 17.3062 41.4032 17.4238 41.2856C17.5414 41.1679 17.701 41.1019 17.8673 41.1019H41.3873C41.5537 41.1019 41.7132 41.1679 41.8308 41.2856C41.9484 41.4032 42.0145 41.5627 42.0145 41.7291V58.0531H42.0481ZM43.1681 49.5131V41.7291C43.1681 41.2657 42.984 40.8213 42.6564 40.4936C42.3287 40.1659 41.8843 39.9819 41.4209 39.9819H21.0761V25.8195C21.0768 25.7361 21.0941 25.6538 21.127 25.5772C21.1599 25.5007 21.2078 25.4314 21.2677 25.3736C21.3277 25.3157 21.3986 25.2704 21.4762 25.2402C21.5539 25.21 21.6368 25.1956 21.7201 25.1979H63.5353C63.7017 25.1979 63.8612 25.2639 63.9788 25.3816C64.0964 25.4992 64.1625 25.6587 64.1625 25.8251V39.9875H56.3225C55.877 39.9875 55.4496 40.1645 55.1346 40.4795C54.8195 40.7946 54.6425 41.2219 54.6425 41.6675V49.5075H43.1625L43.1681 49.5131Z" fill="#E59F5E"/>
<path d="M24.8281 49.8104L28.2385 51.4792V50.7624L25.7353 49.6032V49.592L28.2385 48.4216V47.6992L24.8281 49.368V49.8104Z" fill="#E59F5E"/>
<path d="M28.4958 51.7641H29.1006L30.7694 46.6289H30.159L28.4958 51.7641Z" fill="#E59F5E"/>
<path d="M31.0552 48.4048L33.7824 49.5808V49.5976L31.0552 50.7736V51.4792L34.4656 49.9V49.2784L31.0552 47.6992V48.4048Z" fill="#E59F5E"/>
<path d="M34.8406 34.561L40.3454 37.2602V36.101L36.3078 34.2306V34.2082L40.3454 32.3267V31.1562L34.8406 33.8498V34.561Z" fill="#E59F5E"/>
<path d="M40.76 37.7133H41.7344L44.428 29.4365H43.4424L40.76 37.7133Z" fill="#E59F5E"/>
<path d="M44.8872 32.293L49.2888 34.197V34.2194L44.8872 36.1235V37.2602L50.392 34.7123V33.7043L44.8872 31.1562V32.293Z" fill="#E59F5E"/>
<path d="M61.6312 51.0747L60.0016 50.3187V50.3075L61.6312 49.5515V49.0811L59.4136 50.1675V50.4531L61.6312 51.5395V51.0747Z" fill="#E59F5E"/>
<path d="M63.2775 48.3877H62.8799L61.7991 51.7253H62.1911L63.2775 48.3877Z" fill="#E59F5E"/>
<path d="M65.6856 50.1059L63.468 49.0811V49.5403L65.2432 50.3075V50.3131L63.468 51.0803V51.5395L65.6856 50.5147V50.1059Z" fill="#E59F5E"/>
</svg>
