<svg width="87" height="87" viewBox="0 0 87 87" fill="none" xmlns="http://www.w3.org/2000/svg">
<circle opacity="0.2" cx="43.5" cy="43.5" r="43.5" fill="#E59F5E"/>
<path d="M58.3017 69.1432H38.6191C37.6032 69.1432 36.7144 68.3178 36.7144 67.2384V20.6352C36.7144 19.5559 37.6032 18.7305 38.6191 18.7305H58.3651C59.4445 18.7305 60.2699 19.5559 60.2699 20.6352V67.3019C60.2064 68.3178 59.381 69.1432 58.3017 69.1432ZM59.5715 66.6035V21.2702C59.5715 20.1908 58.7461 19.3654 57.6667 19.3654H39.254C38.2382 19.3654 37.3493 20.1908 37.3493 21.2702V66.667C37.3493 67.7463 38.2382 68.5717 39.254 68.5717H57.7302C58.7461 68.5082 59.5715 67.6828 59.5715 66.6035Z" fill="#E59F5E"/>
<path d="M60.2699 24.4443H36.7144V25.0793H60.2699V24.4443Z" fill="#E59F5E"/>
<path d="M60.2699 60H36.7144V60.6349H60.2699V60Z" fill="#E59F5E"/>
<path d="M48.7142 22.7307H44.6507C44.3968 22.7307 44.2063 22.5402 44.2063 22.2862C44.2063 22.0323 44.3968 21.8418 44.6507 21.8418H48.7142C48.9682 21.8418 49.1587 22.0323 49.1587 22.2862C49.1587 22.5402 48.9682 22.7307 48.7142 22.7307Z" fill="#E59F5E"/>
<path d="M50.9364 22.9847C51.2871 22.9847 51.5714 22.7004 51.5714 22.3498C51.5714 21.9991 51.2871 21.7148 50.9364 21.7148C50.5858 21.7148 50.3015 21.9991 50.3015 22.3498C50.3015 22.7004 50.5858 22.9847 50.9364 22.9847Z" fill="#E59F5E"/>
<path d="M48.4604 66.2225C49.4072 66.2225 50.1747 65.455 50.1747 64.5082C50.1747 63.5615 49.4072 62.7939 48.4604 62.7939C47.5136 62.7939 46.7461 63.5615 46.7461 64.5082C46.7461 65.455 47.5136 66.2225 48.4604 66.2225Z" fill="#E59F5E"/>
<path d="M43.9522 32.0636H40.2697C39.9522 32.0636 39.6348 31.7462 39.6348 31.4287V28.0002C39.6348 27.6827 39.9522 27.3652 40.2697 27.3652H43.9522C44.3332 27.3652 44.5871 27.6827 44.5871 28.0002V31.4287C44.5871 31.8097 44.2697 32.0636 43.9522 32.0636Z" fill="#E59F5E"/>
<path d="M50.3016 32.0636H46.6191C46.3016 32.0636 45.9841 31.7462 45.9841 31.4287V28.0002C45.9841 27.6827 46.3016 27.3652 46.6191 27.3652H50.3016C50.6825 27.3652 50.9365 27.6827 50.9365 28.0002V31.4287C50.9365 31.8097 50.6191 32.0636 50.3016 32.0636Z" fill="#E59F5E"/>
<path d="M56.651 32.0636H52.9684C52.5875 32.0636 52.3335 31.7462 52.3335 31.4287V28.0002C52.3335 27.6827 52.5875 27.3652 52.9684 27.3652H56.651C56.9684 27.3652 57.2859 27.6827 57.2859 28.0002V31.4287C57.2859 31.8097 56.9684 32.0636 56.651 32.0636Z" fill="#E59F5E"/>
<path d="M43.9522 38.4133H40.2697C39.9522 38.4133 39.6348 38.1593 39.6348 37.7783V34.3498C39.6348 34.0323 39.9522 33.7148 40.2697 33.7148H43.9522C44.3332 33.7148 44.5871 34.0323 44.5871 34.3498V37.7783C44.5871 38.1593 44.2697 38.4133 43.9522 38.4133Z" fill="#E59F5E"/>
<path d="M50.3016 38.4133H46.6191C46.3016 38.4133 45.9841 38.1593 45.9841 37.7783V34.3498C45.9841 34.0323 46.3016 33.7148 46.6191 33.7148H50.3016C50.6825 33.7148 50.9365 34.0323 50.9365 34.3498V37.7783C50.9365 38.1593 50.6191 38.4133 50.3016 38.4133Z" fill="#E59F5E"/>
<path d="M56.651 38.4133H52.9684C52.5875 38.4133 52.3335 38.1593 52.3335 37.7783V34.3498C52.3335 34.0323 52.5875 33.7148 52.9684 33.7148H56.651C56.9684 33.7148 57.2859 34.0323 57.2859 34.3498V37.7783C57.2859 38.1593 56.9684 38.4133 56.651 38.4133Z" fill="#E59F5E"/>
<path d="M43.9522 44.7619H40.2697C39.9522 44.7619 39.6348 44.5079 39.6348 44.127V40.6984C39.6348 40.3809 39.9522 40.0635 40.2697 40.0635H43.9522C44.3332 40.0635 44.5871 40.3809 44.5871 40.6984V44.127C44.5871 44.5079 44.2697 44.7619 43.9522 44.7619Z" fill="#E59F5E"/>
<path d="M50.3016 44.7619H46.6191C46.3016 44.7619 45.9841 44.5079 45.9841 44.127V40.6984C45.9841 40.3809 46.3016 40.0635 46.6191 40.0635H50.3016C50.6825 40.0635 50.9365 40.3809 50.9365 40.6984V44.127C50.9365 44.5079 50.6191 44.7619 50.3016 44.7619Z" fill="#E59F5E"/>
<path d="M56.651 44.7619H52.9684C52.5875 44.7619 52.3335 44.5079 52.3335 44.127V40.6984C52.3335 40.3809 52.5875 40.0635 52.9684 40.0635H56.651C56.9684 40.0635 57.2859 40.3809 57.2859 40.6984V44.127C57.2859 44.5079 56.9684 44.7619 56.651 44.7619Z" fill="#E59F5E"/>
<path d="M43.9522 51.1115H40.2697C39.9522 51.1115 39.6348 50.8575 39.6348 50.4766V47.048C39.6348 46.7305 39.9522 46.4131 40.2697 46.4131H43.9522C44.3332 46.4131 44.5871 46.7305 44.5871 47.048V50.4766C44.5871 50.8575 44.2697 51.1115 43.9522 51.1115Z" fill="#E59F5E"/>
<path d="M35.3174 25.0793H25.4762C25.2857 25.0793 25.1587 24.9523 25.1587 24.7618C25.1587 24.5713 25.2857 24.4443 25.4762 24.4443H35.3174C35.5079 24.4443 35.6349 24.5713 35.6349 24.7618C35.6349 24.9523 35.4444 25.0793 35.3174 25.0793Z" fill="#E59F5E"/>
<path d="M35.3172 26.3498H27.3807C27.1902 26.3498 27.0632 26.2228 27.0632 26.0323C27.0632 25.8418 27.1902 25.7148 27.3807 25.7148H35.3172C35.5077 25.7148 35.6347 25.8418 35.6347 26.0323C35.6347 26.2228 35.4442 26.3498 35.3172 26.3498Z" fill="#E59F5E"/>
<path d="M35.3174 27.6193H28.6507C28.4602 27.6193 28.3333 27.4923 28.3333 27.3018C28.3333 27.1114 28.4602 26.9844 28.6507 26.9844H35.3174C35.5079 26.9844 35.6348 27.1114 35.6348 27.3018C35.6348 27.4923 35.4444 27.6193 35.3174 27.6193Z" fill="#E59F5E"/>
<path d="M47.0636 54.0309C47.2541 54.0309 47.5081 54.0944 47.762 54.0944C47.889 54.0944 48.016 54.2214 48.016 54.3484C48.0795 54.6024 48.2065 54.9198 48.3335 55.1738C48.397 55.3008 48.3969 55.4278 48.27 55.5548C48.0795 55.7452 47.9525 55.9357 47.8255 56.0627C47.635 56.2532 47.635 56.5706 47.889 56.7611L48.6509 57.523C48.8414 57.7135 49.1589 57.7135 49.3493 57.5865C49.5398 57.4595 49.6668 57.269 49.8573 57.1421C49.9843 57.0786 50.1112 57.0151 50.2382 57.0786C50.4922 57.2055 50.7462 57.3325 51.0636 57.396C51.1906 57.4595 51.2541 57.523 51.3176 57.65C51.3176 57.904 51.3811 58.1579 51.3811 58.3484C51.3811 58.6024 51.635 58.7928 51.889 58.7928H52.8414C53.0954 58.7928 53.3493 58.6024 53.3493 58.3484C53.3493 58.1579 53.4128 57.904 53.4128 57.65C53.4128 57.523 53.5398 57.396 53.6668 57.396C53.9208 57.3325 54.2382 57.2055 54.4922 57.0786C54.6192 57.0151 54.7462 57.0151 54.8731 57.1421C55.0636 57.3325 55.2541 57.4595 55.3811 57.5865C55.5716 57.777 55.889 57.777 56.0795 57.523L56.8414 56.7611C57.0319 56.5706 57.0319 56.2532 56.9049 56.0627C56.7779 55.8722 56.5874 55.7452 56.4604 55.5548C56.3969 55.4278 56.3335 55.3008 56.3969 55.1738C56.5239 54.9198 56.6509 54.6659 56.7144 54.3484C56.7779 54.2214 56.8414 54.1579 56.9684 54.0944C57.2223 54.0944 57.4763 54.0309 57.6668 54.0309C57.9208 54.0309 58.1112 53.777 58.1112 53.523V52.5071C58.1112 52.2532 57.9208 51.9992 57.6668 51.9992C57.4763 51.9992 57.2223 51.9357 56.9684 51.9357C56.8414 51.9357 56.7144 51.8087 56.7144 51.6817C56.6509 51.4278 56.5239 51.1103 56.3969 50.8563C56.3335 50.7294 56.3335 50.6024 56.4604 50.4754C56.6509 50.2849 56.7779 50.0944 56.9049 49.9674C57.0954 49.777 57.0954 49.4595 56.8414 49.269L56.016 48.5706C55.8255 48.3801 55.5081 48.3801 55.3176 48.5071C55.1271 48.6341 55.0001 48.8246 54.8096 48.9516C54.6827 49.0151 54.5557 49.0786 54.4287 49.0151C54.1747 48.8881 53.9208 48.7611 53.6033 48.6976C53.4763 48.6341 53.4128 48.5706 53.3493 48.4436C53.3493 48.1897 53.2858 47.9357 53.2858 47.7452C53.2858 47.4913 53.0319 47.3008 52.7779 47.3008H51.762C51.5081 47.3008 51.2541 47.4913 51.2541 47.7452C51.2541 47.9357 51.1906 48.1897 51.1906 48.4436C51.1906 48.5706 51.0636 48.6976 50.9366 48.6976C50.6827 48.7611 50.3652 48.8881 50.1112 49.0151C49.9843 49.0786 49.8573 49.0786 49.7303 48.9516C49.5398 48.7611 49.3493 48.6341 49.2223 48.5071C49.0319 48.3167 48.7144 48.3167 48.5239 48.5706L47.762 49.3325C47.5716 49.523 47.5716 49.8405 47.6985 50.0309C47.8255 50.2214 48.016 50.3484 48.143 50.5389C48.2065 50.6659 48.27 50.7928 48.2065 50.9198C48.0795 51.1738 47.9525 51.4278 47.889 51.7452C47.8255 51.8722 47.762 51.9357 47.635 51.9992C47.3811 51.9992 47.1271 52.0627 46.9366 52.0627C46.6827 52.0627 46.4922 52.3167 46.4922 52.5706V53.5865C46.5557 53.777 46.8096 54.0309 47.0636 54.0309ZM46.8096 52.4436C46.8096 52.2532 46.9366 52.1262 47.1271 52.1262C47.3176 52.1262 47.5716 52.0627 47.8255 52.0627C48.016 52.0627 48.2065 51.8722 48.27 51.6817C48.3335 51.4278 48.4604 51.1738 48.5874 50.9198C48.7144 50.7294 48.6509 50.4754 48.5239 50.3484C48.3335 50.1579 48.2065 49.9674 48.0795 49.8405C47.9525 49.7135 47.9525 49.523 48.0795 49.396L48.8414 48.6341C48.9684 48.5071 49.1589 48.5071 49.2858 48.6341C49.4763 48.7611 49.6033 48.9516 49.7938 49.0786C49.9843 49.2055 50.1747 49.269 50.3652 49.1421C50.6192 49.0151 50.8731 48.8881 51.1271 48.8246C51.3176 48.7611 51.5081 48.5706 51.5081 48.3801C51.5081 48.1262 51.5716 47.8722 51.5716 47.6817C51.5716 47.4913 51.6985 47.3643 51.889 47.3643H52.9049C53.0954 47.3643 53.2223 47.4913 53.2223 47.6817C53.2223 47.8722 53.2858 48.1262 53.2858 48.3801C53.2858 48.5706 53.4763 48.7611 53.6668 48.8246C53.9208 48.8881 54.1747 49.0151 54.4287 49.1421C54.6192 49.269 54.8731 49.2055 55.0001 49.0786C55.1906 48.8881 55.3811 48.7611 55.5081 48.6341C55.635 48.5071 55.8255 48.5071 55.9525 48.6341L56.7144 49.396C56.8414 49.523 56.8414 49.7135 56.7144 49.8405C56.5874 50.0309 56.3969 50.1579 56.27 50.3484C56.143 50.5389 56.0795 50.7294 56.2065 50.9198C56.3335 51.1738 56.4604 51.4278 56.5239 51.6817C56.5874 51.8722 56.7779 52.0627 56.9684 52.0627C57.2223 52.0627 57.4763 52.1262 57.6668 52.1262C57.8573 52.1262 57.9842 52.2532 57.9842 52.4436V53.4595C57.9842 53.65 57.8573 53.777 57.6668 53.777C57.4763 53.777 57.2223 53.8405 56.9684 53.8405C56.7779 53.8405 56.5874 54.0309 56.5239 54.2214C56.4604 54.4754 56.3335 54.7294 56.2065 54.9833C56.0795 55.1738 56.143 55.4278 56.27 55.5548C56.4604 55.7452 56.5874 55.9357 56.7144 56.0627C56.8414 56.1897 56.8414 56.3801 56.7144 56.5071L55.889 57.269C55.762 57.396 55.5716 57.396 55.4446 57.269C55.2541 57.1421 55.1271 56.9516 54.9366 56.8246C54.7462 56.6976 54.5557 56.6341 54.3652 56.7611C54.1112 56.8881 53.8573 57.0151 53.6033 57.0786C53.4128 57.142 53.2223 57.3325 53.2223 57.523C53.2223 57.777 53.1589 58.0309 53.1589 58.2214C53.1589 58.4119 53.0319 58.5389 52.8414 58.5389H51.8255C51.635 58.5389 51.5081 58.4119 51.5081 58.2214C51.5081 58.0309 51.4446 57.777 51.4446 57.523C51.4446 57.3325 51.2541 57.142 51.0636 57.0786C50.8096 57.0151 50.5557 56.8881 50.3017 56.7611C50.2382 56.6976 50.1112 56.6976 50.0477 56.6976C49.9208 56.6976 49.7938 56.7611 49.7303 56.8246C49.5398 57.0151 49.3493 57.1421 49.2223 57.269C49.0954 57.396 48.9049 57.396 48.7779 57.269L48.016 56.5071C47.889 56.3801 47.889 56.1897 48.016 56.0627C48.143 55.8722 48.3335 55.7452 48.4604 55.5548C48.5874 55.3643 48.6509 55.1738 48.5239 54.9833C48.3969 54.7294 48.27 54.4754 48.2065 54.2214C48.143 54.0309 47.9525 53.8405 47.762 53.8405C47.5081 53.8405 47.2541 53.777 47.0636 53.777C46.8731 53.777 46.7462 53.65 46.7462 53.4595L46.8096 52.4436Z" stroke="#E59F5E" stroke-width="0.31746" stroke-miterlimit="10"/>
<path d="M52.3332 55.936C53.9205 55.936 55.2539 54.6027 55.2539 53.0154C55.2539 51.4281 53.9205 50.0947 52.3332 50.0947C50.7459 50.0947 49.4126 51.4281 49.4126 53.0154C49.4126 54.6027 50.7459 55.936 52.3332 55.936ZM52.3332 50.2852C53.857 50.2852 55.0634 51.4916 55.0634 53.0154C55.0634 54.5392 53.857 55.7455 52.3332 55.7455C50.8094 55.7455 49.6031 54.5392 49.6031 53.0154C49.6031 51.4916 50.8094 50.2852 52.3332 50.2852Z" stroke="#E59F5E" stroke-width="0.31746" stroke-miterlimit="10"/>
</svg>
