<svg width="87" height="87" viewBox="0 0 87 87" fill="none" xmlns="http://www.w3.org/2000/svg">
<circle opacity="0.2" cx="43.5" cy="43.5" r="43.5" fill="#E59F5E"/>
<path d="M46.2553 58.0752C44.1222 58.0752 42.3933 59.8045 42.3933 61.9375C42.3933 64.0692 44.1222 65.7981 46.2553 65.7981C48.3869 65.7981 50.1177 64.0692 50.1177 61.9375C50.1177 59.8045 48.3869 58.0752 46.2553 58.0752Z" fill="#E59F5E"/>
<path d="M28.8773 65.7985C31.01 65.7985 32.7389 64.0696 32.7389 61.9368C32.7389 59.8041 31.01 58.0752 28.8773 58.0752C26.7445 58.0752 25.0156 59.8041 25.0156 61.9368C25.0156 64.0696 26.7445 65.7985 28.8773 65.7985Z" fill="#E59F5E"/>
<path d="M66.6728 35.0968H57.3183L57.3197 35.0957H18L18.7975 39.1531H31.5555C32.3541 39.1531 33.0023 39.8014 33.0023 40.6011C33.0023 41.4015 32.3541 42.0494 31.5555 42.0494H19.367L20.8912 49.797C21.7077 53.9396 25.7272 57.2987 29.8713 57.2987H40.0254H45.4485C48.1861 57.2987 50.8661 55.826 52.6058 53.6346H41.8127C41.0145 53.6346 40.3662 52.986 40.3662 52.1874C40.3662 51.3874 41.0145 50.7391 41.8127 50.7391H54.1747C54.275 50.4288 54.3648 50.117 54.4274 49.797L56.7488 37.9934H66.6728C67.4725 37.9934 68.1211 37.3451 68.1211 36.5451C68.1211 35.7447 67.4728 35.0968 66.6728 35.0968ZM45.4585 47.8425H29.8169C29.0168 47.8425 28.3686 47.1939 28.3686 46.3942C28.3686 45.5942 29.0168 44.9456 29.8169 44.9456H45.4581C46.2582 44.9456 46.9061 45.5942 46.9061 46.3942C46.9061 47.1943 46.2585 47.8425 45.4585 47.8425Z" fill="#E59F5E"/>
<path d="M36.8798 34.0307C37.1998 30.6895 38.952 27.775 41.5096 25.8818C39.3207 22.9254 35.8195 21 31.8598 21C25.2272 21 19.8518 26.3769 19.8518 33.008C19.8518 33.3538 19.8747 33.6928 19.9019 34.0303L36.8798 34.0307Z" fill="#E59F5E"/>
<path d="M43.8162 34.0305H57.2399C56.6908 29.6058 52.9248 26.1787 48.3505 26.1787C46.2586 26.1787 44.3381 26.9018 42.8111 28.1031C41.0034 29.527 39.7602 31.629 39.4617 34.0305H43.8162Z" fill="#E59F5E"/>
</svg>
