<svg width="87" height="87" viewBox="0 0 87 87" fill="none" xmlns="http://www.w3.org/2000/svg">
<circle opacity="0.2" cx="43.5" cy="43.5" r="43.5" fill="#E59F5E"/>
<path d="M55.0944 20H30.8329C29.3075 20 28 21.2349 28 22.8329V63.6562C28 65.1816 29.2349 66.4891 30.8329 66.4891H55.1671C56.6925 66.4891 58 65.2542 58 63.6562V22.8329C57.9274 21.2349 56.6925 20 55.0944 20ZM42.4552 23.414C42.7458 23.1235 43.1816 23.1235 43.4722 23.414C43.7627 23.632 43.7627 24.1404 43.4722 24.431C43.1816 24.7215 42.7458 24.7215 42.4552 24.431C42.1646 24.1404 42.1646 23.7046 42.4552 23.414ZM39.2591 23.414C39.5496 23.1235 39.9855 23.1235 40.276 23.414C40.5666 23.7046 40.5666 24.1404 40.276 24.431C39.9855 24.7215 39.5496 24.7215 39.2591 24.431C39.0412 24.1404 38.9685 23.7046 39.2591 23.414ZM45.1429 62.7845H40.7845C40.4213 62.7845 40.0581 62.4939 40.0581 62.0581C40.0581 61.6949 40.3487 61.3317 40.7845 61.3317H45.1429C45.5061 61.3317 45.8692 61.6223 45.8692 62.0581C45.8692 62.4939 45.5061 62.7845 45.1429 62.7845ZM56.5472 57.6998H29.3801V27.7724H56.4746V57.6998H56.5472Z" fill="#E59F5E"/>
<path d="M40.4213 45.9319C40.7845 46.0772 41.2203 45.8593 41.293 45.4961L45.9419 32.0578C46.0871 31.6946 45.8692 31.2588 45.506 31.1861C45.1428 31.0409 44.707 31.2588 44.6344 31.622L39.9854 45.0602C39.8402 45.3508 40.0581 45.7866 40.4213 45.9319Z" fill="#E59F5E"/>
<path d="M46.5231 35.4722L51.8984 38.5231L46.5231 41.5739C46.1599 41.7919 46.0872 42.2277 46.2325 42.5183C46.4504 42.8814 46.8863 42.9541 47.1768 42.8088L53.6417 39.1768C53.8596 39.0316 54.0049 38.8137 54.0049 38.5957C54.0049 38.3052 53.8596 38.0873 53.6417 38.0146L47.1768 34.3827C46.8136 34.1647 46.3778 34.31 46.2325 34.6732C46.0872 34.8911 46.1599 35.2543 46.5231 35.4722Z" fill="#E59F5E"/>
<path d="M32.213 39.1043L38.6779 42.7363C39.0411 42.9542 39.477 42.8089 39.6222 42.4457C39.8402 42.0826 39.6949 41.6467 39.3317 41.5014L33.9564 38.4506L39.3317 35.3997C39.6949 35.1818 39.7675 34.746 39.6222 34.4554C39.4043 34.0922 38.9685 34.0196 38.6779 34.1649L32.213 37.7968C31.9951 37.9421 31.8499 38.16 31.8499 38.378C31.8499 38.7411 31.9951 39.0317 32.213 39.1043Z" fill="#E59F5E"/>
<path d="M32.8668 49.2731H41.7288C42.092 49.2731 42.4551 48.9825 42.4551 48.5467C42.4551 48.1109 42.1646 47.8203 41.7288 47.8203H32.8668C32.5036 47.8203 32.1404 48.1109 32.1404 48.5467C32.1404 48.9825 32.5036 49.2731 32.8668 49.2731Z" fill="#E59F5E"/>
<path d="M48.1936 51.5977H32.8668C32.5036 51.5977 32.1404 51.8882 32.1404 52.324C32.1404 52.6872 32.4309 53.0504 32.8668 53.0504H48.1936C48.5568 53.0504 48.92 52.7599 48.92 52.324C48.92 51.9609 48.6295 51.5977 48.1936 51.5977Z" fill="#E59F5E"/>
</svg>
