<svg width="239" height="239" viewBox="0 0 239 239" fill="none" xmlns="http://www.w3.org/2000/svg">
<path fill-rule="evenodd" clip-rule="evenodd" d="M119.005 16.6605C62.4816 16.6605 16.6607 62.4815 16.6607 119.004C16.6607 175.528 62.4816 221.348 119.005 221.348C175.528 221.348 221.349 175.528 221.349 119.004C221.349 62.4815 175.528 16.6605 119.005 16.6605ZM0.793388 119.004C0.793388 53.7182 53.7184 0.793213 119.005 0.793213C184.291 0.793213 237.216 53.7182 237.216 119.004C237.216 184.291 184.291 237.216 119.005 237.216C53.7184 237.216 0.793388 184.291 0.793388 119.004Z" fill="#F9C4C5"/>
<path fill-rule="evenodd" clip-rule="evenodd" d="M119.005 42.8417C76.9411 42.8417 42.8418 76.941 42.8418 119.005C42.8418 161.068 76.9411 195.168 119.005 195.168C161.068 195.168 195.168 161.068 195.168 119.005C195.168 76.941 161.068 42.8417 119.005 42.8417ZM26.9745 119.005C26.9745 68.1777 68.1778 26.9744 119.005 26.9744C169.832 26.9744 211.035 68.1777 211.035 119.005C211.035 169.832 169.832 211.035 119.005 211.035C68.1778 211.035 26.9745 169.832 26.9745 119.005Z" fill="#F9C4C5"/>
<path fill-rule="evenodd" clip-rule="evenodd" d="M119.005 72.1961C93.1531 72.1961 72.1962 93.153 72.1962 119.005C72.1962 144.856 93.1531 165.813 119.005 165.813C144.856 165.813 165.813 144.856 165.813 119.005C165.813 93.153 144.856 72.1961 119.005 72.1961ZM56.3289 119.005C56.3289 84.3898 84.3898 56.3289 119.005 56.3289C153.62 56.3289 181.68 84.3898 181.68 119.005C181.68 153.62 153.62 181.68 119.005 181.68C84.3898 181.68 56.3289 153.62 56.3289 119.005Z" fill="#F9C4C5"/>
<path fill-rule="evenodd" clip-rule="evenodd" d="M119.005 101.55C109.365 101.55 101.551 109.365 101.551 119.004C101.551 128.644 109.365 136.458 119.005 136.458C128.644 136.458 136.459 128.644 136.459 119.004C136.459 109.365 128.644 101.55 119.005 101.55ZM85.6834 119.004C85.6834 100.602 100.602 85.6831 119.005 85.6831C137.408 85.6831 152.326 100.602 152.326 119.004C152.326 137.407 137.408 152.326 119.005 152.326C100.602 152.326 85.6834 137.407 85.6834 119.004Z" fill="#F9C4C5"/>
</svg>
