<svg width="170" height="170" viewBox="0 0 170 170" fill="none" xmlns="http://www.w3.org/2000/svg">
<path fill-rule="evenodd" clip-rule="evenodd" d="M84.5046 11.8305C44.3679 11.8305 11.8306 44.3678 11.8306 84.5045C11.8306 124.641 44.3679 157.178 84.5046 157.178C124.641 157.178 157.179 124.641 157.179 84.5045C157.179 44.3678 124.641 11.8305 84.5046 11.8305ZM0.563354 84.5045C0.563354 38.145 38.1451 0.563232 84.5046 0.563232C130.864 0.563232 168.446 38.145 168.446 84.5045C168.446 130.864 130.864 168.446 84.5046 168.446C38.1451 168.446 0.563354 130.864 0.563354 84.5045Z" fill="#000024" fill-opacity="0.23"/>
<path fill-rule="evenodd" clip-rule="evenodd" d="M84.5047 30.4216C54.6355 30.4216 30.4217 54.6354 30.4217 84.5046C30.4217 114.374 54.6355 138.588 84.5047 138.588C114.374 138.588 138.588 114.374 138.588 84.5046C138.588 54.6354 114.374 30.4216 84.5047 30.4216ZM19.1544 84.5046C19.1544 48.4126 48.4128 19.1543 84.5047 19.1543C120.597 19.1543 149.855 48.4126 149.855 84.5046C149.855 120.597 120.597 149.855 84.5047 149.855C48.4128 149.855 19.1544 120.597 19.1544 84.5046Z" fill="#000024" fill-opacity="0.23"/>
<path fill-rule="evenodd" clip-rule="evenodd" d="M84.5046 51.2661C66.1475 51.2661 51.2662 66.1474 51.2662 84.5046C51.2662 102.862 66.1475 117.743 84.5046 117.743C102.862 117.743 117.743 102.862 117.743 84.5046C117.743 66.1474 102.862 51.2661 84.5046 51.2661ZM39.9989 84.5046C39.9989 59.9247 59.9248 39.9988 84.5046 39.9988C109.085 39.9988 129.01 59.9247 129.01 84.5046C129.01 109.084 109.085 129.01 84.5046 129.01C59.9248 129.01 39.9989 109.084 39.9989 84.5046Z" fill="#000024" fill-opacity="0.23"/>
<path fill-rule="evenodd" clip-rule="evenodd" d="M84.5047 72.1105C77.6596 72.1105 72.1106 77.6595 72.1106 84.5046C72.1106 91.3496 77.6596 96.8986 84.5047 96.8986C91.3497 96.8986 96.8987 91.3496 96.8987 84.5046C96.8987 77.6595 91.3497 72.1105 84.5047 72.1105ZM60.8434 84.5046C60.8434 71.4368 71.4369 60.8433 84.5047 60.8433C97.5724 60.8433 108.166 71.4368 108.166 84.5046C108.166 97.5723 97.5724 108.166 84.5047 108.166C71.4369 108.166 60.8434 97.5723 60.8434 84.5046Z" fill="#000024" fill-opacity="0.23"/>
</svg>
