<svg width="48" height="27" viewBox="0 0 48 27" fill="none" xmlns="http://www.w3.org/2000/svg">
<path d="M42.5833 1.30005C43.9388 3.12034 45.7105 5.61078 46.7245 7.61178M46.7245 7.61178C46.8414 7.84229 44.9293 8.16918 44.8398 8.1768C42.8785 8.34586 40.9552 8.25305 38.997 8.1164M46.7245 7.61178C37.3674 -0.422313 24.9091 -0.945646 18.3186 4.87447C17.6654 5.45131 16.9551 6.07983 16.3037 6.76886M16.3037 6.76886C15.2664 7.86615 14.3788 9.11688 14.11 10.5567C13.8619 11.8855 14.0985 13.721 15.1816 14.6304C17.2049 16.3292 20.2301 14.5611 20.3588 12.018C20.4719 9.78328 18.4845 7.14868 16.3037 6.76886ZM16.3037 6.76886C16.2577 6.76085 16.2116 6.75384 16.1655 6.74786C5.02504 5.30454 -0.599824 17.2547 1.68829 26.1579" stroke="#470912" stroke-opacity="0.55" stroke-width="1.56443" stroke-miterlimit="1.5" stroke-linecap="round" stroke-linejoin="round"/>
</svg>
