<svg width="88" height="87" viewBox="0 0 88 87" fill="none" xmlns="http://www.w3.org/2000/svg">
<circle cx="44" cy="43.5" r="43.5" fill="#F5F2BE"/>
<path d="M61.6875 53.8125C60.4636 53.8189 59.2641 54.1556 58.2156 54.787L51.662 48.2317C52.5958 46.8303 53.094 45.184 53.094 43.5C53.094 41.816 52.5958 40.1697 51.662 38.7683L56.0397 34.3906C57.1471 34.924 58.4076 35.0483 59.5978 34.7413C60.788 34.4344 61.8312 33.7161 62.5425 32.7136C63.2539 31.7112 63.5874 30.4893 63.4841 29.2645C63.3809 28.0397 62.8474 26.8909 61.9782 26.0218C61.1091 25.1526 59.9603 24.6192 58.7355 24.5159C57.5107 24.4126 56.2888 24.7461 55.2864 25.4575C54.2839 26.1688 53.5656 27.212 53.2587 28.4022C52.9517 29.5925 53.076 30.8529 53.6094 31.9603L49.2317 36.338C47.8303 35.4042 46.184 34.906 44.5 34.906C42.816 34.906 41.1697 35.4042 39.7683 36.338L33.213 29.7827C33.8442 28.7347 34.1808 27.5358 34.1875 26.3125C34.1875 24.9528 33.7843 23.6235 33.0289 22.493C32.2734 21.3624 31.1997 20.4812 29.9435 19.9608C28.6872 19.4405 27.3049 19.3043 25.9713 19.5696C24.6376 19.8349 23.4126 20.4897 22.4511 21.4511C21.4897 22.4126 20.8349 23.6376 20.5696 24.9713C20.3043 26.3049 20.4405 27.6872 20.9608 28.9435C21.4812 30.1997 22.3624 31.2734 23.493 32.0289C24.6235 32.7843 25.9528 33.1875 27.3125 33.1875C28.5364 33.1811 29.7359 32.8445 30.7844 32.213L37.338 38.7683C36.4042 40.1697 35.906 41.816 35.906 43.5C35.906 45.184 36.4042 46.8303 37.338 48.2317L30.7827 54.787C29.7347 54.1559 28.5358 53.8193 27.3125 53.8125C25.9528 53.8125 24.6235 54.2157 23.493 54.9711C22.3624 55.7266 21.4812 56.8003 20.9608 58.0566C20.4405 59.3128 20.3043 60.6951 20.5696 62.0287C20.8349 63.3624 21.4897 64.5874 22.4511 65.5489C23.4126 66.5103 24.6376 67.1651 25.9713 67.4304C27.3049 67.6957 28.6872 67.5595 29.9435 67.0392C31.1997 66.5188 32.2734 65.6376 33.0289 64.507C33.7843 63.3765 34.1875 62.0472 34.1875 60.6875C34.1811 59.4636 33.8445 58.2641 33.213 57.2156L39.7683 50.662C40.6823 51.2713 41.7054 51.6985 42.7813 51.9202V57.5663C41.6345 57.9717 40.668 58.7695 40.0525 59.8186C39.4371 60.8678 39.2123 62.1007 39.418 63.2995C39.6237 64.4984 40.2466 65.5859 41.1765 66.3699C42.1065 67.1539 43.2837 67.5839 44.5 67.5839C45.7163 67.5839 46.8935 67.1539 47.8235 66.3699C48.7534 65.5859 49.3763 64.4984 49.582 63.2995C49.7877 62.1007 49.5629 60.8678 48.9475 59.8186C48.332 58.7695 47.3655 57.9717 46.2188 57.5663V51.9202C47.2946 51.6985 48.3177 51.2713 49.2317 50.662L55.787 57.2174C55.1558 58.2653 54.8192 59.4642 54.8125 60.6875C54.8125 62.0472 55.2157 63.3765 55.9711 64.507C56.7266 65.6376 57.8003 66.5188 59.0566 67.0392C60.3128 67.5595 61.6951 67.6957 63.0287 67.4304C64.3624 67.1651 65.5874 66.5103 66.5489 65.5489C67.5103 64.5874 68.1651 63.3624 68.4304 62.0287C68.6957 60.6951 68.5595 59.3128 68.0392 58.0566C67.5188 56.8003 66.6376 55.7266 65.507 54.9711C64.3765 54.2157 63.0472 53.8125 61.6875 53.8125ZM44.5 38.3438C45.5198 38.3438 46.5167 38.6462 47.3647 39.2127C48.2126 39.7793 48.8735 40.5846 49.2638 41.5268C49.654 42.469 49.7561 43.5057 49.5572 44.5059C49.3582 45.5062 48.8671 46.4249 48.146 47.146C47.4249 47.8671 46.5062 48.3582 45.5059 48.5572C44.5057 48.7561 43.469 48.654 42.5268 48.2638C41.5846 47.8735 40.7793 47.2126 40.2127 46.3647C39.6462 45.5167 39.3438 44.5198 39.3438 43.5C39.3451 42.1329 39.8888 40.8222 40.8555 39.8555C41.8222 38.8888 43.1329 38.3451 44.5 38.3438ZM23.875 26.3125C23.875 25.6326 24.0766 24.968 24.4543 24.4027C24.832 23.8374 25.3689 23.3968 25.997 23.1367C26.6251 22.8765 27.3163 22.8084 27.9831 22.9411C28.6499 23.0737 29.2624 23.4011 29.7432 23.8818C30.2239 24.3626 30.5513 24.9751 30.684 25.6419C30.8166 26.3087 30.7485 26.9999 30.4883 27.628C30.2282 28.2561 29.7876 28.793 29.2223 29.1707C28.657 29.5484 27.9924 29.75 27.3125 29.75C26.4011 29.7491 25.5273 29.3866 24.8828 28.7422C24.2384 28.0977 23.8759 27.2239 23.875 26.3125ZM27.3125 64.125C26.6326 64.125 25.968 63.9234 25.4027 63.5457C24.8374 63.168 24.3968 62.6311 24.1367 62.003C23.8765 61.3749 23.8084 60.6837 23.9411 60.0169C24.0737 59.3501 24.4011 58.7376 24.8818 58.2568C25.3626 57.7761 25.9751 57.4487 26.6419 57.3161C27.3087 57.1834 27.9999 57.2515 28.628 57.5117C29.2561 57.7718 29.793 58.2124 30.1707 58.7777C30.5484 59.343 30.75 60.0076 30.75 60.6875C30.7491 61.5989 30.3866 62.4727 29.7422 63.1172C29.0977 63.7616 28.2239 64.1241 27.3125 64.125ZM61.6875 64.125C61.0076 64.125 60.343 63.9234 59.7777 63.5457C59.2124 63.168 58.7718 62.6311 58.5117 62.003C58.2515 61.3749 58.1834 60.6837 58.3161 60.0169C58.4487 59.3501 58.7761 58.7376 59.2568 58.2568C59.7376 57.7761 60.3501 57.4487 61.0169 57.3161C61.6837 57.1834 62.3749 57.2515 63.003 57.5117C63.6311 57.7718 64.168 58.2124 64.5457 58.7777C64.9234 59.343 65.125 60.0076 65.125 60.6875C65.1236 61.5988 64.761 62.4723 64.1167 63.1167C63.4723 63.761 62.5988 64.1236 61.6875 64.125Z" fill="url(#paint0_linear_238_3222)"/>
<defs>
<linearGradient id="paint0_linear_238_3222" x1="44.5" y1="19.4375" x2="44.5" y2="67.5839" gradientUnits="userSpaceOnUse">
<stop stop-color="#B0A700"/>
<stop offset="1" stop-color="#63B000"/>
</linearGradient>
</defs>
</svg>
