<svg width="88" height="87" viewBox="0 0 88 87" fill="none" xmlns="http://www.w3.org/2000/svg">
<circle cx="44" cy="43.5" r="43.5" fill="#FDD5D6"/>
<g clip-path="url(#clip0_238_3208)">
<path d="M55 20H34C32.8065 20 31.6619 20.4741 30.818 21.318C29.9741 22.1619 29.5 23.3065 29.5 24.5V63.5C29.5 64.6935 29.9741 65.8381 30.818 66.682C31.6619 67.5259 32.8065 68 34 68H55C56.1935 68 57.3381 67.5259 58.182 66.682C59.0259 65.8381 59.5 64.6935 59.5 63.5V24.5C59.5 23.3065 59.0259 22.1619 58.182 21.318C57.3381 20.4741 56.1935 20 55 20ZM44.5 65C44.1066 64.9997 43.717 64.922 43.3536 64.7712C42.9902 64.6204 42.6601 64.3995 42.3821 64.1211C41.8206 63.5588 41.5055 62.7966 41.506 62.002C41.5063 61.6086 41.584 61.219 41.7348 60.8556C41.8856 60.4922 42.1065 60.1621 42.3849 59.8841C42.9472 59.3226 43.7094 59.0075 44.504 59.008C45.2986 59.0085 46.0604 59.3247 46.6219 59.8869C47.1834 60.4492 47.4985 61.2114 47.498 62.006C47.4975 62.8006 47.1813 63.5624 46.6191 64.1239C46.0568 64.6854 45.2946 65.0005 44.5 65Z" fill="url(#paint0_linear_238_3208)"/>
</g>
<defs>
<linearGradient id="paint0_linear_238_3208" x1="44.5" y1="20" x2="44.5" y2="68" gradientUnits="userSpaceOnUse">
<stop stop-color="#EB2127"/>
<stop offset="1" stop-color="#EB5B21"/>
</linearGradient>
<clipPath id="clip0_238_3208">
<rect width="30" height="48" fill="white" transform="translate(29.5 20)"/>
</clipPath>
</defs>
</svg>
