<svg width="88" height="87" viewBox="0 0 88 87" fill="none" xmlns="http://www.w3.org/2000/svg">
<circle cx="44" cy="43.5" r="43.5" fill="#D1E9FF"/>
<path fill-rule="evenodd" clip-rule="evenodd" d="M43.9998 31.9166C43.9998 25.243 49.4095 19.8333 56.0832 19.8333C62.7568 19.8333 68.1665 25.243 68.1665 31.9166C68.1665 38.5902 62.7568 43.9999 56.0832 43.9999H45.2082C44.8877 43.9999 44.5804 43.8726 44.3538 43.646C44.1271 43.4194 43.9998 43.1121 43.9998 42.7916V31.9166ZM24.3983 25.8749C23.5085 25.8765 22.6556 26.2307 22.0264 26.8599C21.3973 27.489 21.0431 28.3419 21.0415 29.2317C21.0415 50.0694 37.9304 66.9583 58.7681 66.9583C59.6579 66.9567 60.5107 66.6025 61.1399 65.9733C61.7691 65.3442 62.1232 64.4913 62.1248 63.6015V56.105C62.1232 55.2152 61.7691 54.3624 61.1399 53.7332C60.5107 53.104 59.6579 52.7499 58.7681 52.7483C56.2939 52.7504 53.8351 52.3584 51.4843 51.587C50.8941 51.3888 50.2603 51.3592 49.6543 51.5016C49.0482 51.644 48.4939 51.9527 48.0538 52.393L43.9588 56.488C38.7057 53.6137 34.3859 49.2947 31.5105 44.0422L35.6068 39.946C36.046 39.5098 36.3563 38.9609 36.5036 38.3597C36.6509 37.7585 36.6295 37.1283 36.4417 36.5385L36.4393 36.53L36.4369 36.5215C35.6624 34.1693 35.2695 31.7082 35.2733 29.2317C35.2717 28.3419 34.9175 27.489 34.2883 26.8599C33.6592 26.2307 32.8063 25.8765 31.9165 25.8749H24.3983ZM54.8748 37.9583V33.1249H50.0415V30.7083H54.8748V25.8749H57.2915V30.7083H62.1248V33.1249H57.2915V37.9583H54.8748Z" fill="url(#paint0_linear_238_3215)"/>
<defs>
<linearGradient id="paint0_linear_238_3215" x1="44.604" y1="19.8333" x2="44.604" y2="66.9583" gradientUnits="userSpaceOnUse">
<stop stop-color="#0083FF"/>
<stop offset="1" stop-color="#000AFF"/>
</linearGradient>
</defs>
</svg>
