<svg width="88" height="87" viewBox="0 0 88 87" fill="none" xmlns="http://www.w3.org/2000/svg">
<circle cx="44" cy="43.5" r="43.5" fill="#FFE8D2"/>
<path d="M53.6666 19.7607H34.3333C24.6666 19.7607 19.8333 24.5941 19.8333 34.2607V46.3441C19.8333 58.4274 24.6666 60.8441 34.3333 60.8441H35.5416C36.2183 60.8441 37.0883 61.2791 37.4749 61.8107L41.0999 66.6441C42.6949 68.7707 45.3049 68.7707 46.8999 66.6441L50.5249 61.8107C50.9841 61.2066 51.7091 60.8441 52.4582 60.8441H53.6666C63.3332 60.8441 68.1666 56.0107 68.1666 46.3441V34.2607C68.1666 24.5941 63.3332 19.7607 53.6666 19.7607ZM35.6141 44.4107C36.3149 45.1116 36.3149 46.2716 35.6141 46.9724C35.2516 47.3349 34.7924 47.5041 34.3333 47.5041C33.8741 47.5041 33.4149 47.3349 33.0524 46.9724L28.2191 42.1391C27.5183 41.4382 27.5183 40.2782 28.2191 39.5774L33.0524 34.7441C33.7533 34.0432 34.9132 34.0432 35.6141 34.7441C36.3149 35.4449 36.3149 36.6049 35.6141 37.3057L32.0616 40.8582L35.6141 44.4107ZM48.0841 35.9282L43.2507 47.2141C42.9607 47.8907 42.2841 48.3016 41.5833 48.3016C41.3416 48.3016 41.0999 48.2532 40.8582 48.1566C39.9399 47.7699 39.5049 46.7066 39.9158 45.7641L44.7491 34.4782C45.1358 33.5599 46.1991 33.1249 47.1416 33.5357C48.0599 33.9466 48.4707 35.0099 48.0841 35.9282ZM59.7808 42.1391L54.9474 46.9724C54.5849 47.3349 54.1258 47.5041 53.6666 47.5041C53.2074 47.5041 52.7482 47.3349 52.3857 46.9724C51.6849 46.2716 51.6849 45.1116 52.3857 44.4107L55.9383 40.8582L52.3857 37.3057C51.6849 36.6049 51.6849 35.4449 52.3857 34.7441C53.0866 34.0432 54.2466 34.0432 54.9474 34.7441L59.7808 39.5774C60.4816 40.2782 60.4816 41.4382 59.7808 42.1391Z" fill="url(#paint0_linear_238_3200)"/>
<defs>
<linearGradient id="paint0_linear_238_3200" x1="43.9999" y1="19.7607" x2="43.9999" y2="68.2391" gradientUnits="userSpaceOnUse">
<stop stop-color="#E26F0E"/>
<stop offset="1" stop-color="#E33D39"/>
</linearGradient>
</defs>
</svg>
