<svg width="88" height="87" viewBox="0 0 88 87" fill="none" xmlns="http://www.w3.org/2000/svg">
<circle cx="44" cy="43.5" r="43.5" fill="#DFDFFF"/>
<path d="M58.1684 18.9166H30.758C24.7842 18.9166 19.9167 23.7841 19.9167 29.7579V45.737V46.2287C19.9167 52.227 24.7842 57.07 30.758 57.07H40.198C41.5501 57.07 42.6563 58.1762 42.6563 59.5283V61.9129C42.6563 63.265 41.5501 64.3712 40.198 64.3712H34.2488C33.2409 64.3712 32.4051 65.207 32.4051 66.215C32.4051 67.2229 33.2163 68.0833 34.2488 68.0833H54.7759C55.7838 68.0833 56.6197 67.2475 56.6197 66.2395C56.6197 65.2316 55.7838 64.3958 54.7759 64.3958H48.8267C47.4747 64.3958 46.3684 63.2895 46.3684 61.9375V59.5529C46.3684 58.2008 47.4747 57.0945 48.8267 57.0945H58.193C64.1913 57.0945 69.0342 52.227 69.0342 46.2533V45.7616V29.7825C69.0097 23.7841 64.1422 18.9166 58.1684 18.9166Z" fill="url(#paint0_linear_238_3229)"/>
<defs>
<linearGradient id="paint0_linear_238_3229" x1="44.4755" y1="18.9166" x2="44.4755" y2="68.0833" gradientUnits="userSpaceOnUse">
<stop stop-color="#4141E8"/>
<stop offset="1" stop-color="#C30CE0"/>
</linearGradient>
</defs>
</svg>
