<svg width="88" height="87" viewBox="0 0 88 87" fill="none" xmlns="http://www.w3.org/2000/svg">
<circle cx="44" cy="43.5" r="43.5" fill="#C2F2EF"/>
<path d="M61.2548 33.6567C61.9557 35.4692 63.6957 36.7501 65.7498 36.7501C68.4082 36.7501 70.5832 34.5751 70.5832 31.9167C70.5832 29.2584 68.4082 27.0834 65.7498 27.0834C63.6957 27.0834 61.9557 28.3642 61.2548 30.1767C61.134 30.1526 61.0373 30.1042 60.9165 30.1042H51.2498V28.2917C51.2498 26.3101 49.6065 24.6667 47.6248 24.6667H40.3748C38.3932 24.6667 36.7498 26.3101 36.7498 28.2917V30.1042H27.0832C26.9623 30.1042 26.8657 30.1526 26.7448 30.1767C26.044 28.3642 24.304 27.0834 22.2498 27.0834C19.5915 27.0834 17.4165 29.2584 17.4165 31.9167C17.4165 34.5751 19.5915 36.7501 22.2498 36.7501C24.304 36.7501 26.044 35.4692 26.7448 33.6567C26.8657 33.6809 26.9623 33.7292 27.0832 33.7292H33.294C28.3398 37.4026 25.2707 43.4926 25.2707 50.0417C25.2707 50.4526 25.2948 50.8392 25.3432 51.2501H24.6665C22.6607 51.2501 21.0415 52.8692 21.0415 54.8751V59.7084C21.0415 61.7142 22.6607 63.3334 24.6665 63.3334H29.4998C30.0315 63.3334 30.5148 63.2126 30.974 62.9951C32.2307 62.4634 33.1248 61.1826 33.1248 59.7084V54.8751C33.1248 52.8692 31.5057 51.2501 29.4998 51.2501H28.944C28.944 51.1776 28.9682 51.1051 28.9682 51.0326C28.9198 50.6942 28.9198 50.3801 28.9198 50.0417C28.9198 44.0726 31.989 38.6109 36.7982 35.7834C36.8948 37.6442 38.4657 39.1667 40.3748 39.1667H47.6248C49.534 39.1667 51.1048 37.6442 51.2257 35.7834C56.0348 38.6109 59.104 44.0967 59.104 50.0417C59.104 50.3801 59.0798 50.6942 59.0557 51.0326C59.0557 51.1051 59.0798 51.1776 59.0798 51.2501H58.4998C56.494 51.2501 54.8748 52.8692 54.8748 54.8751V59.7084C54.8748 61.1826 55.769 62.4634 57.0257 62.9951C57.4848 63.2126 57.9682 63.3334 58.4998 63.3334H63.3332C65.339 63.3334 66.9582 61.7142 66.9582 59.7084V54.8751C66.9582 52.8692 65.339 51.2501 63.3332 51.2501H62.6565C62.7048 50.8392 62.729 50.4526 62.729 50.0417C62.729 43.4926 59.6598 37.4026 54.7057 33.7292H60.9165C61.0373 33.7292 61.134 33.6809 61.2548 33.6567Z" fill="url(#paint0_linear_238_3201)"/>
<defs>
<linearGradient id="paint0_linear_238_3201" x1="43.9998" y1="24.6667" x2="43.9998" y2="63.3334" gradientUnits="userSpaceOnUse">
<stop stop-color="#4C9D97"/>
<stop offset="0.4375" stop-color="#2B858B"/>
<stop offset="1" stop-color="#01667C"/>
</linearGradient>
</defs>
</svg>
