<svg width="40" height="40" viewBox="0 0 40 40" fill="none" xmlns="http://www.w3.org/2000/svg">
<circle cx="20" cy="20" r="20" fill="#000024" fill-opacity="0.1"/>
<g clip-path="url(#clip0_197_2046)">
<path d="M20 32C26.6274 32 32 26.6274 32 20C32 13.3726 26.6274 8 20 8C13.3726 8 8 13.3726 8 20C8 26.6274 13.3726 32 20 32Z" fill="#000024"/>
<path d="M11.6472 11.3843L28.6003 28.3686C26.4203 30.6087 23.3726 31.9999 20 31.9999C13.3726 31.9999 8 26.6273 8 19.9999C8 16.6193 9.39781 13.5653 11.6472 11.3843Z" fill="white" fill-opacity="0.1"/>
<path d="M19.4113 24.3309C18.595 24.7281 17.6935 24.9187 16.7863 24.8859C16.1867 24.9122 15.5885 24.81 15.0316 24.5862C14.4748 24.3624 13.9722 24.0222 13.5575 23.5884C12.724 22.654 12.2892 21.4305 12.3463 20.1796C12.3173 19.5087 12.4231 18.8388 12.6576 18.2095C12.892 17.5801 13.2503 17.0043 13.7113 16.5159C14.1615 16.0553 14.7029 15.6936 15.3008 15.4541C15.8987 15.2145 16.5401 15.1023 17.1838 15.1246C17.9441 15.0956 18.7024 15.2233 19.4113 15.4996V16.6809C18.7237 16.2987 17.9479 16.1035 17.1613 16.1146C16.6715 16.0984 16.1839 16.187 15.7312 16.3746C15.2785 16.5622 14.8711 16.8443 14.5363 17.2021C13.8341 18.0026 13.471 19.0449 13.5238 20.1084C13.4718 21.1135 13.8104 22.0997 14.4688 22.8609C14.7844 23.2003 15.1697 23.4674 15.5981 23.6441C16.0266 23.8208 16.4882 23.9029 16.9513 23.8846C17.8154 23.9061 18.6685 23.6867 19.415 23.2509L19.4113 24.3309ZM27.785 17.9221L27.635 18.6196H25.91L25.4975 20.5996H27.35L27.1738 21.2971H25.3588L24.7775 23.9221H23.9488L24.515 21.2971H22.865L22.31 23.9221H21.5L22.055 21.2971H20.315L20.4463 20.5996H22.1938L22.595 18.6234H20.7688L20.9075 17.9259H22.7338L23.2888 15.2746H24.125L23.57 17.9259H25.2313L25.7975 15.2746H26.6075L26.0525 17.9259L27.785 17.9221ZM25.0963 18.6196H23.4313L23 20.5996H24.6725L25.0963 18.6196Z" fill="white"/>
</g>
<defs>
<clipPath id="clip0_197_2046">
<rect width="24" height="24" fill="white" transform="translate(8 8)"/>
</clipPath>
</defs>
</svg>
