<svg width="40" height="40" viewBox="0 0 40 40" fill="none" xmlns="http://www.w3.org/2000/svg">
<circle cx="20" cy="20" r="20" fill="#000024" fill-opacity="0.1"/>
<path d="M27.8799 10H12.1098C11.5098 10 11.0498 10.52 11.1198 11.11L12.9198 27.33C12.9598 27.73 13.2499 28.07 13.6399 28.18L19.7198 29.92C19.8998 29.97 20.0899 29.97 20.2699 29.92L26.3498 28.18C26.7398 28.07 27.0199 27.73 27.0699 27.33L28.8698 11.11C28.9398 10.52 28.4799 10 27.8799 10ZM19.3698 23.99C19.3698 24.23 19.2599 24.45 19.0699 24.59C18.9399 24.69 18.7798 24.74 18.6198 24.74C18.5498 24.74 18.4798 24.73 18.4098 24.71L15.2898 23.81C14.8898 23.69 14.6599 23.28 14.7799 22.88C14.8899 22.48 15.3099 22.26 15.7099 22.37L17.8698 22.99V15.01C17.8698 14.6 18.2098 14.26 18.6198 14.26C19.0298 14.26 19.3698 14.6 19.3698 15.01V23.99ZM25.2498 23.1C25.2498 23.44 25.0198 23.74 24.6798 23.83L21.0799 24.73C21.0199 24.75 20.9599 24.75 20.8999 24.75C20.5599 24.75 20.2598 24.52 20.1698 24.18C20.0698 23.78 20.3098 23.37 20.7198 23.27L23.7498 22.51V20.81L21.4599 21.14C21.2399 21.17 21.0298 21.11 20.8598 20.96C20.6998 20.82 20.5998 20.61 20.5998 20.39V15.44C20.5998 15.07 20.8698 14.75 21.2398 14.7L24.3899 14.25C24.7999 14.19 25.1798 14.48 25.2398 14.89C25.2998 15.3 25.0098 15.68 24.5998 15.74L22.0899 16.1V19.53L24.3799 19.2C24.5999 19.17 24.8098 19.23 24.9798 19.38C25.1398 19.52 25.2398 19.73 25.2398 19.95V23.1H25.2498Z" fill="#000024"/>
</svg>
