<svg width="40" height="40" viewBox="0 0 40 40" fill="none" xmlns="http://www.w3.org/2000/svg">
<circle cx="20" cy="20" r="20" fill="#000024" fill-opacity="0.1"/>
<g clip-path="url(#clip0_197_2038)">
<mask id="mask0_197_2038" style="mask-type:luminance" maskUnits="userSpaceOnUse" x="8" y="8" width="24" height="24">
<path d="M8 8H32V32H8V8Z" fill="white"/>
</mask>
<g mask="url(#mask0_197_2038)">
<path d="M19.914 8C13.82 8 14.2 10.656 14.2 10.656L14.207 13.408H20.021V14.234H11.9C11.9 14.234 8 13.789 8 19.969C8 26.149 11.403 25.929 11.403 25.929H13.433V23.062C13.433 23.062 13.324 19.642 16.783 19.642H22.549C22.549 19.642 25.789 19.694 25.789 16.494V11.202C25.789 11.202 26.281 8 19.914 8ZM16.708 9.85C17.286 9.85 17.754 10.32 17.754 10.902C17.754 11.483 17.286 11.953 16.708 11.953C16.129 11.953 15.662 11.483 15.662 10.902C15.662 10.32 16.129 9.85 16.708 9.85Z" fill="#000024"/>
<path d="M20.0869 31.9998C26.1789 31.9998 25.7989 29.3438 25.7989 29.3438L25.7919 26.5918H19.9779V25.7658H28.1009C28.1009 25.7658 32.0009 26.2108 32.0009 20.0308C32.0009 13.8508 28.5969 14.0708 28.5969 14.0708H26.5669V16.9378C26.5669 16.9378 26.6759 20.3578 23.2169 20.3578H17.4519C17.4519 20.3578 14.2119 20.3058 14.2119 23.5058V28.7978C14.2119 28.7978 13.7199 31.9998 20.0869 31.9998ZM23.2929 30.1498C22.7139 30.1498 22.2469 29.6798 22.2469 29.0978C22.2469 28.5168 22.7139 28.0468 23.2929 28.0468C23.8709 28.0468 24.3389 28.5168 24.3389 29.0978C24.3389 29.6798 23.8709 30.1498 23.2929 30.1498Z" fill="#000024"/>
</g>
</g>
<defs>
<clipPath id="clip0_197_2038">
<rect width="24" height="24" fill="white" transform="translate(8 8)"/>
</clipPath>
</defs>
</svg>
