<svg width="40" height="40" viewBox="0 0 40 40" fill="none" xmlns="http://www.w3.org/2000/svg">
<circle cx="20" cy="20" r="20" fill="#000024" fill-opacity="0.1"/>
<path d="M16.553 10.5197C15.9193 10.477 15.296 10.591 14.75 10.906C14.0217 11.326 13.5365 12.0437 13.2762 12.871C13.016 13.696 12.956 14.6485 13.0512 15.6887C13.0603 15.7937 13.079 15.904 13.0918 16.0112C12.9927 16.0532 12.8877 16.0922 12.7917 16.1372C11.8438 16.5745 11.0495 17.1025 10.4638 17.7407C9.87875 18.3797 9.5 19.1582 9.5 19.9997C9.5 20.8405 9.87875 21.6197 10.4638 22.2587C11.0488 22.897 11.8438 23.425 12.7917 23.8622C12.8877 23.9072 12.9927 23.9462 13.0918 23.9882C13.079 24.0955 13.0603 24.2057 13.0505 24.3107C12.956 25.351 13.016 26.3027 13.2762 27.1292C13.5365 27.9557 14.0217 28.6727 14.75 29.0935C15.4783 29.5135 16.3415 29.5757 17.1875 29.3882C18.0335 29.2007 18.8878 28.7755 19.7405 28.1732C19.8267 28.1132 19.913 28.042 20 27.9775C20.0863 28.042 20.1725 28.1125 20.2595 28.1732C21.1123 28.7755 21.9665 29.2007 22.8125 29.3882C23.6585 29.5757 24.5218 29.5142 25.25 29.0935C25.9783 28.6735 26.4635 27.9557 26.7238 27.1285C26.984 26.3035 27.044 25.351 26.9487 24.3107C26.9397 24.2057 26.921 24.0955 26.9083 23.9882C27.0072 23.9462 27.1122 23.9072 27.2083 23.8622C28.1562 23.425 28.9505 22.897 29.5363 22.2587C30.1213 21.6197 30.5 20.8412 30.5 19.9997C30.5 19.159 30.1213 18.3797 29.5363 17.7407C28.9513 17.1025 28.1562 16.5745 27.2083 16.1372C27.1122 16.0922 27.0072 16.0532 26.9083 16.0112C26.921 15.904 26.9398 15.7937 26.9495 15.6887C27.044 14.6485 26.984 13.6967 26.7238 12.8702C26.4635 12.0437 25.9783 11.3267 25.25 10.906C24.5218 10.486 23.6585 10.4237 22.8125 10.6112C21.9665 10.7987 21.1123 11.224 20.2595 11.8262C20.1733 11.8862 20.087 11.9575 20 12.022C19.9137 11.9575 19.8275 11.887 19.7405 11.8262C18.8878 11.224 18.0335 10.7987 17.1875 10.6112C16.9786 10.5644 16.7665 10.5343 16.553 10.5197ZM16.4555 12.0137C16.583 12.0227 16.7188 12.0437 16.8635 12.0767C17.4305 12.202 18.1093 12.52 18.8255 13.018C18.1966 13.6165 17.6137 14.2616 17.0817 14.9477C16.2228 15.0648 15.374 15.2464 14.5422 15.4907C14.4687 14.6222 14.5318 13.8752 14.7057 13.3217C14.885 12.7547 15.152 12.4067 15.5 12.205C15.761 12.055 16.0715 11.9845 16.4548 12.0137H16.4555ZM23.5452 12.0137C23.9277 11.9845 24.239 12.055 24.5 12.205C24.848 12.406 25.115 12.7547 25.2943 13.3217C25.4683 13.8752 25.5312 14.6222 25.4578 15.4907C24.626 15.2464 23.7772 15.0648 22.9183 14.9477C22.3863 14.2616 21.8034 13.6165 21.1745 13.018C21.8907 12.52 22.5695 12.202 23.1365 12.0767C23.2812 12.0445 23.417 12.0227 23.5452 12.0137ZM20 13.969C20.2633 14.2127 20.5265 14.4835 20.7897 14.767C20.5266 14.7565 20.2633 14.7508 20 14.7497C19.7338 14.7497 19.472 14.758 19.2102 14.767C19.4727 14.4835 19.7367 14.2127 20 13.969ZM20 16.2497C20.7238 16.2497 21.425 16.2925 22.0992 16.3637C22.5128 16.93 22.8961 17.5178 23.2475 18.1247C23.609 18.751 23.9225 19.3795 24.1985 19.9997C23.9149 20.6411 23.5974 21.2669 23.2475 21.8747C22.8961 22.4816 22.5128 23.0694 22.0992 23.6357C21.4242 23.707 20.7238 23.7497 20 23.7497C19.2762 23.7497 18.575 23.707 17.9008 23.6357C17.4872 23.0694 17.1039 22.4816 16.7525 21.8747C16.391 21.2485 16.0775 20.62 15.8015 19.9997C16.0768 19.3795 16.391 18.751 16.7525 18.1247C17.114 17.4985 17.5017 16.912 17.9008 16.3637C18.598 16.2886 19.2987 16.2506 20 16.2497ZM15.863 16.6997C15.7243 16.921 15.5862 17.1437 15.4535 17.3747C15.3229 17.6034 15.1964 17.8345 15.074 18.0677C14.9615 17.7106 14.8627 17.3493 14.7778 16.9847C15.1205 16.879 15.4865 16.7852 15.863 16.6997ZM24.137 16.6997C24.5135 16.7852 24.8795 16.879 25.2222 16.9847C25.1427 17.335 25.04 17.6987 24.926 18.0677C24.8036 17.8345 24.6771 17.6034 24.5465 17.3747C24.414 17.1473 24.2775 16.9223 24.137 16.6997ZM13.3655 17.527C13.5575 18.3257 13.8222 19.1545 14.1657 19.9997C13.8373 20.8027 13.5698 21.6293 13.3655 22.4725C12.5772 22.1012 11.9615 21.6722 11.57 21.2447C11.1688 20.8067 11 20.4017 11 19.9997C11 19.5977 11.1688 19.1927 11.57 18.7547C11.9615 18.3272 12.5772 17.8982 13.3655 17.527ZM26.6345 17.527C27.4228 17.8982 28.0385 18.3272 28.43 18.7547C28.8312 19.1927 29 19.5977 29 19.9997C29 20.4017 28.8312 20.8067 28.43 21.2447C28.0385 21.6722 27.4228 22.1012 26.6345 22.4725C26.4302 21.6293 26.1626 20.8027 25.8342 19.9997C26.1624 19.1966 26.4299 18.37 26.6345 17.527ZM20 17.7497C18.7662 17.7497 17.75 18.766 17.75 19.9997C17.75 21.2335 18.7662 22.2497 20 22.2497C21.2338 22.2497 22.25 21.2335 22.25 19.9997C22.25 18.766 21.2338 17.7497 20 17.7497ZM20 19.2497C20.423 19.2497 20.75 19.5767 20.75 19.9997C20.75 20.4227 20.423 20.7497 20 20.7497C19.577 20.7497 19.25 20.4227 19.25 19.9997C19.25 19.5767 19.577 19.2497 20 19.2497ZM15.074 21.9317C15.1962 22.1627 15.32 22.3937 15.4528 22.6247C15.5863 22.8557 15.7243 23.0785 15.863 23.2997C15.4865 23.2142 15.1205 23.1205 14.7778 23.0147C14.8572 22.6645 14.96 22.3007 15.074 21.9317ZM24.926 21.9317C25.04 22.3007 25.1435 22.6645 25.2222 23.0147C24.8795 23.1205 24.5135 23.2142 24.137 23.2997C24.2758 23.0785 24.4137 22.8557 24.5472 22.6247C24.68 22.3937 24.8038 22.1627 24.926 21.9317ZM14.5422 24.5087C15.3297 24.7412 16.1795 24.9272 17.0817 25.0517C17.614 25.7376 18.1969 26.3826 18.8255 26.9815C18.1093 27.4795 17.4305 27.7975 16.8635 27.9227C16.2838 28.0517 15.848 27.9947 15.5 27.7945C15.152 27.5935 14.885 27.2447 14.7057 26.6777C14.5318 26.1242 14.4687 25.3772 14.5422 24.5087ZM25.4578 24.5087C25.5312 25.3772 25.4683 26.1242 25.2943 26.6777C25.115 27.2447 24.848 27.5927 24.5 27.7945C24.152 27.9947 23.7162 28.0517 23.1365 27.9227C22.5695 27.7975 21.8907 27.4795 21.1745 26.9815C21.8034 26.3829 22.3863 25.7378 22.9183 25.0517C23.7772 24.9346 24.626 24.7531 25.4578 24.5087ZM19.2102 25.2325C19.472 25.2415 19.7338 25.2497 20 25.2497C20.2662 25.2497 20.528 25.2415 20.7897 25.2325C20.5272 25.516 20.2633 25.7867 20 26.0305C19.7267 25.7746 19.4632 25.5084 19.2102 25.2325Z" fill="#000024"/>
</svg>
