<svg width="87" height="87" viewBox="0 0 87 87" fill="none" xmlns="http://www.w3.org/2000/svg">
<path d="M42.741 39.3909C43.3821 38.7497 43.4737 37.6506 42.8326 36.9178L39.0772 32.3381C38.9856 32.1549 38.894 31.9717 38.9856 31.7885C39.2604 31.1473 39.5352 30.5062 39.8099 29.865C39.9015 29.6818 40.0847 29.4986 40.2679 29.4986L46.13 28.8575C47.0459 28.7659 47.7787 27.9415 47.7787 27.0256V21.9878C47.7787 21.0719 47.0459 20.2475 46.13 20.1559L40.2679 19.5148C40.0847 19.5148 39.9015 19.3316 39.8099 19.1484C39.6268 18.5072 39.352 17.8661 38.9856 17.2249C38.894 17.0417 38.894 16.7669 39.0772 16.6753L42.8326 12.0956C43.4737 11.3628 43.3821 10.2637 42.741 9.62253L39.1688 6.05033C38.5276 5.40917 37.4285 5.31757 36.6957 5.95874L32.116 9.71413C31.9328 9.80572 31.7496 9.80572 31.5664 9.71413C30.9252 9.43934 30.2841 9.16456 29.6429 8.88977C29.4597 8.79818 29.2765 8.61499 29.2765 8.4318L28.6354 2.56973C28.5438 1.65378 27.7194 0.921021 26.8035 0.921021H21.7658C20.8498 0.921021 20.0254 1.65378 19.9339 2.56973L19.2927 8.4318C19.2927 8.61499 19.1095 8.79818 18.9263 8.88977C18.2851 9.07296 17.644 9.34775 17.0028 9.71413C16.8196 9.80572 16.5448 9.80572 16.4532 9.62253L11.8735 5.86714C11.1407 5.22598 10.0416 5.31757 9.40044 5.95874L5.82824 9.53094C5.18708 10.1721 5.09549 11.2712 5.73665 12.004L9.49204 16.5837C9.58363 16.7669 9.67523 16.9501 9.58364 17.1333C9.30885 17.7745 9.03407 18.4156 8.75928 19.0568C8.66769 19.24 8.4845 19.4232 8.30131 19.4232L2.43923 20.0644C1.52329 20.1559 0.790527 20.9803 0.790527 21.8962V26.934C0.790527 27.8499 1.52329 28.6743 2.43923 28.7659L8.30131 29.407C8.4845 29.407 8.66769 29.5902 8.75928 29.7734C8.94247 30.4146 9.21726 31.0557 9.58364 31.6969C9.67523 31.8801 9.67523 32.1549 9.49204 32.2465L5.73665 36.8262C5.09549 37.559 5.18708 38.6581 5.82824 39.2993L9.40044 42.8715C10.0416 43.5126 11.1407 43.6042 11.8735 42.9631L16.4532 39.2077C16.6364 39.1161 16.8196 39.0245 17.0028 39.1161C17.644 39.3909 18.2851 39.6657 18.9263 39.9404C19.1095 40.032 19.2927 40.2152 19.2927 40.3984L19.9339 46.2605C20.0254 47.1764 20.8498 47.9092 21.7658 47.9092H26.8035C27.7194 47.9092 28.5438 47.1764 28.6354 46.2605L29.2765 40.3984C29.2765 40.2152 29.4597 40.032 29.6429 39.9404C30.2841 39.7572 30.9252 39.4825 31.5664 39.1161C31.7496 39.0245 32.0244 39.0245 32.116 39.2077L36.6957 42.9631C37.4285 43.6042 38.5276 43.5126 39.1688 42.8715L42.741 39.3909ZM24.3304 32.9792C19.6591 32.9792 15.8121 29.2238 15.8121 24.4609C15.8121 19.698 19.5675 15.9426 24.3304 15.9426C29.0017 15.9426 32.8487 19.698 32.8487 24.4609C32.8487 29.2238 29.0017 32.9792 24.3304 32.9792Z" fill="#000024"/>
<path d="M84.6003 58.5342L78.7382 57.8931C78.555 57.8931 78.3718 57.7099 78.2802 57.5267C78.097 56.8855 77.8223 56.2444 77.4559 55.6032C77.3643 55.42 77.3643 55.1452 77.5475 55.0536L81.3029 50.4739C81.944 49.7411 81.8524 48.642 81.2113 48.0008L77.6391 44.4286C76.9979 43.7875 75.8988 43.6959 75.166 44.337L70.5863 48.0924C70.4031 48.184 70.2199 48.2756 70.0367 48.184C69.3955 47.9092 68.7544 47.6344 68.1132 47.3597C67.93 47.2681 67.7468 47.0849 67.7468 46.9017L67.0141 40.948C66.9225 40.0321 66.0981 39.2993 65.1822 39.2993H60.1445C59.2285 39.2993 58.4042 40.0321 58.3126 40.948L57.6714 46.8101C57.6714 46.9933 57.4882 47.1765 57.305 47.2681C56.6638 47.4513 56.0227 47.726 55.3815 48.0924C55.1983 48.184 54.9235 48.184 54.832 48.0008L50.2522 44.2454C49.5195 43.6043 48.4203 43.6959 47.7791 44.337L44.2069 47.9092C43.5658 48.5504 43.4742 49.6495 44.1154 50.3823L47.8707 54.962C47.9623 55.1452 48.0539 55.3284 47.9623 55.5116C47.6876 56.1528 47.4128 56.7939 47.138 57.4351C47.0464 57.6183 46.8632 57.8015 46.68 57.8015L40.7263 58.5342C39.8104 58.6258 39.0776 59.4502 39.0776 60.3661V65.4038C39.0776 66.3198 39.8104 67.1442 40.7263 67.2357L46.5884 67.8769C46.7716 67.8769 46.9548 68.0601 47.0464 68.2433C47.2296 68.8845 47.5044 69.5256 47.8707 70.1668C47.9623 70.35 47.9623 70.6248 47.7791 70.7164L44.0238 75.2961C43.3826 76.0289 43.4742 77.128 44.1154 77.7692L47.6876 81.3414C48.3287 81.9825 49.4279 82.0741 50.1606 81.4329L54.7404 77.6776C54.9235 77.586 55.1067 77.4944 55.2899 77.586C55.9311 77.8608 56.5723 78.1355 57.2134 78.4103C57.3966 78.5019 57.5798 78.6851 57.5798 78.8683L58.221 84.7304C58.3126 85.6463 59.1369 86.3791 60.0529 86.3791H65.0906C66.0065 86.3791 66.8309 85.6463 66.9225 84.7304L67.5636 78.8683C67.5636 78.6851 67.7468 78.5019 67.93 78.4103C68.5712 78.2271 69.2124 77.9523 69.8535 77.586C70.0367 77.4944 70.3115 77.4944 70.4031 77.6776L74.9828 81.4329C75.7156 82.0741 76.8147 81.9825 77.4559 81.3414L81.0281 77.7692C81.6693 77.128 81.7608 76.0289 81.1197 75.2961L77.3643 70.7164C77.2727 70.5332 77.1811 70.35 77.2727 70.1668C77.5475 69.5256 77.8223 68.8845 78.0971 68.2433C78.1886 68.0601 78.3718 67.8769 78.555 67.8769L84.4171 67.2357C85.333 67.1442 86.0658 66.3198 86.0658 65.4038V60.3661C86.249 59.3586 85.5162 58.6258 84.6003 58.5342ZM62.6175 71.3575C57.9462 71.3575 54.0992 67.6021 54.0992 62.8392C54.0992 58.1679 57.8546 54.3209 62.6175 54.3209C67.3805 54.3209 71.1358 58.0763 71.1358 62.8392C71.1358 67.6021 67.3805 71.3575 62.6175 71.3575Z" fill="#000024"/>
<path d="M86.7065 25.1021C86.2485 24.2777 85.3326 23.7282 84.4166 23.7282H80.936V13.7443C80.936 8.70661 76.8142 4.58484 71.7765 4.58484H52.1752C50.8013 4.58484 49.7021 5.68398 49.7021 7.0579C49.7021 8.43182 50.8013 9.53096 52.1752 9.53096H71.7765C74.0664 9.53096 75.9899 11.4545 75.9899 13.7443V23.7282H72.5093C71.5933 23.7282 70.6774 24.2777 70.2194 25.1021C69.7614 25.9264 69.7614 26.934 70.311 27.7583L76.2647 37.101C76.7226 37.8338 77.547 38.2917 78.4629 38.2917C79.3789 38.2917 80.2032 37.8338 80.6612 37.101L86.5233 27.7583C87.0729 26.934 87.1644 25.9264 86.7065 25.1021Z" fill="#000024"/>
<path d="M34.7725 77.8606H15.1712C12.8813 77.8606 10.9578 75.9371 10.9578 73.6472V63.6634H14.4384C15.3544 63.6634 16.2703 63.1138 16.7283 62.2895C17.1863 61.4651 17.1863 60.4576 16.6367 59.6332L10.683 50.3821C10.2251 49.6494 9.30911 49.1914 8.48476 49.1914C7.56881 49.1914 6.74445 49.6494 6.28648 50.3821L0.424408 59.6332C-0.125161 60.4576 -0.125161 61.4651 0.332813 62.2895C0.790787 63.1138 1.70674 63.6634 2.62268 63.6634H6.10329V73.6472C6.10329 78.685 10.2251 82.8067 15.2628 82.8067H34.8641C36.238 82.8067 37.3371 81.7076 37.3371 80.3337C37.2455 78.9597 36.1464 77.8606 34.7725 77.8606Z" fill="#000024"/>
</svg>
