<svg width="88" height="79" viewBox="0 0 88 79" fill="none" xmlns="http://www.w3.org/2000/svg">
<path fill-rule="evenodd" clip-rule="evenodd" d="M43.8378 1.07125L46.0458 6.88619C46.1117 7.06118 46.2666 7.17306 46.4531 7.18262L52.6658 7.48575C53.0885 7.50584 53.2616 8.03847 52.9317 8.30335L48.0835 12.2001C47.9382 12.3177 47.8789 12.4984 47.9276 12.6791L49.56 18.6815C49.6709 19.0898 49.2186 19.4188 48.8638 19.1873L43.6599 15.7802C43.5031 15.6779 43.3128 15.6779 43.156 15.7802L37.9521 19.1873C37.5983 19.4188 37.145 19.0898 37.2559 18.6815L38.8873 12.6791C38.9361 12.4984 38.8777 12.3167 38.7314 12.2001L33.8832 8.30335C33.5533 8.03847 33.7264 7.50584 34.1491 7.48575L40.3618 7.18262C40.5483 7.17306 40.7032 7.06118 40.7692 6.88619L42.9772 1.07125C43.1263 0.678235 43.6886 0.678235 43.8378 1.07125ZM72.6677 48.9209C80.8158 48.9209 87.4216 55.5266 87.4216 63.6748C87.4216 71.823 80.8158 78.4287 72.6677 78.4287C64.5195 78.4287 57.9137 71.823 57.9137 63.6748C57.9137 55.5257 64.5185 48.9209 72.6677 48.9209ZM70.7293 64.9763L67.4332 61.6801C66.5783 60.8252 65.1927 60.8252 64.3387 61.6801C63.4848 62.535 63.4848 63.9206 64.3387 64.7745L69.1879 69.6236C70.0428 70.4785 71.4284 70.4785 72.2823 69.6236C75.2046 66.7013 78.0944 63.7456 81.0033 60.8089C81.8514 59.9531 81.8486 58.5713 80.9937 57.7212C80.1388 56.8711 78.7532 56.873 77.9041 57.7308L70.7293 64.9763ZM43.4075 24.4964C49.4586 24.4964 54.3641 29.402 54.3641 35.4531C54.3641 41.5042 49.4586 46.4098 43.4075 46.4098C37.3563 46.4098 32.4508 41.5042 32.4508 35.4531C32.4508 29.402 37.3563 24.4964 43.4075 24.4964ZM23.9937 67.5706H55.4313C55.1492 66.3169 54.9991 65.0135 54.9991 63.6739C54.9991 60.042 56.0949 56.6665 57.974 53.8599C54.126 50.3629 49.0159 48.2314 43.4065 48.2314C32.992 48.2314 24.295 55.5773 22.2113 65.3702C21.9694 66.5101 22.829 67.5706 23.9937 67.5706ZM86.7111 26.3209L82.779 31.1404C82.6604 31.2848 82.6413 31.4751 82.7264 31.6415L85.5703 37.1734C85.7635 37.5492 85.3896 37.9652 84.9946 37.8122L79.196 35.5621C79.0219 35.4942 78.8345 35.5344 78.7035 35.6673L74.321 40.0813C74.0227 40.3816 73.512 40.154 73.535 39.7313L73.883 33.5205C73.8936 33.3341 73.7979 33.1686 73.6316 33.0845L68.0786 30.2808C67.7009 30.0905 67.7592 29.5339 68.1685 29.4259L74.1824 27.8376C74.3631 27.7897 74.4912 27.6482 74.5199 27.4627L75.4704 21.316C75.5354 20.8981 76.0824 20.7814 76.3119 21.1371L79.6808 26.3659C79.7821 26.5227 79.9562 26.6011 80.1407 26.5705L86.2808 25.5751C86.6958 25.5081 86.9769 25.9949 86.7111 26.3209ZM68.6572 7.95145C68.7241 7.53644 68.2383 7.2553 67.9122 7.52114L63.0928 11.4532C62.9484 11.5718 62.7581 11.5919 62.5917 11.5058L57.0598 8.66194C56.684 8.46878 56.268 8.84267 56.421 9.2376L58.6711 15.0363C58.739 15.2103 58.6988 15.3977 58.5659 15.5287L54.1519 19.9112C53.8516 20.2096 54.0792 20.7202 54.5018 20.6973L60.7127 20.3492C60.8991 20.3387 61.0646 20.4343 61.1487 20.6007L63.9524 26.1536C64.1427 26.5313 64.7002 26.473 64.8073 26.0637L66.3956 20.0499C66.4435 19.8692 66.585 19.741 66.7705 19.7123L72.9172 18.7618C73.3351 18.6968 73.4518 18.1498 73.0961 17.9203L67.8673 14.5515C67.7105 14.4501 67.6321 14.2761 67.6627 14.0915L68.6572 7.95145ZM0.534147 25.576L6.67421 26.5715C6.85876 26.6011 7.0328 26.5237 7.13416 26.3668L10.503 21.1381C10.7325 20.7824 11.2795 20.899 11.3445 21.3169L12.295 27.4637C12.3237 27.6482 12.4509 27.7907 12.6326 27.8385L18.6464 29.4268C19.0557 29.5349 19.114 30.0914 18.7363 30.2817L13.1834 33.0854C13.017 33.1696 12.9214 33.335 12.9319 33.5215L13.28 39.7323C13.3039 40.155 12.7923 40.3826 12.4939 40.0823L8.11145 35.6683C7.97948 35.5353 7.79302 35.4961 7.61898 35.5631L1.8203 37.8131C1.42633 37.9661 1.05148 37.5501 1.24464 37.1743L4.08852 31.6425C4.17362 31.4761 4.1545 31.2858 4.03592 31.1414L0.103836 26.3219C-0.162 25.9949 0.119136 25.5081 0.534147 25.576ZM18.9027 7.52209C18.5766 7.25626 18.0908 7.53739 18.1578 7.9524L19.1532 14.0925C19.1829 14.277 19.1054 14.4511 18.9486 14.5524L13.7198 17.9213C13.3641 18.1508 13.4808 18.6977 13.8987 18.7628L20.0454 19.7133C20.23 19.742 20.3724 19.8692 20.4203 20.0508L22.0086 26.0647C22.1166 26.4739 22.6732 26.5323 22.8635 26.1546L25.6672 20.6016C25.7513 20.4352 25.9168 20.3396 26.1032 20.3501L32.314 20.6982C32.7367 20.7221 32.9643 20.2105 32.664 19.9122L28.25 15.5297C28.1171 15.3977 28.0779 15.2113 28.1448 15.0372L30.3949 9.23855C30.5479 8.84458 30.1319 8.46973 29.7561 8.6629L24.2242 11.5068C24.0578 11.5919 23.8675 11.5728 23.7231 11.4542L18.9027 7.52209Z" fill="#000024"/>
</svg>
