<svg width="71" height="87" viewBox="0 0 71 87" fill="none" xmlns="http://www.w3.org/2000/svg">
<path d="M38.8005 42.7706C39.5563 43.5264 40.0309 44.5809 40.0309 45.7409C40.0309 46.9009 39.5563 47.9467 38.8005 48.7024C38.036 49.467 36.9902 49.9327 35.8302 49.9327C34.6702 49.9327 33.6245 49.4582 32.8599 48.7024C32.0954 47.9467 31.6296 46.8921 31.6296 45.7409C31.6296 44.5809 32.0954 43.5264 32.8599 42.7706C33.6245 42.0061 34.6702 41.5403 35.8302 41.5403C36.9902 41.5403 38.036 42.0061 38.8005 42.7706ZM35.9006 87C40.2593 87 44.0821 84.6536 46.1824 81.1649L25.4693 81.1649C27.5784 84.68 31.4715 87 35.9006 87ZM45.8045 43.3945L48.766 44.3612L48.766 47.1206L45.7342 48.1049C45.3036 48.2455 44.9872 48.5706 44.8466 48.9661C44.7851 49.133 44.7324 49.2824 44.6796 49.3967C44.6181 49.5461 44.5566 49.6867 44.4951 49.8273C44.3018 50.2403 44.3193 50.6885 44.5127 51.0576L44.5039 51.0576L45.9539 53.9049L44.003 55.8558L41.1557 54.4058C40.7339 54.1861 40.2505 54.2124 39.8639 54.4233C39.7496 54.4761 39.6266 54.5288 39.4948 54.5815C39.3718 54.6255 39.2312 54.687 39.0642 54.7485C38.6072 54.9155 38.2996 55.2758 38.1854 55.7064L37.2187 58.6767L34.4506 58.6767L33.4663 55.6448C33.3257 55.2142 33.0006 54.8979 32.6051 54.7573L32.6051 54.7485C32.4381 54.687 32.2887 54.6342 32.1745 54.5815C32.0163 54.52 31.8757 54.4585 31.7439 54.3882C31.3396 54.2036 30.8827 54.2212 30.5136 54.4058L30.5048 54.4058L27.6663 55.8558L25.7154 53.9049L27.1654 51.0576C27.3763 50.6358 27.3587 50.1436 27.1478 49.757C27.0951 49.6427 27.0424 49.5197 26.9896 49.3967C26.9105 49.2121 26.8578 49.0715 26.8139 48.9661C26.6557 48.5442 26.3306 48.2367 25.9351 48.1049L25.9351 48.0961L22.9033 47.1118L22.9033 44.3524L25.9351 43.3682C26.3657 43.2276 26.6733 42.9024 26.8227 42.507C26.8842 42.34 26.9369 42.1906 26.9896 42.0764C27.0599 41.927 27.1215 41.7864 27.183 41.6458C27.3763 41.2415 27.3499 40.7845 27.1654 40.4155L27.1742 40.4155L25.7242 37.5682L27.6751 35.6173L30.5136 37.0673C30.9442 37.287 31.4275 37.2606 31.8142 37.0497C31.9284 36.997 32.0515 36.9442 32.1833 36.8915C32.2975 36.8476 32.4469 36.7861 32.6139 36.7245C33.0621 36.5576 33.3784 36.1973 33.4927 35.7667L34.4593 32.7964L37.2275 32.7964L38.2118 35.8282C38.3524 36.2588 38.6775 36.5752 39.073 36.7158L39.073 36.7245C39.2399 36.7861 39.3893 36.8388 39.5036 36.8915C39.6618 36.953 39.8024 37.0145 39.9342 37.0848C40.3472 37.2694 40.7954 37.2518 41.1645 37.0673L44.0118 35.6173L45.9627 37.5682L44.5127 40.4155C44.293 40.8373 44.3193 41.3294 44.5302 41.7161C44.583 41.8303 44.6357 41.9533 44.6884 42.0764C44.7412 42.1994 44.7939 42.34 44.8554 42.507C45.0048 42.9552 45.3739 43.2803 45.8045 43.3945ZM42.8342 45.7409C42.8342 43.8076 42.0521 42.0588 40.7866 40.7933C39.5212 39.5279 37.7636 38.7458 35.839 38.7458C33.9057 38.7458 32.1569 39.5279 30.8915 40.7933C29.626 42.0588 28.8439 43.8076 28.8439 45.7409C28.8439 47.6742 29.626 49.423 30.8915 50.6885C32.1569 51.9539 33.9145 52.7361 35.839 52.7361C37.7724 52.7361 39.5212 51.9539 40.7866 50.6885C42.0521 49.4142 42.8342 47.6655 42.8342 45.7409ZM70.8324 26.3197C70.8324 27.5764 70.1118 28.6573 69.0572 29.1845L69.0572 45.7409C69.0572 46.5142 68.4245 47.1382 67.6512 47.1382L58.9336 47.1382C58.5381 53.6939 55.4184 59.5115 50.6906 63.4749C50.1984 63.8967 49.759 64.3448 49.3987 64.837C49.0121 64.7491 48.6078 64.7052 48.186 64.7052L23.4921 64.7052C23.0702 64.7052 22.666 64.7491 22.2793 64.837C21.9102 64.3448 21.4796 63.8967 20.9875 63.4749C16.2596 59.5115 13.1312 53.6939 12.7445 47.1382L4.01812 47.1382C3.24479 47.1382 2.61206 46.5055 2.61206 45.7409L2.61206 29.1845C1.55752 28.6661 0.828125 27.5764 0.828125 26.3197C0.828125 24.5621 2.25176 23.1385 4.01813 23.1385C5.7757 23.1385 7.19934 24.5621 7.19934 26.3197C7.19934 27.5764 6.46994 28.6573 5.4154 29.1845L5.4154 44.3348L12.7357 44.3348C13.0609 39.0006 15.1875 34.1497 18.5181 30.3885L18.5181 12.3821C17.4636 11.8636 16.7342 10.7739 16.7342 9.52606C16.7342 7.76849 18.1578 6.34485 19.9154 6.34485C21.673 6.34485 23.0966 7.76849 23.0966 9.52606C23.0966 10.7827 22.376 11.8636 21.3215 12.3821L21.3215 27.717C24.9509 24.7906 29.4766 22.9452 34.4242 22.6464L34.4242 6.04606C33.3696 5.52758 32.6402 4.43788 32.6402 3.18121C32.6402 1.42364 34.0639 8.23795e-08 35.8215 8.67359e-08C37.579 9.10923e-08 39.0027 1.42364 39.0027 3.18121C39.0027 4.43788 38.2733 5.51879 37.2187 6.04606L37.2187 22.6464C42.1663 22.9364 46.6921 24.7906 50.3215 27.717L50.3215 12.3821C49.2669 11.8636 48.5463 10.7739 48.5463 9.52606C48.5463 7.76849 49.9699 6.34485 51.7275 6.34485C53.4851 6.34485 54.9087 7.76849 54.9087 9.52606C54.9087 10.7827 54.1793 11.8636 53.1248 12.3821L53.1248 30.3885C56.4554 34.1497 58.5909 38.9918 58.9072 44.3348L66.2275 44.3348L66.2275 29.1845C65.173 28.6661 64.4436 27.5764 64.4436 26.3197C64.4436 24.5621 65.8672 23.1385 67.6248 23.1385C69.3999 23.1385 70.8324 24.5621 70.8324 26.3197ZM51.5693 44.3085C51.5693 43.7109 51.3848 43.1485 51.0509 42.6915C50.7169 42.2345 50.2424 41.883 49.6712 41.6985L47.3687 40.9515L48.476 38.7897C48.7484 38.2624 48.8275 37.6736 48.7396 37.1112C48.6518 36.5488 48.3881 36.0215 47.9663 35.5997L45.9539 33.5785C45.5321 33.1567 45.0048 32.9018 44.4424 32.8139C43.8799 32.7261 43.2999 32.8052 42.7727 33.0776L40.6108 34.1761L39.8639 31.8736C39.6793 31.3024 39.3278 30.8367 38.8709 30.5027C38.4139 30.1688 37.8602 29.9755 37.2627 29.9755L34.4154 29.9755C33.8178 29.9755 33.2642 30.1688 32.7984 30.5027C32.3415 30.8367 31.9899 31.3112 31.8054 31.8736L31.0584 34.1761L28.8966 33.0776C28.3693 32.8052 27.7805 32.7173 27.2269 32.8139C26.6645 32.9018 26.1372 33.1567 25.7154 33.5785L23.703 35.5997C23.2812 36.0215 23.0175 36.5576 22.9296 37.1112C22.8418 37.6736 22.9209 38.2536 23.1933 38.7897L24.3006 40.9515L21.9893 41.6985C21.4181 41.883 20.9524 42.2345 20.6184 42.6915C20.2845 43.1485 20.0999 43.7109 20.0999 44.3085L20.0999 47.1558C20.0999 47.7533 20.2845 48.3158 20.6184 48.7727C20.9524 49.2297 21.4269 49.5812 21.9893 49.7658L24.3006 50.5127L23.1933 52.6745C22.9209 53.2018 22.8418 53.7906 22.9296 54.353C23.0175 54.9155 23.2812 55.4427 23.703 55.8645L25.7154 57.8858C26.1372 58.3076 26.6645 58.5624 27.2269 58.6503C27.7893 58.7382 28.3693 58.6591 28.8966 58.3867L31.0584 57.2882L31.8054 59.5906C31.9899 60.1618 32.3415 60.6276 32.7984 60.9615C33.2642 61.2955 33.8178 61.4888 34.4154 61.4888L37.2627 61.4888C37.8602 61.4888 38.4139 61.3042 38.8709 60.9615C39.3278 60.6276 39.6793 60.153 39.8639 59.5906L40.6108 57.2882L42.7727 58.3867C43.2999 58.6591 43.8887 58.747 44.4424 58.6503C45.0048 58.5624 45.5321 58.3076 45.9539 57.8858L47.9663 55.8645C48.3881 55.4427 48.643 54.9155 48.7396 54.353C48.8275 53.7906 48.7484 53.2106 48.476 52.6745L47.3687 50.5127L49.6712 49.7658C50.2424 49.5812 50.7169 49.2297 51.0509 48.7727C51.3848 48.3158 51.5693 47.7533 51.5693 47.1558L51.5693 44.3085ZM50.8839 70.2152C50.8839 68.73 49.6624 67.5085 48.1684 67.5085L23.4921 67.5085C21.9981 67.5085 20.7766 68.73 20.7766 70.2152C20.7766 71.7091 21.9981 72.9306 23.4921 72.9306C21.9981 72.9306 20.7766 74.1521 20.7766 75.6461C20.7766 77.14 21.9981 78.3615 23.4921 78.3615L48.1684 78.3615C49.6624 78.3615 50.8839 77.14 50.8839 75.6461C50.8839 74.1521 49.6624 72.9306 48.1684 72.9306C49.6624 72.9306 50.8839 71.7091 50.8839 70.2152Z" fill="#000024"/>
</svg>
