<svg width="80" height="87" viewBox="0 0 80 87" fill="none" xmlns="http://www.w3.org/2000/svg">
<path d="M79.1574 47.327L68.2415 30.1125C68.2415 16.9883 57.3255 0.647022 34.8204 0.0141676C16.277 -0.506823 0.679381 13.4004 0.026847 31.9386C-0.431998 44.9862 5.00267 56.1217 15.4173 62.1416C15.4173 70.1387 12.5493 80.3069 9.20271 87H52.7049C49.3584 80.3069 49.5976 75.0483 49.5976 68.3562H62.0269C65.4594 68.3562 68.2415 65.5741 68.2415 62.1416V49.7124H77.8461C79.0704 49.7124 79.8141 48.3607 79.1574 47.327ZM12.31 36.5063V31.8454H21.0705C22.0524 33.6673 23.4342 35.2386 25.0748 36.5063H12.31ZM58.586 34.8253L50.7618 40.2589C50.2647 40.6038 49.5976 40.232 49.5976 39.6095V36.5063H34.0611C32.9736 36.5063 31.9482 36.351 30.9538 36.0713C26.0443 34.7352 22.4087 30.1985 22.4087 24.8539C22.4087 18.4218 27.629 13.2016 34.0611 13.2016C40.4932 13.2016 45.7135 18.4218 45.7135 24.8539C45.7135 26.1901 45.496 27.4952 45.0299 28.7381H39.8718C40.6486 27.5884 41.0526 26.2522 41.0526 24.8539C41.0526 21.0009 37.9142 17.8625 34.0611 17.8625C30.2081 17.8625 27.0697 21.0009 27.0697 24.8539C27.0697 27.5884 28.6544 29.9499 30.9538 31.0996C31.886 31.5968 32.9425 31.8454 34.0611 31.8454H49.5976V28.7422C49.5976 28.1187 50.2647 27.7479 50.7618 28.0928L58.586 33.5264C59.0304 33.8361 59.0304 34.5156 58.586 34.8253Z" fill="#000024"/>
</svg>
