<svg width="87" height="88" viewBox="0 0 87 88" fill="none" xmlns="http://www.w3.org/2000/svg">
<path fill-rule="evenodd" clip-rule="evenodd" d="M71.5957 25.5409L73.857 20.0043H76.7351C77.0648 21.2264 77.8272 22.287 78.8806 22.9889C79.934 23.6908 81.2065 23.9861 82.4613 23.8198C83.7161 23.6535 84.8677 23.037 85.7019 22.085C86.5361 21.133 86.996 19.9103 86.996 18.6445C86.996 17.3787 86.5361 16.156 85.7019 15.204C84.8677 14.252 83.7161 13.6355 82.4613 13.4692C81.2065 13.3029 79.934 13.5982 78.8806 14.3001C77.8272 15.002 77.0648 16.0626 76.7351 17.2847H72.9463C72.6766 17.285 72.4131 17.3655 72.1893 17.516C71.9655 17.6664 71.7916 17.8801 71.6895 18.1297L69.4244 23.6664H63.0292L60.6046 21.2417C60.3731 21.0084 60.0646 20.8673 59.7368 20.8447C59.4089 20.8221 59.0841 20.9196 58.8228 21.1189L55.1017 23.9332C53.338 22.9087 51.4454 22.1242 49.4741 21.6004L48.8351 16.9831C48.7917 16.6573 48.6312 16.3584 48.3835 16.1423C48.1359 15.9261 47.8181 15.8075 47.4894 15.8085H44.8598V10.7561C46.0818 10.4265 47.1425 9.66399 47.8444 8.61063C48.5463 7.55727 48.8416 6.28478 48.6753 5.02997C48.509 3.77515 47.8925 2.62349 46.9405 1.78931C45.9885 0.955124 44.7658 0.495239 43.5 0.495239C42.2342 0.495239 41.0115 0.955124 40.0595 1.78931C39.1075 2.62349 38.491 3.77515 38.3247 5.02997C38.1584 6.28478 38.4537 7.55727 39.1556 8.61063C39.8575 9.66399 40.9181 10.4265 42.1402 10.7561V15.8085H39.5068C39.1783 15.8087 38.861 15.9277 38.6135 16.1436C38.3659 16.3595 38.2049 16.6577 38.16 16.9831L37.522 21.6004C35.5506 22.1247 33.6578 22.9092 31.8935 23.9332L28.1743 21.1189C27.913 20.9196 27.5881 20.8221 27.2603 20.8447C26.9324 20.8673 26.624 21.0084 26.3925 21.2417L23.9718 23.6664H17.5766L15.3105 18.1297C15.2091 17.8796 15.0353 17.6655 14.8113 17.515C14.5874 17.3644 14.3235 17.2842 14.0537 17.2847H10.261C9.93135 16.0626 9.16888 15.002 8.11552 14.3001C7.06216 13.5982 5.78967 13.3029 4.53486 13.4692C3.28004 13.6355 2.12838 14.252 1.2942 15.204C0.460015 16.156 0.000130461 17.3787 0.000130461 18.6445C0.000130461 19.9103 0.460015 21.133 1.2942 22.085C2.12838 23.037 3.28004 23.6535 4.53486 23.8198C5.78967 23.9861 7.06216 23.6908 8.11552 22.9889C9.16888 22.287 9.93135 21.2264 10.261 20.0043H13.1439L15.4091 25.5409C15.5115 25.7902 15.6856 26.0035 15.9093 26.1538C16.1331 26.304 16.3964 26.3845 16.6659 26.3849H21.2513L20.7485 26.8886C20.5155 27.12 20.3746 27.4283 20.352 27.7559C20.3294 28.0835 20.4267 28.4082 20.6258 28.6694L23.44 32.3876C22.4157 34.1526 21.6309 36.046 21.1063 38.0181L16.489 38.6552C16.1639 38.7004 15.8662 38.8616 15.6507 39.1091C15.4352 39.3566 15.3164 39.6737 15.3163 40.0019V42.6353H10.261C9.93145 41.4132 9.16904 40.3524 8.1157 39.6504C7.06236 38.9484 5.78984 38.6531 4.53498 38.8193C3.28011 38.9855 2.12839 39.602 1.29415 40.5541C0.459916 41.5061 0 42.7288 0 43.9946C0 45.2605 0.459916 46.4832 1.29415 47.4352C2.12839 48.3872 3.28011 49.0037 4.53498 49.17C5.78984 49.3362 7.06236 49.0408 8.1157 48.3388C9.16904 47.6369 9.93145 46.5761 10.261 45.3539H15.3134V47.9883C15.3123 48.3168 15.4307 48.6343 15.6464 48.8819C15.8622 49.1295 16.1606 49.2902 16.4861 49.3341L21.1043 49.9731C21.6288 51.9449 22.4136 53.8381 23.4381 55.6026L20.6229 59.3218C20.4238 59.583 20.3265 59.9076 20.3491 60.2353C20.3717 60.5629 20.5126 60.8712 20.7456 61.1026L21.2484 61.6053H16.663C16.3933 61.6057 16.1299 61.6862 15.9061 61.8367C15.6823 61.9871 15.5083 62.2007 15.4062 62.4502L13.1439 67.9869H10.261C9.93145 66.7648 9.16904 65.704 8.1157 65.002C7.06236 64.3 5.78984 64.0046 4.53498 64.1709C3.28011 64.3371 2.12839 64.9536 1.29415 65.9056C0.459916 66.8577 0 68.0804 0 69.3462C0 70.612 0.459916 71.8347 1.29415 72.7868C2.12839 73.7388 3.28011 74.3553 4.53498 74.5215C5.78984 74.6878 7.06236 74.3924 8.1157 73.6904C9.16904 72.9884 9.93145 71.9276 10.261 70.7055H14.0527C14.3223 70.7054 14.5858 70.6251 14.8096 70.4748C15.0334 70.3245 15.2074 70.111 15.3095 69.8615L17.5756 64.3248H23.9718L26.3887 66.7495C26.6207 66.9818 26.929 67.1223 27.2565 67.1449C27.5841 67.1674 27.9088 67.0706 28.1704 66.8722L31.8896 64.057C33.6539 65.0813 35.5467 65.8661 37.5181 66.3908L38.1562 71.0081C38.2012 71.3334 38.3623 71.6315 38.6098 71.8473C38.8573 72.0632 39.1745 72.1823 39.5029 72.1827H42.1364V77.235C40.9143 77.5647 39.8536 78.3272 39.1517 79.3806C38.4498 80.4339 38.1545 81.7064 38.3208 82.9612C38.4871 84.216 39.1036 85.3677 40.0556 86.2019C41.0077 87.0361 42.2303 87.4959 43.4961 87.4959C44.7619 87.4959 45.9846 87.0361 46.9366 86.2019C47.8886 85.3677 48.5051 84.216 48.6714 82.9612C48.8377 81.7064 48.5424 80.4339 47.8406 79.3806C47.1387 78.3272 46.078 77.5647 44.8559 77.235V72.1827H47.4932C47.8216 72.1825 48.1388 72.0634 48.3861 71.8475C48.6335 71.6316 48.7944 71.3334 48.839 71.0081L49.478 66.3908C51.4498 65.8663 53.343 65.0815 55.1075 64.057L58.8257 66.8722C59.0874 67.0706 59.412 67.1674 59.7396 67.1449C60.0672 67.1223 60.3755 66.9818 60.6074 66.7495L63.0292 64.3248H69.4205L71.6857 69.8615C71.7878 70.1109 71.9619 70.3244 72.1857 70.4746C72.4095 70.6249 72.6729 70.7053 72.9425 70.7055H76.7351C77.0647 71.9276 77.8271 72.9884 78.8804 73.6904C79.9338 74.3924 81.2063 74.6878 82.4612 74.5215C83.716 74.3553 84.8677 73.7388 85.702 72.7868C86.5362 71.8347 86.9961 70.612 86.9961 69.3462C86.9961 68.0804 86.5362 66.8577 85.702 65.9056C84.8677 64.9536 83.716 64.3371 82.4612 64.1709C81.2063 64.0046 79.9338 64.3 78.8804 65.002C77.8271 65.704 77.0647 66.7648 76.7351 67.9869H73.857L71.5957 62.4502C71.4934 62.2008 71.3193 61.9874 71.0956 61.837C70.8719 61.6866 70.6085 61.606 70.339 61.6053H65.7516L66.2544 61.1026C66.4872 60.871 66.628 60.5627 66.6504 60.2351C66.6728 59.9075 66.5754 59.5829 66.3762 59.3218L63.5619 55.6017C64.5865 53.8375 65.3714 51.9447 65.8957 49.9731L70.513 49.3341C70.8386 49.2904 71.1372 49.1298 71.3532 48.8822C71.5691 48.6346 71.6877 48.3169 71.6866 47.9883V45.3539H76.739C77.0685 46.5761 77.831 47.6369 78.8843 48.3388C79.9376 49.0408 81.2102 49.3362 82.465 49.17C83.7199 49.0037 84.8716 48.3872 85.7058 47.4352C86.5401 46.4832 87 45.2605 87 43.9946C87 42.7288 86.5401 41.5061 85.7058 40.5541C84.8716 39.602 83.7199 38.9855 82.465 38.8193C81.2102 38.6531 79.9376 38.9484 78.8843 39.6504C77.831 40.3524 77.0685 41.4132 76.739 42.6353H71.6866V40.0019C71.6865 39.6735 71.5676 39.3564 71.3518 39.1089C71.1361 38.8613 70.8382 38.7002 70.513 38.6552L65.8957 38.0181C65.371 36.046 64.5862 34.1526 63.5619 32.3876L66.3762 28.6694C66.5754 28.4083 66.6728 28.0837 66.6504 27.7561C66.628 27.4285 66.4872 27.1202 66.2544 26.8886L65.7516 26.3849H70.3361C70.6055 26.3842 70.8687 26.3037 71.0924 26.1534C71.3161 26.0032 71.4902 25.7901 71.5928 25.5409H71.5957ZM43.5005 30.9432C46.0818 30.9432 48.6051 31.7087 50.7514 33.1428C52.8977 34.5769 54.5706 36.6153 55.5584 39.0001C56.5462 41.3849 56.8047 44.0091 56.3011 46.5408C55.7975 49.0725 54.5545 51.3981 52.7292 53.2233C50.9039 55.0486 48.5784 56.2916 46.0467 56.7952C43.515 57.2988 40.8908 57.0404 38.5059 56.0525C36.1211 55.0647 34.0828 53.3919 32.6487 51.2456C31.2146 49.0993 30.4491 46.5759 30.4491 43.9946C30.4527 40.5343 31.8289 37.2167 34.2757 34.7699C36.7225 32.323 40.0401 30.9468 43.5005 30.9432ZM43.5005 54.3255C41.4569 54.3257 39.4593 53.7199 37.76 52.5847C36.0608 51.4495 34.7364 49.8359 33.9543 47.9479C33.1722 46.06 32.9675 43.9825 33.3661 41.9782C33.7648 39.974 34.7488 38.1329 36.1938 36.6879C37.6388 35.2429 39.4798 34.2589 41.4841 33.8603C43.4884 33.4617 45.5658 33.6663 47.4538 34.4485C49.3417 35.2306 50.9553 36.555 52.0905 38.2542C53.2257 39.9534 53.8316 41.9511 53.8314 43.9946C53.8283 46.7338 52.7389 49.3599 50.8022 51.297C48.8656 53.234 46.2396 54.3239 43.5005 54.3274V54.3255Z" fill="#000024"/>
</svg>
