<svg width="88" height="87" viewBox="0 0 88 87" fill="none" xmlns="http://www.w3.org/2000/svg">
<path d="M81.8508 38.2764C79.1721 38.2764 77.0588 40.2408 76.7017 42.7113H51.3726C51.2833 42.1755 51.194 41.6398 51.0154 41.104L61.0458 37.0263C61.8495 38.0978 63.2781 38.455 64.4985 38.0086C66.0164 37.3835 66.7308 35.687 66.1057 34.1988C65.4807 32.6808 63.7841 31.9665 62.2959 32.5915C60.9566 33.1273 60.2422 34.5559 60.5101 35.8655L50.4796 39.9432C50.2118 39.4075 49.8546 38.8717 49.4081 38.4252L67.3558 20.5074C69.4095 22.1146 72.4157 22.0253 74.2908 20.1502C76.3445 18.0965 76.3445 14.8224 74.2908 12.7687C72.2371 10.715 68.9631 10.715 66.9093 12.7687C65.0342 14.6439 64.8556 17.5607 66.4629 19.6144L48.5152 37.4728C48.0688 37.1156 47.6223 36.8478 47.1758 36.5799L51.3428 26.5494C52.5929 26.728 53.9323 26.0137 54.468 24.7636C55.0931 23.2456 54.3787 21.5789 52.8608 20.9538C51.3428 20.3288 49.676 21.0431 49.051 22.5611C48.5152 23.9004 48.9617 25.3291 50.1225 26.103L45.9555 36.0441C45.4198 35.8655 44.7947 35.7763 44.1697 35.687V10.3876C46.7592 10.0304 48.6938 7.88744 48.6938 5.23845C48.7831 2.29182 46.3722 0 43.5446 0C40.6873 0 38.3062 2.32159 38.3062 5.23845C38.3062 7.91721 40.2706 10.1197 42.8303 10.3876V35.7167C42.2053 35.806 41.6695 35.8953 41.1338 36.0739L37.0561 26.0434C38.1276 25.2398 38.4848 23.8112 38.0383 22.5908C37.4133 21.0729 35.7167 20.3585 34.2285 20.9836C32.7106 21.6086 31.9962 23.3052 32.6213 24.7934C33.157 26.1327 34.5857 26.8471 35.8953 26.5792L39.973 36.6096C39.4372 36.8775 38.9908 37.1454 38.5443 37.5919L20.6264 19.5251C22.1444 17.4714 22.0551 14.5546 20.18 12.6794C18.1262 10.6257 14.8522 10.6257 12.7985 12.6794C10.7448 14.7331 10.7448 18.0072 12.7985 20.0609C14.6736 21.936 17.6798 22.1146 19.7335 20.4181L37.6811 38.3657C37.324 38.8122 36.9668 39.3479 36.6989 39.8837L26.6685 35.7167C26.8471 34.4666 26.1327 33.1273 24.8827 32.5915C23.3647 31.9665 21.6979 32.6808 21.0729 34.1988C20.4478 35.7167 21.1622 37.3835 22.6801 38.0086C24.0195 38.5443 25.4482 38.0978 26.222 36.937L36.1632 41.104C35.9846 41.6398 35.8953 42.1755 35.806 42.7113H10.3876C10.0304 40.2111 7.79815 38.2764 5.23845 38.2764C2.29182 38.2764 0 40.6873 0 43.5149C0 46.3722 2.32159 48.7533 5.23845 48.7533C7.91721 48.7533 10.1197 46.6996 10.3876 44.1399H35.7167C35.7167 44.765 35.8953 45.39 36.0739 45.9258L26.0434 50.0034C25.2398 48.9319 23.8112 48.5748 22.5908 49.0212C21.0729 49.6463 20.3585 51.3428 20.9836 52.831C21.6086 54.349 23.3052 55.0633 24.7934 54.4382C26.1327 53.9025 26.8471 52.4738 26.5792 51.1642L36.6096 47.0866C36.8775 47.6223 37.1454 48.0688 37.5919 48.5152L19.5549 66.4629C17.5012 64.9449 14.5843 65.0342 12.7092 66.9093C10.6555 68.9631 10.6555 72.2371 12.7092 74.2908C14.7629 76.3445 18.0369 76.3445 20.0907 74.2908C21.9658 72.4157 22.1444 69.4095 20.4478 67.3558L38.3955 49.4081C38.8419 49.7653 39.3777 50.1225 39.9134 50.3904L35.7465 60.4208C34.4964 60.2422 33.157 60.9566 32.6213 62.2066C31.9962 63.7246 32.7106 65.3914 34.2285 66.0164C35.7465 66.6415 37.4133 65.9271 38.0383 64.4092C38.5741 63.0698 38.1276 61.6411 36.9668 60.8673L41.1338 50.9261C41.6695 51.1047 42.2946 51.194 42.9196 51.2833V76.6124C40.3301 76.9695 38.3955 79.1126 38.3955 81.7615C38.3955 84.6189 40.7171 87 43.6339 87C46.5806 87 48.8724 84.6784 48.8724 81.7615C48.8724 79.0828 46.908 76.8803 44.3483 76.6124V51.3726C44.9733 51.2833 45.5091 51.194 46.0448 51.0154L50.1225 61.0458C49.051 61.8495 48.6938 63.2781 49.1403 64.4985C49.7653 66.0164 51.4619 66.7308 52.9501 66.1057C54.468 65.4807 55.1823 63.7841 54.5573 62.2959C54.0216 60.9566 52.5929 60.2422 51.2833 60.5101L47.1163 50.4796C47.6521 50.2118 48.1878 49.8546 48.6343 49.4081L66.5819 67.3558C64.9747 69.4095 65.064 72.4157 66.9391 74.2908C68.9928 76.3445 72.2668 76.3445 74.3206 74.2908C76.3743 72.2371 76.3743 68.9631 74.3206 66.9093C72.4454 65.0342 69.5286 64.8556 67.4749 66.4629L49.6165 48.5152C49.9737 48.0688 50.2415 47.6223 50.5094 47.1758L60.5399 51.3428C60.3613 52.5929 61.0756 53.9323 62.3257 54.468C63.8437 55.0931 65.5104 54.3787 66.1355 52.8608C66.7605 51.3428 66.0462 49.676 64.5282 49.051C63.1888 48.5152 61.7602 48.9617 60.9863 50.1225L51.0452 45.9555C51.2237 45.3305 51.313 44.7947 51.4023 44.0804H76.7314C76.9993 46.6699 79.2316 48.6938 81.8806 48.6938C84.7379 48.6938 87.119 46.3722 87.119 43.4554C87.0893 40.5087 84.7677 38.2764 81.8508 38.2764Z" fill="#000024"/>
</svg>
